<svg width="92" height="85" fill="none" xmlns="http://www.w3.org/2000/svg"><rect width="92" height="85" rx="5" fill="#333"/><path fill-rule="evenodd" clip-rule="evenodd" d="M53.107 42.86C49.444 45.561 44.134 47 39.564 47c-6.41 0-12.178-2.37-16.548-6.313-.344-.308-.036-.731.376-.491 4.71 2.742 10.54 4.391 16.555 4.391 4.058 0 8.521-.842 12.63-2.584.62-.262 1.14.412.53.856z" fill="#fff"/><path fill-rule="evenodd" clip-rule="evenodd" d="M54.634 41.12c-.47-.598-3.097-.282-4.276-.143-.359.043-.413-.268-.09-.494 2.097-1.474 5.532-1.047 5.93-.556.4.498-.105 3.943-2.073 5.585-.3.255-.588.118-.455-.215.441-1.104 1.43-3.578.964-4.176zM50.44 30.08v-1.431c0-.219.166-.362.363-.362h6.413c.205 0 .37.15.37.362v1.226c0 .204-.176.473-.484.9l-3.324 4.742c1.233-.028 2.538.154 3.657.785.25.144.319.352.34.56v1.527c0 .211-.229.455-.473.326-1.975-1.032-4.592-1.147-6.775.01-.222.12-.456-.121-.456-.329v-1.452c0-.233.004-.63.24-.982l3.85-5.52H50.81c-.204-.004-.37-.148-.37-.363zm-23.395 8.936h-1.95a.363.363 0 01-.348-.33V28.675c0-.2.168-.362.376-.362h1.818c.19.01.344.154.355.337v1.308h.036c.473-1.265 1.366-1.853 2.566-1.853 1.22 0 1.986.591 2.531 1.853.474-1.265 1.55-1.853 2.696-1.853.821 0 1.714.337 2.259 1.097.62.842.49 2.065.49 3.14v6.32a.37.37 0 01-.376.363h-1.95a.365.365 0 01-.351-.359v-5.31c0-.422.036-1.472-.054-1.874-.147-.674-.584-.864-1.147-.864-.473 0-.964.316-1.165.821-.2.505-.183 1.348-.183 1.918v5.31c0 .2-.168.361-.376.361h-1.95a.365.365 0 01-.352-.358l-.003-5.31c0-1.118.182-2.76-1.201-2.76-1.402 0-1.348 1.603-1.348 2.76v5.31c.003.186-.165.347-.373.347zM63.105 28.1c2.897 0 4.464 2.488 4.464 5.647 0 3.054-1.732 5.477-4.464 5.477-2.842 0-4.387-2.488-4.387-5.585 0-3.115 1.566-5.539 4.387-5.539zm.018 2.044c-1.437 0-1.53 1.96-1.53 3.183 0 1.223-.018 3.836 1.512 3.836 1.513 0 1.585-2.108 1.585-3.391 0-.843-.036-1.854-.29-2.657-.22-.695-.656-.971-1.277-.971zm8.2 8.872H69.38a.368.368 0 01-.352-.358l-.003-10.016a.371.371 0 01.376-.326h1.81a.37.37 0 01.348.28v1.53h.036c.545-1.37 1.312-2.022 2.66-2.022.875 0 1.732.316 2.277 1.18.509.799.509 2.15.509 3.118v6.303a.37.37 0 01-.373.315H74.71a.368.368 0 01-.348-.316v-5.441c0-1.097.129-2.696-1.22-2.696-.472 0-.91.315-1.128.8-.273.609-.309 1.222-.309 1.896v5.391a.38.38 0 01-.383.362zm-25.995-4.782c0 .76.018 1.395-.365 2.069-.312.548-.803.885-1.352.885-.749 0-1.186-.57-1.186-1.416 0-1.663 1.491-1.964 2.904-1.964v.426zm1.965 4.758a.413.413 0 01-.462.046c-.65-.537-.764-.788-1.119-1.301-1.072 1.09-1.828 1.42-3.216 1.42-1.642 0-2.921-1.015-2.921-3.04 0-1.585.856-2.66 2.079-3.191 1.057-.466 2.538-.549 3.667-.678v-.254c0-.466.036-1.015-.236-1.416-.237-.359-.692-.506-1.094-.506-.745 0-1.405.38-1.566 1.173-.033.175-.162.351-.34.358L40.19 31.4c-.161-.036-.337-.165-.29-.409.434-2.294 2.506-2.986 4.363-2.986.95 0 2.19.254 2.94.971.95.886.856 2.069.856 3.36v3.04c0 .914.38 1.315.735 1.806.125.176.154.387-.007.52-.398.334-1.108.95-1.495 1.294v-.003zM19.75 34.234c0 .76.018 1.395-.366 2.069-.311.548-.803.885-1.351.885-.75 0-1.187-.57-1.187-1.416 0-1.663 1.492-1.965 2.904-1.965v.427zm1.968 4.757a.413.413 0 01-.462.047c-.649-.538-.764-.789-1.119-1.301-1.072 1.09-1.828 1.42-3.215 1.42-1.646 0-2.922-1.015-2.922-3.044 0-1.585.857-2.66 2.08-3.19 1.057-.467 2.537-.55 3.667-.678v-.255c0-.466.035-1.014-.237-1.416-.237-.359-.696-.506-1.093-.506-.746 0-1.406.38-1.567 1.173-.032.175-.161.351-.34.358l-1.89-.204c-.161-.036-.337-.165-.29-.409.434-2.294 2.506-2.986 4.363-2.986.95 0 2.19.255 2.94.971.95.886.856 2.069.856 3.36v3.04c0 .914.38 1.315.735 1.806.125.176.154.388-.007.52-.398.334-1.108.95-1.495 1.294h-.004z" fill="#fff"/><path d="M34.352 7.966c1.143 0 2.286.24 3.428.72l-.817 2.022c-.92-.375-1.717-.563-2.39-.563-.458 0-.81.132-1.055.396-.246.258-.37.63-.37 1.116v1.697h3.296v1.924h-3.296v1.257c0 .996-.442 1.723-1.327 2.18h6.31V21h-9.21v-2.18c.603-.258 1.017-.553 1.24-.887.228-.334.342-.794.342-1.38v-1.275h-1.564v-1.925h1.564V11.64c0-1.178.334-2.083 1.002-2.716.674-.639 1.623-.958 2.848-.958zM48.438 21h-8.983v-1.89l3.226-3.26c.955-.979 1.579-1.656 1.872-2.03.293-.382.504-.733.633-1.055.128-.323.193-.657.193-1.002 0-.516-.144-.9-.43-1.152-.282-.252-.66-.378-1.135-.378a3.28 3.28 0 00-1.45.343 7.482 7.482 0 00-1.468.976l-1.476-1.75c.633-.538 1.157-.92 1.573-1.142.416-.223.87-.392 1.363-.51a6.821 6.821 0 011.652-.184c.803 0 1.512.146 2.127.44.615.292 1.093.702 1.432 1.23.34.527.51 1.13.51 1.81 0 .592-.105 1.149-.316 1.67-.205.516-.528 1.046-.967 1.591-.434.545-1.201 1.321-2.303 2.33l-1.652 1.555v.123h5.599V21zm6.226-8.209c1.242 0 2.23.349 2.962 1.046.738.697 1.107 1.652 1.107 2.865 0 1.436-.442 2.54-1.327 3.314-.885.773-2.15 1.16-3.797 1.16-1.43 0-2.584-.232-3.462-.695v-2.346a7.332 7.332 0 001.617.606 7.281 7.281 0 001.749.229c1.658 0 2.487-.68 2.487-2.04 0-1.294-.858-1.942-2.575-1.942-.31 0-.654.033-1.029.097-.375.059-.68.123-.914.193l-1.08-.58.483-6.548h6.97v2.303h-4.588l-.238 2.523.308-.062c.357-.082.8-.123 1.327-.123z" fill="#FF9960"/><path d="M29.942 58.634h2.184v3.124a7.03 7.03 0 01-1.037.246 7.892 7.892 0 01-1.221.084c-.973 0-1.73-.289-2.272-.866-.542-.58-.813-1.391-.813-2.434 0-.668.133-1.253.4-1.754.27-.504.656-.887 1.16-1.151.504-.267 1.094-.4 1.77-.4a4.84 4.84 0 011.917.378l-.29.659c-.58-.246-1.138-.37-1.675-.37-.782 0-1.393.234-1.832.7-.44.465-.66 1.111-.66 1.938 0 .867.212 1.525.633 1.973.425.448 1.048.672 1.868.672.445 0 .88-.051 1.305-.154v-1.977h-1.437v-.668zM34.543 62h-.73v-4.816h.73V62zm-.791-6.122c0-.167.041-.288.123-.364a.426.426 0 01.308-.119.43.43 0 01.303.119c.085.079.127.2.127.364 0 .164-.042.288-.127.37a.43.43 0 01-.303.118.426.426 0 01-.308-.118c-.082-.082-.123-.206-.123-.37zm4.759 1.873h-1.226V62h-.73v-4.25h-.861v-.33l.861-.263v-.268c0-1.183.517-1.775 1.551-1.775.255 0 .554.051.897.154l-.189.584a2.411 2.411 0 00-.72-.136c-.276 0-.48.092-.612.277-.131.181-.197.474-.197.879v.312h1.226v.567zm2.684 3.735c.13 0 .254-.009.374-.026.12-.021.215-.041.285-.062v.558a1.279 1.279 0 01-.351.092 2.44 2.44 0 01-.413.04c-.932 0-1.398-.49-1.398-1.472V57.75h-.69v-.352l.69-.303.308-1.029h.422v1.117h1.397v.567h-1.397v2.834c0 .29.069.513.206.668.138.155.327.233.567.233zm7.325-5.335c-.706 0-1.264.236-1.674.707-.407.47-.611 1.112-.611 1.93 0 .84.196 1.49.589 1.95.395.458.958.686 1.687.686.448 0 .96-.08 1.534-.241v.654c-.445.167-.995.25-1.648.25-.946 0-1.677-.286-2.193-.86-.513-.575-.769-1.39-.769-2.448 0-.662.123-1.242.37-1.74a2.682 2.682 0 011.072-1.152c.468-.27 1.019-.404 1.652-.404.674 0 1.262.123 1.766.37l-.316.64a3.404 3.404 0 00-1.459-.342zM54.549 62l-.145-.685h-.035c-.24.301-.48.506-.721.615-.237.105-.535.158-.892.158-.478 0-.853-.123-1.125-.37-.27-.245-.404-.595-.404-1.05 0-.972.777-1.482 2.333-1.529l.817-.026v-.299c0-.378-.082-.656-.246-.835-.16-.182-.42-.273-.778-.273-.4 0-.855.124-1.362.37l-.224-.558c.237-.13.497-.23.778-.304.284-.073.568-.11.852-.11.575 0 1 .128 1.275.383.278.255.417.663.417 1.226V62h-.54zm-1.648-.514c.454 0 .81-.125 1.068-.374.26-.249.39-.597.39-1.046v-.435l-.729.031c-.58.02-.999.111-1.257.273-.254.158-.382.405-.382.742 0 .264.08.465.237.602.162.138.386.207.673.207zm6.143-4.39c.214 0 .406.017.576.052l-.101.677a2.482 2.482 0 00-.528-.066c-.39 0-.723.158-1.002.475-.275.316-.413.71-.413 1.182V62h-.73v-4.816h.603l.083.892h.035c.18-.314.394-.556.646-.725.252-.17.53-.255.83-.255zm5.005 4.258h-.04c-.337.49-.84.734-1.511.734-.63 0-1.121-.215-1.473-.646-.348-.43-.523-1.043-.523-1.837s.176-1.41.528-1.85c.351-.44.84-.66 1.468-.66.653 0 1.154.238 1.503.713h.057l-.031-.348-.018-.338v-1.96h.73V62h-.594l-.096-.646zm-1.46.123c.499 0 .86-.135 1.082-.404.226-.273.338-.71.338-1.314v-.154c0-.683-.114-1.169-.343-1.459-.225-.293-.587-.44-1.085-.44-.428 0-.756.167-.984.502-.226.33-.339.8-.339 1.406 0 .615.113 1.08.339 1.393.225.313.556.47.993.47zM27.77 73v-6.425h.747V73h-.747zm5.95 0v-3.116c0-.392-.09-.685-.268-.879-.179-.193-.459-.29-.84-.29-.504 0-.873.137-1.107.409-.235.273-.352.722-.352 1.35V73h-.73v-4.816h.594l.119.659h.035c.15-.237.359-.42.628-.55.27-.131.57-.197.901-.197.58 0 1.017.14 1.31.422.293.278.44.725.44 1.34V73h-.73zm4.407.088c-.697 0-1.238-.214-1.622-.642-.38-.43-.57-1.038-.57-1.823 0-.806.193-1.429.58-1.868.389-.44.942-.66 1.66-.66.232 0 .463.026.695.075.231.05.413.109.545.176l-.224.62a3.284 3.284 0 00-.528-.158 2.283 2.283 0 00-.505-.066c-.979 0-1.468.624-1.468 1.872 0 .592.119 1.046.356 1.362.24.317.595.475 1.063.475.402 0 .813-.087 1.235-.26v.646c-.322.167-.728.25-1.217.25zM41.47 73h-.73v-6.838h.73V73zm2.482-4.816v3.124c0 .393.09.686.268.879.179.193.459.29.84.29.503 0 .871-.138 1.103-.413.234-.275.351-.725.351-1.35v-2.53h.73V73h-.602l-.106-.646h-.04a1.452 1.452 0 01-.623.545 2.076 2.076 0 01-.906.189c-.586 0-1.025-.14-1.318-.418-.29-.278-.435-.723-.435-1.335v-3.151h.738zm8.371 4.17h-.04c-.336.49-.84.734-1.511.734-.63 0-1.12-.215-1.472-.646-.349-.43-.523-1.043-.523-1.837s.176-1.41.527-1.85c.352-.44.841-.66 1.468-.66.653 0 1.154.238 1.503.713h.057l-.03-.348-.018-.338v-1.96h.73V73h-.594l-.097-.646zm-1.459.123c.498 0 .859-.135 1.081-.404.226-.273.339-.71.339-1.314v-.154c0-.683-.115-1.169-.343-1.459-.226-.293-.588-.44-1.086-.44-.427 0-.755.168-.984.501-.226.332-.338.8-.338 1.407 0 .615.112 1.08.338 1.393.226.313.557.47.993.47zm5.985.61c-.712 0-1.274-.216-1.687-.65-.41-.433-.616-1.035-.616-1.806 0-.776.19-1.393.572-1.85.383-.457.898-.685 1.542-.685.604 0 1.081.199 1.433.597.351.396.527.919.527 1.57v.46h-3.318c.015.566.157.995.426 1.288.273.293.655.44 1.148.44a3.88 3.88 0 001.538-.325v.65c-.258.111-.503.19-.734.237-.229.05-.506.075-.83.075zm-.198-4.38c-.386 0-.695.126-.927.378-.228.251-.363.6-.404 1.045h2.518c0-.46-.103-.811-.308-1.054-.205-.246-.498-.37-.879-.37zm6.745 3.647h-.04c-.336.49-.84.734-1.51.734-.63 0-1.121-.215-1.473-.646-.349-.43-.523-1.043-.523-1.837s.176-1.41.527-1.85c.352-.44.841-.66 1.468-.66.654 0 1.154.238 1.503.713h.057l-.03-.348-.018-.338v-1.96h.73V73h-.594l-.096-.646zm-1.459.123c.498 0 .859-.135 1.082-.404.225-.273.338-.71.338-1.314v-.154c0-.683-.114-1.169-.343-1.459-.225-.293-.587-.44-1.085-.44-.428 0-.756.168-.985.501-.225.332-.338.8-.338 1.407 0 .615.113 1.08.338 1.393.226.313.557.47.993.47z" fill="#fff"/></svg>