<svg width="26" height="25" fill="none" xmlns="http://www.w3.org/2000/svg"><path d="M13.13 24.912c-6.713.09-12.426-5.639-12.3-12.66C.956 5.7 6.402-.096 13.486.091c6.648.172 12.005 5.743 11.983 12.466C25.447 19.415 19.815 25 13.13 24.912zM2.4 12.49c-.022 5.915 4.684 10.775 10.575 10.865 6.07.09 10.945-4.83 10.93-10.88A10.78 10.78 0 0013.086 1.677C7.21 1.67 2.386 6.553 2.401 12.491z" fill="#6300A9"/><path d="M12.242 12.333c1.342 1.07 1.097 2.633.415 3.47-.503.613-1.178.913-1.941.942-1.178.038-2.364.008-3.55.008-.037 0-.066-.015-.133-.037V8.318c.015-.015.03-.045.052-.045 1.282.015 2.571-.067 3.831.075 1.66.187 2.52 1.891 1.786 3.335-.111.224-.289.419-.46.65zm-3.29-.822c.46 0 .89.03 1.312-.008.393-.037.63-.329.652-.688.022-.396-.17-.71-.578-.777-.452-.075-.911-.06-1.386-.09v1.563zm.008 1.817v1.526c.437 0 .852.03 1.267-.008.445-.045.697-.359.69-.77-.008-.39-.268-.703-.683-.74-.415-.038-.83-.008-1.274-.008zm8.795-3.081v6.476h-2.068v-6.439h-1.86V8.265h5.84v1.99c-.623-.008-1.238-.008-1.912-.008z" fill="#6300A9"/></svg>