<svg width="75" height="17" fill="none" xmlns="http://www.w3.org/2000/svg"><path d="M7.59 6.817a3.664 3.664 0 01-1.681 1.015C3.537 8.52 1.198 7.103.723 4.698c-.014-.075-.034-.15-.05-.226v-.914c.09-.333.149-.676.27-.996.991-2.623 4.49-3.417 6.53-1.489.042.04.07.094.104.142-.19.18-.383.356-.569.54-.275.274-.545.554-.819.831-.052-.029-.11-.051-.155-.088a2.034 2.034 0 00-2.341-.206 1.99 1.99 0 00-.946 2.144c.214.986 1.179 1.662 2.192 1.55.475-.053.865-.261 1.213-.566.053.05.108.098.16.148.428.414.853.83 1.277 1.249z" fill="#DC955B"/><path d="M.673 12.52c.099-.348.173-.703.301-1.04a3.33 3.33 0 01.883-1.301l1.356 1.351c.02.02.052.03.08.042-.034.043-.067.086-.102.126a1.97 1.97 0 00-.483 1.142c-.102 1.198.918 2.189 2.084 2.147 1.234-.044 2.179-1.226 1.899-2.413-.09-.386-.296-.703-.538-1.005l1.409-1.392c.222.272.484.522.66.822a3.946 3.946 0 01-.658 4.851 3.988 3.988 0 01-2.575 1.137c-2.153.15-4.008-1.407-4.28-3.44-.004-.026-.023-.052-.034-.078-.002-.315-.002-.632-.002-.95z" fill="#75B5A8"/><path d="M59.294 2.716c.316-.364.67-.657 1.142-.745.77-.144 1.504-.105 2.08.518.361.389.536.867.617 1.38.033.197.04.4.042.6.004 1.115.002 2.23.002 3.357H60.88V7.64c-.003-1.06-.002-2.12-.013-3.18a1.647 1.647 0 00-.097-.48c-.065-.204-.235-.295-.44-.295-.208 0-.387.093-.442.296a2.901 2.901 0 00-.112.714c-.011.993-.005 1.987-.005 2.98v.154h-2.296v-.192c-.003-1.06-.003-2.12-.013-3.18a1.525 1.525 0 00-.089-.463c-.07-.21-.231-.319-.43-.31-.21.009-.38.102-.433.307a3.01 3.01 0 00-.103.698c-.011 1.042-.005 2.083-.005 3.138H54.12V2.035h2.275v.622c.341-.543.832-.769 1.46-.745.615.023 1.088.296 1.44.804zM30.926 16.829h-2.288V8.864h2.282v2.852c.047-.054.07-.077.089-.102.356-.478.845-.686 1.432-.703.433-.013.85.038 1.224.27.5.31.736.791.844 1.339.055.279.076.567.08.852.007 1.09.003 2.182.003 3.273v.186h-2.296v-.534c-.004-.92-.004-1.841-.013-2.76a1.49 1.49 0 00-.075-.43c-.089-.28-.327-.433-.618-.424-.298.01-.51.152-.585.44a2.67 2.67 0 00-.077.632c-.008.962-.004 1.926-.004 2.89.002.057.002.117.002.184zM27.07 5.205l1.339 1.505c-.585.52-1.214.958-1.983 1.118-1.54.32-2.96.06-4.15-1.009-.918-.823-1.31-1.88-1.238-3.097C21.14 1.958 22.42.52 24.232.127c1.58-.342 2.979-.003 4.172 1.126l-1.332 1.5c-.523-.565-1.166-.802-1.924-.733a1.897 1.897 0 00-1.288.636c-.705.783-.625 2.107.17 2.823.731.656 2.179.693 3.04-.274zm1.332 5.045l-1.333 1.501c-.508-.55-1.131-.79-1.87-.74-.528.037-.975.24-1.33.628-.711.772-.642 2.098.147 2.825.722.666 2.18.719 3.052-.258.443.5.885.996 1.337 1.503-.623.558-1.302 1.008-2.13 1.152-1.489.26-2.863-.01-4.006-1.044-.915-.826-1.308-1.88-1.235-3.099.105-1.764 1.384-3.202 3.195-3.593 1.582-.341 2.981-.002 4.173 1.126z" fill="#30253B"/><path d="M13.662 8.017c-.693-.023-1.352-.173-1.964-.508-1.517-.831-2.318-2.501-2.022-4.22C9.958 1.652 11.318.33 13.002.054c2.412-.395 4.628 1.4 4.71 3.814 0 .042-.004.085-.006.129l-2.031-.007a1.98 1.98 0 00-1.328-1.86 2.029 2.029 0 00-2.24.608 1.964 1.964 0 00-.193 2.255c.392.658.994.97 1.751 1.016-.001.67-.003 1.337-.003 2.007z" fill="#562983"/><path d="M10.808 10.179c.547-.583 1.229-.937 2.007-1.09 2.206-.436 4.226.827 4.79 2.978.556 2.126-.909 4.429-3.08 4.845-1.421.272-2.657-.09-3.714-1.063.058-.063.113-.127.173-.187l1.242-1.245c.039.03.078.058.117.09.377.312.812.49 1.303.487.793-.006 1.407-.36 1.787-1.041.371-.663.353-1.353-.056-1.997-.425-.664-1.051-.98-1.856-.94-.507.026-.916.255-1.292.566-.474-.47-.947-.936-1.421-1.403z" fill="#C5D46F"/><path d="M50.995 2.03h2.288v5.8H51v-.64c-.018-.016-.037-.03-.055-.047-.006.029-.003.063-.02.085-.535.724-1.291.82-2.1.67-.77-.143-1.19-.673-1.372-1.392a3.996 3.996 0 01-.117-.92c-.013-1.12-.005-2.241-.005-3.364v-.19h2.296v.192c.003 1.036.002 2.072.013 3.107.002.16.044.325.097.478.091.263.306.372.573.38.28.01.502-.124.582-.39a2.48 2.48 0 00.1-.68c.011-.969.005-1.937.005-2.906-.002-.06-.002-.119-.002-.184zM37.776 7.834h-2.285V2.021h2.283v.583c.118-.094.267-.218.421-.334 1.124-.847 2.79-.27 3.127 1.093.074.298.11.612.114.92.014 1.12.005 2.241.005 3.362v.184h-2.295v-.203c-.004-1.03-.004-2.06-.013-3.089a1.558 1.558 0 00-.086-.463c-.09-.269-.308-.407-.594-.407-.282 0-.509.14-.585.415a2.63 2.63 0 00-.089.665c-.01.962-.003 1.924-.003 2.888v.199zm-6.184.118c-.994-.002-1.888-.282-2.582-1.01-1.466-1.536-.904-3.986 1.118-4.757 1.372-.522 2.717-.406 3.868.569 1.629 1.379 1.201 3.97-.772 4.863-.513.23-1.004.331-1.632.335zm-.08-4.258c-.72.02-1.214.608-1.168 1.322.048.743.638 1.229 1.413 1.149a1.212 1.212 0 001.086-1.33c-.07-.725-.63-1.205-1.33-1.141zm6.861 7.213c1.079.011 2.027.333 2.729 1.179 1.285 1.553.66 3.85-1.27 4.592-1.233.474-2.469.412-3.578-.349-1.92-1.316-1.638-4.126.488-5.087.516-.232 1-.332 1.631-.335zm.075 4.26c.688-.017 1.217-.57 1.17-1.322-.048-.767-.662-1.226-1.411-1.15a1.212 1.212 0 00-1.088 1.328c.068.724.63 1.206 1.329 1.143zm30.388-9.469l.943 1.246c-.491.49-1.079.775-1.744.906-.946.186-1.876.153-2.764-.259-1.174-.544-1.805-1.668-1.679-2.965a2.943 2.943 0 012.272-2.6c1.031-.238 2.035-.172 2.956.395.821.504 1.214 1.266 1.28 2.203.017.247.002.496.002.757h-4.365c.047.285.227.46.449.586.667.38 1.355.343 2.042.063.205-.085.395-.215.608-.332zm-.824-1.375c-.008-.453-.476-.828-1.165-.812-.63.014-1.05.323-1.098.812h2.263zM57.216 14.386h-4.407c.095.152.155.29.254.39.37.377.848.473 1.355.46.544-.014.784-.108 1.525-.547l.949 1.254a2.955 2.955 0 01-1.22.76c-1.099.364-2.2.377-3.262-.099-2.02-.906-2.148-3.33-.982-4.65.54-.612 1.238-.929 2.044-1.015.871-.093 1.71.01 2.466.486.821.52 1.216 1.283 1.274 2.228.017.237.004.477.004.733zm-4.354-1.07h2.264c-.007-.443-.47-.823-1.163-.807-.63.015-1.046.32-1.1.807z" fill="#30253B"/><path d="M50.832 16.04a3.178 3.178 0 01-1.579.81c-1.065.22-2.087.114-3.016-.486-1.875-1.21-1.799-3.846.136-4.96 1.277-.734 3.055-.656 4.195.188.089.066.17.14.267.22l-1.081 1.305c-.305-.137-.58-.303-.88-.388-.717-.205-1.416.141-1.617.777-.149.467-.086.91.257 1.277.371.394.849.492 1.357.346.295-.083.568-.245.884-.386l1.077 1.298zm-9.07-9.962c.555-.127 1.1-.248 1.633-.37.022.017.038.024.04.032.116.507.5.687 1.037.666a.735.735 0 00.301-.07c.07-.039.15-.129.152-.197.004-.068-.072-.175-.139-.202-.328-.136-.667-.244-.997-.375-.301-.118-.609-.232-.892-.387-1.185-.649-1.028-1.975-.301-2.649.843-.783 2.759-.857 3.596-.02.255.254.448.544.587.893-.56.155-1.112.309-1.672.466-.14-.28-.343-.455-.662-.46a.867.867 0 00-.13.008c-.14.021-.252.085-.272.232-.018.143.096.202.207.245.292.116.59.212.873.341.382.177.787.334 1.124.577 1.073.777.927 2.227-.263 2.821-.668.333-1.382.367-2.11.301-.45-.041-.882-.165-1.262-.42-.499-.345-.761-.827-.85-1.432zm20.457 6.314c-.535.15-1.06.301-1.587.44-.039.01-.118-.04-.146-.086-.166-.269-.41-.374-.718-.34-.14.014-.255.076-.28.222-.026.152.095.21.212.258.51.208 1.028.403 1.531.626.352.155.657.386.886.7.587.81.272 1.927-.68 2.406-.667.336-1.383.372-2.108.308-.452-.04-.883-.164-1.265-.418-.505-.338-.767-.82-.863-1.432l1.647-.373c.244.6.644.812 1.255.673.13-.03.255-.072.273-.23.018-.156-.105-.21-.22-.252-.437-.16-.879-.31-1.314-.474-.425-.162-.816-.38-1.092-.751-.526-.707-.298-1.771.497-2.31.638-.432 1.357-.509 2.103-.427.49.054.928.232 1.29.575.258.248.444.544.579.885zm10.623-4.561h-2.287v-5.8h2.205v.985c.162-.384.403-.69.777-.887.37-.195.762-.253 1.183-.205v2.187c-.204-.016-.404-.036-.605-.046-.793-.04-1.227.32-1.258 1.111-.032.815-.013 1.632-.016 2.449l.001.206z" fill="#30253B"/><path d="M44.5 16.832h-2.296v-5.8H44.5v5.8z" fill="#30253B"/><path d="M7.563 10.178c-.47.465-.94.927-1.409 1.392-.065-.046-.133-.088-.192-.138-.463-.378-1.001-.469-1.577-.394-.421.056-.771.266-1.09.534-.026-.015-.058-.023-.08-.042-.453-.45-.904-.9-1.356-1.352a3.71 3.71 0 011.88-1.056c1.2-.282 2.318-.082 3.333.62.18.123.327.29.49.436zm3.247 0l1.417 1.401c-.056.072-.118.141-.171.215-.377.517-.502 1.084-.345 1.705.089.35.282.646.515.918l-1.242 1.244c-.06.061-.115.125-.173.188-.61-.63-1.02-1.358-1.143-2.231-.15-1.073.055-2.064.702-2.95.132-.176.293-.326.44-.49zm4.865-6.188c.677.002 1.355.006 2.032.007-.008 1.283-.517 2.33-1.524 3.136a3.755 3.755 0 01-2.284.853c-.08.002-.157.02-.236.029l.005-2.005c1.09-.027 2.031-.882 2.007-2.02zM6.191 2.586c.272-.277.543-.557.82-.831.184-.184.378-.36.568-.54.194.223.414.428.574.673.373.563.56 1.19.601 1.867a3.859 3.859 0 01-.962 2.852c-.063.073-.132.139-.199.21-.426-.417-.85-.835-1.276-1.251a3.164 3.164 0 00-.16-.147c.37-.385.573-.846.588-1.373a1.886 1.886 0 00-.468-1.306c-.04-.044-.06-.101-.086-.154z" fill="#DBDCDB"/><path d="M42.071 9.47c0-.248.21-.568.607-.717a1.879 1.879 0 011.354.002c.37.14.58.42.604.818.025.424-.138.753-.528.941a1.686 1.686 0 01-1.464.023c-.383-.167-.583-.47-.573-1.066z" fill="#30253B"/><path d="M3.706 4.003a.997.997 0 011.01-.998c.568-.001 1.033.455 1.026 1.006a1.033 1.033 0 01-1.036 1.005 1.015 1.015 0 01-1-1.013z" fill="#DC955B"/><path d="M3.706 13a.985.985 0 011.003-.997c.582-.001 1.033.434 1.032.995a1.03 1.03 0 01-1.012 1.01A1.015 1.015 0 013.706 13z" fill="#75B5A8"/><path d="M14.678 4.005c0 .556-.471 1.024-1.023 1.014a1.015 1.015 0 01-1.004-1.012.999.999 0 011.022-1.004 1 1 0 011.005 1.002z" fill="#562983"/><path d="M13.668 12.003c.574 0 1.005.425 1.007.992a1.008 1.008 0 01-1.017 1.013c-.544.003-1.017-.464-1.013-1.004a.996.996 0 011.023-1z" fill="#C5D46F"/></svg>