<svg width="146" height="27" fill="none" xmlns="http://www.w3.org/2000/svg"><path d="M36.773 9.957c0 .179-.165.305-.397.325l-1.672.072c-.231.027-.423-.099-.423-.278l-.033-1.935c-.1-3.34-.919-4.096-2.624-4.096-1.673 0-2.889 1.432-2.889 3.526 0 2.465 1.706 3.52 3.543 4.507 2.102 1.133 4.33 2.14 4.33 4.904 0 2.896-2.07 4.553-5.15 4.553-4.038 0-5.413-2.465-5.314-4.732v-.908c.033-.179.231-.305.43-.305h1.738c.231 0 .397.153.397.305v.676c0 1.889.82 3.247 2.558 3.247 1.705 0 2.69-1.053 2.69-2.843 0-2.114-2.525-2.87-4.76-4.202-1.678-1-3.185-2.359-3.185-4.924 0-3.698 2.59-5.613 5.645-5.613 3.576 0 5.248 1.81 5.15 5.938l-.034 1.783zm17.3-2.539l-3.676 13.686c-.033.126-.198.225-.396.225h-1.97c-.165 0-.364-.126-.397-.252l-1.606-8.834c-.033-.152-.132-.225-.198-.225-.1 0-.166.072-.199.225l-1.97 8.854c-.033.126-.198.252-.396.252h-2.003c-.165 0-.364-.1-.397-.225L37.957 8.02v-.053c0-.1.099-.179.231-.179l1.54-.053c.199 0 .364.126.364.252l2.102 9.961c.033.153.1.225.198.225.1 0 .166-.072.199-.225l1.672-8.655c.033-.153.231-.252.397-.252l2.234-.053c.165 0 .364.126.397.252l1.771 8.53c0 .152.1.225.198.225.1 0 .166-.073.199-.226L51.95 7.451c.033-.152.198-.252.396-.252h1.508c.132 0 .23.073.23.153-.012.04-.012.066-.012.066zm9.942 14.594c0 .073-.1.126-.199.152h-2.003c-.099 0-.198-.073-.198-.152l-.033-.756c-1.084.63-1.904.908-2.79.908-2.492 0-4.395-1.16-4.395-4.254 0-3.122 2.201-4.732 4.825-4.732.423 0 1.117.125 2.168.55l-.033-1.107c-.066-2.24-.555-3.022-2.102-3.022-1.64 0-2.327 1.259-2.327 2.565v.503c0 .073-.066.126-.198.126h-2.2c-.066 0-.1-.026-.1-.1v-.324c-.065-2.412 2.235-4.652 5.051-4.652 2.3 0 4.264.908 4.297 3.42l.238 10.875zm-2.559-5.991a2.803 2.803 0 00-2.2-1.054c-1.74 0-2.559 1.306-2.559 2.744 0 1.385.853 2.816 2.492 2.816.985 0 1.838-.477 2.36-1.232l-.093-3.274zm9.751 5.586c-.853 0-1.64-.278-2.525-.854l.099 5.056c0 .1-.133.2-.298.2h-1.87c-.166 0-.298-.1-.298-.2l-.297-18.212c0-.1.132-.199.264-.199h1.904c.165 0 .264.073.264.199l.033 1.485c.886-.928 1.739-1.386 2.955-1.386 2.624 0 4.363 1.432 4.363 7.045 0 5.256-2.466 6.866-4.594 6.866zm-.33-12.022c-1.283 0-2.037.656-2.36 1.412l.132 7.575c.297.656.82 1.18 1.837 1.18 2.07 0 2.823-1.008 2.823-5.083-.007-3.228-.43-5.084-2.433-5.084zm20.802 10.743c0 .153-.165.305-.397.305l-1.54.053c-.231 0-.396-.126-.396-.278l-.093-14.5V5.78c-.033 0-.033.053-.066.126l-3.444 13.686c-.033.179-.231.305-.456.305l-1.507-.053c-.232-.027-.456-.153-.49-.325L79.636 6.06c0-.073-.033-.126-.033-.126-.033 0-.033.053-.033.125l.165 15.144c0 .18-.165.305-.396.305h-1.441c-.232 0-.397-.126-.397-.305l-.198-17.761c0-.18.165-.305.396-.305l3.087-.153h.033c.199 0 .423.126.456.279L84.52 15.31c0 .073.033.1.066.1s.066-.027.066-.126l3.22-12.758c.033-.179.23-.305.456-.305l2.855-.053h.033c.199 0 .364.153.364.305l.099 17.854zm7.548 2.36c-.622 2.187-2.36 3.473-4.495 3.473-.82 0-1.184-.153-1.184-.325l-.066-1.18c0-.152.133-.305.265-.305s.231.126.918.126c1.349 0 2.036-1.18 2.493-2.492l.198-.63-4.198-13.234c-.033-.126.067-.279.265-.279l1.937-.126c.165 0 .363.1.396.252l2.823 9.484 2.36-9.61c.033-.152.198-.252.396-.252l1.805-.053c.198 0 .297.1.264.252l-4.177 14.899zm13.525-10.664v.279c2.102.682 3.053 2.041 3.053 3.645 0 2.439-2.558 4.732-6.497 4.58 0 0-1.085 0-4.006-.153-.199 0-.331-.126-.331-.252l.066-18.013c0-.126.133-.252.298-.252 2.591 0 4.561.026 4.561.026 3.675.027 6.068 2.187 6.068 4.958 0 2.843-1.11 4.725-3.212 5.182zm-2.202-8.33h-2.558c-.33 0-.555.252-.555.477l-.066 6.442c0 .252.264.45.588.45l2.069-.026c2.267-.027 3.312-1.359 3.312-3.672 0-2.737-1.21-3.671-2.79-3.671zm-.224 9.285l-2.327-.027c-.331 0-.589.2-.589.45v4.633c0 .226.232.478.556.504l2.168.053c1.348.053 2.955-.828 2.955-2.87-.007-2.014-1.719-2.717-2.763-2.743zm8.825-6.343c-.885 0-1.606-.556-1.606-1.232 0-.676.721-1.233 1.606-1.233.886 0 1.607.557 1.607 1.233s-.721 1.232-1.607 1.232zm1.283 15.197c0 .152-.165.305-.397.305l-1.606.026c-.232 0-.397-.126-.397-.305l-.066-13.307c0-.18.165-.305.397-.305l1.54.053c.198 0 .397.126.397.305l.132 13.228zm4.95-.755c.033.152-.165.304-.364.304l-1.639.027c-.198 0-.397-.126-.397-.305l-.231-18.14c0-.152.165-.304.397-.278l1.54.027c.231 0 .397.152.397.305l.297 18.06zm4.793 0c.033.152-.166.304-.364.304l-1.639.027c-.199 0-.397-.126-.397-.305l-.231-18.14c0-.152.165-.304.396-.278l1.54.027c.232 0 .397.152.397.305l.298 18.06zm11.159-8.172c0 .126-.166.225-.331.225l-1.672-.026c-.456 0-.331-.504-.331-.676.033-1.989-.132-3.5-2.036-3.5-1.216 0-2.201.783-2.201 2.062 0 1.584 1.117 2.24 2.426 2.79 1.772.782 3.874 1.385 3.874 4.023 0 2.014-2.069 3.4-4.495 3.4-2.724 0-4.628-1.36-4.495-3.771 0-.18-.1-.703.396-.703l1.772.053c.33 0 .363.026.363.225v.279c.033 1.107.364 2.24 1.871 2.24 1.249 0 2.069-.703 2.069-1.684 0-1.557-1.904-1.862-3.609-2.664-1.408-.676-2.724-1.71-2.724-4.102 0-2.24 2.003-3.924 4.892-3.924 3.378 0 4.396 1.836 4.264 4.68l-.033 1.073zm3.859-8.835c.437.438.655.968.655 1.584 0 .616-.218 1.147-.655 1.584a2.163 2.163 0 01-1.586.663c-.621 0-1.15-.219-1.58-.656a2.169 2.169 0 01-.648-1.578c0-.616.218-1.146.655-1.59a2.133 2.133 0 011.579-.663c.615 0 1.144.219 1.58.656zm-.297 2.817c.33-.345.496-.756.496-1.24 0-.483-.172-.9-.523-1.245a1.73 1.73 0 00-1.256-.524 1.71 1.71 0 00-1.255.53 1.712 1.712 0 00-.523 1.26c0 .49.172.907.516 1.252.344.345.76.524 1.262.524.496 0 .919-.18 1.27-.537h-.721l-.535-.776h-.271v.776h-.681V4.389h.998c.397 0 .681.067.846.206.172.139.251.358.251.656 0 .371-.165.623-.502.769l.628.868zm-.886-1.399c.06-.053.086-.132.086-.245 0-.112-.026-.192-.092-.238-.06-.047-.166-.067-.311-.067h-.337v.63h.33c.152 0 .265-.027.324-.08z" fill="#0B1743"/><path fill-rule="evenodd" clip-rule="evenodd" d="M5.786 7.497c1.04-.66 2.731-1.096 5.667-1.087l-.465-1.468c0-.084.038-.12.112-.14l3.995 2.267c.167.084.167.196.027.326l-3.251 2.87c-.177 0-.307-.065-.353-.232l.195-1.84c-1.486.066-3.103.716-4.859 1.84L5.786 7.497zm9.438 7.553c-1.04.66-2.732 1.096-5.667 1.087l.464 1.467c0 .084-.037.121-.111.14l-3.995-2.267c-.167-.084-.167-.195-.028-.325l3.252-2.87c.176 0 .306.064.353.232l-.195 1.839c1.486-.065 3.103-.715 4.858-1.84l1.069 2.537z" fill="#0B1743"/><path d="M20.017.957l-.009-.093a.806.806 0 00-.232-.585.891.891 0 00-.65-.279c-.028 0-.084 0-.121.01a2.03 2.03 0 00-.233.018C12.65 1.254 6.566 1.738.917 2.072a.947.947 0 00-.613.25.844.844 0 00-.297.744c.307 3.27.595 5.555.873 7.766.39 3.168.734 5.908 1.031 10.618.01.214.103.409.233.539a.887.887 0 00.678.316c.046 0 .083 0 .13-.01 6.28-.66 11.528-1.16 17.019-.975.418.037.817-.232.882-.557a.887.887 0 00.075-.437c-.641-8.064-.809-10.813-.91-19.37zm-1.105 18.552c-5.175-.121-10.312.353-15.161.873-.279-4.209-.595-6.652-.948-9.467-.26-2.006-.52-4.087-.808-7.069 4.46-.279 10.228-.743 16.09-1.83.093 7.608.26 10.089.827 17.493z" fill="#0B1743"/></svg>