<svg width="10" height="11" fill="none" xmlns="http://www.w3.org/2000/svg"><path d="M8.929 4.813h-.536V3.266C8.393 1.466 6.87 0 5 0 3.13 0 1.607 1.465 1.607 3.266v1.546h-.536C.48 4.813 0 5.274 0 5.845V9.97C0 10.539.48 11 1.071 11H8.93c.59 0 1.07-.462 1.07-1.031V5.844c0-.57-.48-1.032-1.071-1.032zM5.893 8.421c0 .475-.4.86-.893.86s-.893-.385-.893-.86V7.39c0-.475.4-.86.893-.86s.893.385.893.86v1.03zm.714-3.61H3.393V3.266c0-.853.72-1.547 1.607-1.547.886 0 1.607.694 1.607 1.547v1.546z" fill="#000"/></svg>