<svg xmlns="http://www.w3.org/2000/svg" viewBox="0 0 481 512"><path d="M459.5 22l-.2-2.1c0-5.1-1.7-9.8-5.3-13.4-3.9-4.2-9.2-6.5-15-6.5-.6 0-1.9 0-2.8.2-1.7 0-3.6.2-5.3.4-140.5 28.2-280.2 39.3-409.8 47-5.5.2-10.9 2.6-14.1 5.8C1.9 57.9-.7 64.3.2 70.5c7 75.1 13.6 127.5 20 178.3 9 72.7 16.8 135.6 23.7 243.7.2 4.9 2.3 9.4 5.3 12.4 3.8 4.7 9.8 7.2 15.6 7.2 1.1 0 1.9 0 3-.2 144.2-15.1 264.6-26.7 390.7-22.4 9.6.9 18.8-5.3 20.3-12.8 1.5-3.2 1.9-6.6 1.7-10-14.8-185.2-18.7-248.3-21-444.7zm-25.4 425.8c-118.8-2.8-236.7 8.1-348 20-6.4-96.6-13.6-152.7-21.8-217.3-6-46.1-11.9-93.8-18.6-162.3 102.4-6.4 234.8-17.1 369.3-42 2.3 174.7 6.1 231.7 19.1 401.6z" fill="#0b1743"/><path d="M132.2 180.5c23.9-15.1 62.7-25.2 130.1-24.9l-10.7-33.7c0-1.9.9-2.8 2.6-3.2l91.7 52c3.8 1.9 3.8 4.5.6 7.5l-74.6 65.9c-4.1 0-7-1.5-8.1-5.3l4.5-42.2c-34.1 1.5-71.2 16.4-111.5 42.2l-24.6-58.3zm222.1 152c-23.9 15.1-62.7 25.2-130.1 24.9l10.7 33.7c0 1.9-.9 2.8-2.6 3.2l-91.7-52c-3.8-1.9-3.8-4.5-.6-7.5l74.6-65.9c4.1 0 7 1.5 8.1 5.3l-4.5 42.2c34.1-1.5 71.2-16.4 111.5-42.2l24.6 58.3z" fill-rule="evenodd" clip-rule="evenodd" fill="#0b1743"/></svg>