<svg width="39" height="23" fill="none" xmlns="http://www.w3.org/2000/svg"><path d="M8.985 11.663c-.012.011-.034.038-.046.049.095.242-.026.496-.041.742-.015.444-.148.875-.133 1.323a1.778 1.778 0 01-.072.424c.023.007.065.019.083.026-.174.103-.314.254-.503.33-.129.045-.288-.038-.284-.186-.023-.625.076-1.246.09-1.871.023-.318.027-.682.262-.928.125-.118.292-.239.473-.212.137.034.13.197.17.303zm-.224-1.225c-.117-.015-.25-.079-.25-.22.004-.283.239-.5.478-.613.08-.038.166-.023.253-.015.034.114.11.235.06.356-.09.239-.329.371-.54.492z" fill="#FF0606"/><path d="M7.447 11.84c-.072.152-.015.33-.09.478a2.518 2.518 0 00-.077.447c-.045.182-.08.367-.106.553.103.148.008.314-.053.458-.026.14-.068.292-.007.428a.876.876 0 00-.121.375c-.095.731-.17 1.463-.296 2.19-.03.148-.064.33-.212.405-.159.099-.405.05-.47-.144-.162-.598-.208-1.223-.355-1.826-.016-.272-.08-.538-.11-.81-.087-.546-.152-1.095-.254-1.637-.034-.284-.064-.568-.132-.845-.046-.117-.057-.246-.069-.37-.038-.035-.072-.07-.11-.107-.132.22-.238.45-.302.697-.069.28-.213.534-.307.807-.114.121-.296.19-.455.117-.117-.06-.208-.2-.159-.337.212-.69.489-1.356.686-2.05.113-.329.216-.662.333-.988a.413.413 0 01.447-.28c.185.007.31.185.345.356.075.356.113.72.185 1.076.095.378.083.776.205 1.148.037.11.068.223.09.337.012.2.061.394.114.587a.655.655 0 00.038.424c.019.246.015.504.121.735.076-.208.072-.435.114-.651.132-.841.265-1.686.454-2.516C7.11 10 7.36 9.11 7.6 8.215c.325-.928.662-1.853 1.01-2.777.16-.39.27-.84.622-1.11.314-.269.875-.06.935.349.076.269-.087.511-.235.716-.367.299-.624.712-.81 1.148-.11.26-.239.51-.31.787-.163.353-.288.716-.41 1.084-.08.322-.162.644-.28.955-.064.163-.05.34-.09.507-.342.614-.455 1.3-.584 1.966zm2.371-.985c.125-.117.296-.159.458-.181.201-.027.372-.148.56-.213.277-.117.444.322.274.504-.19.205-.47.326-.599.591-.216.52-.136 1.091-.197 1.637-.023.314-.337.545-.636.553-.193-.06-.19-.303-.178-.47.03-.299.008-.598.038-.894.064-.337.06-.678.08-1.019.018-.185.052-.386.2-.508zm4.51.542c-.087-.121-.037-.276-.034-.413.072-.655.114-1.318.212-1.97.05-.28.337-.583.64-.45.121.322-.045.647-.015.977.012.265 0 .53-.03.792-.053.216-.027.443-.034.663-.038.193-.216.322-.383.401-.11.06-.257.099-.356 0zm.417-3.769c-.023-.36.394-.644.727-.538l.08.197c-.095.216-.243.428-.462.526-.137.03-.334-.018-.345-.185z" fill="#FF0606"/><path d="M19.96 9.745c-.088.137-.16.292-.296.39-.227.178-.515.232-.784.319-.47.155-.916.363-1.348.598a36.084 36.084 0 00-3.567 2.084c-.13.087-.246.193-.371.288-.023.454-.038.913-.042 1.367-.015.33.019.667-.034.997a.816.816 0 01-.008.405c.02.042.034.083.053.129-.015.019-.038.057-.053.076a.788.788 0 01.012.162c.011.243.128.478.075.72.016.015.042.05.057.065.02.064.042.132.065.197-.035.068-.065.136-.095.204.026.02.083.05.11.065.011.034.026.064.038.098l-.065.114c.03.041.06.087.091.132a.96.96 0 00-.038.209c-.072.136-.182.261-.337.299-.193.034-.432-.026-.526-.212-.16-.352-.084-.747-.084-1.122.05-1.132.038-2.269.057-3.401-.246.128-.454.314-.674.484-.67.512-1.306 1.057-1.961 1.588-.167.125-.288.291-.444.428-.287.227-.51.519-.768.776-.303.292-.565.618-.879.898-.2.25-.69.14-.742-.185a.344.344 0 01.057-.319c.26-.356.606-.636.924-.943.363-.352.76-.67 1.147-.996.45-.387.913-.754 1.371-1.125l1.034-.75c.307-.232.606-.47.924-.682.008-.148.004-.3 0-.447-.28.216-.629.337-.981.314-.193-.026-.386-.159-.435-.356-.084-.288-.023-.595-.05-.89.038-.44.053-.894.239-1.3.159-.318.379-.632.716-.772.117-.042.26-.095.378-.012.08.174-.019.383-.144.512-.166.17-.253.394-.333.613-.05.148-.095.3-.057.455-.03.242-.075.485-.045.727.019.103.064.224.182.247.25.007.48-.201.518-.447.13-.736.152-1.482.228-2.224.034-.319.556-.47.716-.17.041.439-.053.878-.072 1.318-.027.424-.091.844-.084 1.269-.004.223-.026.443-.022.666.632-.397 1.25-.814 1.912-1.159.685-.413 1.401-.784 2.09-1.197-.087-.072-.193-.148-.208-.269-.03-.212.004-.428.008-.644-.008-.375.068-.754.03-1.129-.023-.113-.148-.117-.239-.11-.223.068-.337.292-.488.447-.042.144-.068.288-.11.432-.038.072-.019.144 0 .216l-.08.102.069.16c-.02.015-.053.045-.072.06a1.906 1.906 0 000 .36c.004.06.007.117.015.178-.008.08-.011.16-.011.239-.065.117-.091.269-.224.333-.136.08-.3.174-.458.114-.136-.053-.125-.227-.121-.349.037-.625.053-1.25.09-1.875.012-.223.125-.455.334-.56.2-.1.435-.092.651-.061.235-.06.341-.31.534-.44.186-.129.44-.235.66-.129.116.05.147.179.185.288.007.061.019.122.026.178a.398.398 0 00-.007.273c0 .072.003.14.003.212l-.026.016c-.046.375.023.75-.004 1.125.023.144.057.333.212.39.318-.076.583-.277.879-.41.17-.079.363-.056.541-.018a.514.514 0 01.155.367z" fill="#FF0606"/><path d="M30.26 11.45c.004-.216.011-.454-.136-.629-.254-.303-.792-.272-1.011.057-.212-.348-.758-.345-.992-.03-.004-.08-.012-.2-.125-.186-.106.012-.307-.057-.319.103-.003.503-.007 1.003.004 1.507.008.106.144.08.216.084.076-.008.216.026.231-.084.027-.34-.019-.685.023-1.026.06-.266.5-.3.58-.03.052.36-.012.73.03 1.094.068.053.159.034.238.042.068-.008.167.015.197-.065.026-.325-.008-.651.011-.977.004-.186.201-.322.379-.277a.262.262 0 01.216.232c.023.333-.011.666.015 1 .011.11.148.08.224.087.071-.008.204.019.212-.087.015-.27 0-.542.007-.815zm1.602-.678c-.314-.227-.791-.216-1.075.05-.425.374-.38 1.162.117 1.454.405.258 1.072.125 1.223-.371-.08-.106-.23-.102-.348-.14-.091.12-.205.246-.368.242-.234.027-.439-.155-.473-.383.356-.003.712 0 1.064 0 .064-.003.163.012.163-.083.015-.28-.072-.595-.303-.769zm-.916.546c.041-.213.246-.375.465-.326.175.015.284.167.315.33-.262-.004-.52-.004-.78-.004zm3.17-1.398c-.107-.099-.304-.065-.436-.023-.02.303-.012.606-.004.91-.292-.293-.81-.228-1.072.071-.284.322-.299.849-.049 1.194.239.344.826.454 1.113.113.016.053 0 .129.057.16.133.018.27.007.402-.012-.02-.803.019-1.61-.012-2.413zm-.887 2.064c-.454-.026-.519-.765-.117-.92a.42.42 0 01.405.053c.314.246.159.917-.288.867zm1.735-1.261c-.095-.114-.28-.05-.41-.05-.007.016-.026.042-.034.057-.015.466 0 .936-.007 1.406.008.068-.023.167.053.208a1 1 0 00.345 0c.09-.026.053-.14.064-.208-.008-.47.008-.943-.011-1.413zm-.36-.864c-.174.087-.2.36-.034.474.163.136.447.011.454-.201.027-.216-.235-.386-.42-.273zm2.378.852c-.121-.094-.291-.03-.435-.034 0 .034-.004.103-.008.137-.25-.262-.697-.239-.966-.023-.378.3-.424.91-.147 1.292.246.352.829.447 1.128.106 0 .038-.004.114-.007.152.144.019.295.034.439.003.004-.549.015-1.095-.004-1.633zm-.882 1.273c-.477-.018-.53-.822-.08-.935a.413.413 0 01.367.072c.303.25.156.905-.287.863zm.882-1.273c-.121-.094-.291-.03-.435-.034 0 .034-.004.103-.008.137-.25-.262-.697-.239-.966-.023-.378.3-.424.91-.147 1.292.246.352.829.447 1.128.106 0 .038-.004.114-.007.152.144.019.295.034.439.003.004-.549.015-1.095-.004-1.633zm-.882 1.273c-.477-.018-.53-.822-.08-.935a.413.413 0 01.367.072c.303.25.156.905-.287.863zM34.604 9.86c-.174.087-.2.36-.034.474.163.136.447.011.454-.201.027-.216-.235-.386-.42-.273zm.36.864c-.095-.114-.28-.05-.41-.05-.007.016-.026.042-.034.057-.015.466 0 .936-.007 1.406.008.068-.023.167.053.208a1 1 0 00.345 0c.09-.026.053-.14.064-.208-.008-.47.008-.943-.011-1.413zm-.849-.803c-.106-.099-.303-.065-.435-.023-.02.303-.012.606-.004.91-.292-.293-.81-.228-1.072.071-.284.322-.299.849-.049 1.194.239.344.826.454 1.113.113.016.053 0 .129.057.16.133.018.27.007.402-.012-.02-.803.019-1.61-.012-2.413zm-.886 2.064c-.454-.026-.519-.765-.117-.92a.42.42 0 01.405.053c.314.246.159.917-.288.867zm-1.367-1.212c-.314-.227-.791-.216-1.075.05-.425.374-.38 1.162.117 1.454.405.258 1.072.125 1.223-.371-.08-.106-.23-.102-.348-.14-.091.12-.205.246-.368.242-.234.027-.439-.155-.473-.383.356-.003.712 0 1.064 0 .064-.003.163.012.163-.083.015-.28-.072-.595-.303-.769zm-.916.546c.041-.213.246-.375.465-.326.175.015.284.167.315.33-.262-.004-.52-.004-.78-.004zm-.686.132c.004-.216.011-.454-.136-.629-.254-.303-.792-.272-1.011.057-.212-.348-.758-.345-.992-.03-.004-.08-.012-.2-.125-.186-.106.012-.307-.057-.319.103-.003.503-.007 1.003.004 1.507.008.106.144.08.216.084.076-.008.216.026.231-.084.027-.34-.019-.685.023-1.026.06-.266.5-.3.58-.03.052.36-.012.73.03 1.094.068.053.159.034.238.042.068-.008.167.015.197-.065.026-.325-.008-.651.011-.977.004-.186.201-.322.379-.277a.262.262 0 01.216.232c.023.333-.011.666.015 1 .011.11.148.08.224.087.071-.008.204.019.212-.087.015-.27 0-.542.007-.815zm0 0c.004-.216.011-.454-.136-.629-.254-.303-.792-.272-1.011.057-.212-.348-.758-.345-.992-.03-.004-.08-.012-.2-.125-.186-.106.012-.307-.057-.319.103-.003.503-.007 1.003.004 1.507.008.106.144.08.216.084.076-.008.216.026.231-.084.027-.34-.019-.685.023-1.026.06-.266.5-.3.58-.03.052.36-.012.73.03 1.094.068.053.159.034.238.042.068-.008.167.015.197-.065.026-.325-.008-.651.011-.977.004-.186.201-.322.379-.277a.262.262 0 01.216.232c.023.333-.011.666.015 1 .011.11.148.08.224.087.071-.008.204.019.212-.087.015-.27 0-.542.007-.815zm1.602-.678c-.314-.227-.791-.216-1.075.05-.425.374-.38 1.162.117 1.454.405.258 1.072.125 1.223-.371-.08-.106-.23-.102-.348-.14-.091.12-.205.246-.368.242-.234.027-.439-.155-.473-.383.356-.003.712 0 1.064 0 .064-.003.163.012.163-.083.015-.28-.072-.595-.303-.769zm-.916.546c.041-.213.246-.375.465-.326.175.015.284.167.315.33-.262-.004-.52-.004-.78-.004zm3.17-1.398c-.107-.099-.304-.065-.436-.023-.02.303-.012.606-.004.91-.292-.293-.81-.228-1.072.071-.284.322-.299.849-.049 1.194.239.344.826.454 1.113.113.016.053 0 .129.057.16.133.018.27.007.402-.012-.02-.803.019-1.61-.012-2.413zm-.887 2.064c-.454-.026-.519-.765-.117-.92a.42.42 0 01.405.053c.314.246.159.917-.288.867zm1.735-1.261c-.095-.114-.28-.05-.41-.05-.007.016-.026.042-.034.057-.015.466 0 .936-.007 1.406.008.068-.023.167.053.208a1 1 0 00.345 0c.09-.026.053-.14.064-.208-.008-.47.008-.943-.011-1.413zm-.36-.864c-.174.087-.2.36-.034.474.163.136.447.011.454-.201.027-.216-.235-.386-.42-.273zm2.378.852c-.121-.094-.291-.03-.435-.034 0 .034-.004.103-.008.137-.25-.262-.697-.239-.966-.023-.378.3-.424.91-.147 1.292.246.352.829.447 1.128.106 0 .038-.004.114-.007.152.144.019.295.034.439.003.004-.549.015-1.095-.004-1.633zm-.882 1.273c-.477-.018-.53-.822-.08-.935a.413.413 0 01.367.072c.303.25.156.905-.287.863zm.882-1.273c-.121-.094-.291-.03-.435-.034 0 .034-.004.103-.008.137-.25-.262-.697-.239-.966-.023-.378.3-.424.91-.147 1.292.246.352.829.447 1.128.106 0 .038-.004.114-.007.152.144.019.295.034.439.003.004-.549.015-1.095-.004-1.633zm-.882 1.273c-.477-.018-.53-.822-.08-.935a.413.413 0 01.367.072c.303.25.156.905-.287.863zM34.604 9.86c-.174.087-.2.36-.034.474.163.136.447.011.454-.201.027-.216-.235-.386-.42-.273zm.36.864c-.095-.114-.28-.05-.41-.05-.007.016-.026.042-.034.057-.015.466 0 .936-.007 1.406.008.068-.023.167.053.208a1 1 0 00.345 0c.09-.026.053-.14.064-.208-.008-.47.008-.943-.011-1.413zm-.849-.803c-.106-.099-.303-.065-.435-.023-.02.303-.012.606-.004.91-.292-.293-.81-.228-1.072.071-.284.322-.299.849-.049 1.194.239.344.826.454 1.113.113.016.053 0 .129.057.16.133.018.27.007.402-.012-.02-.803.019-1.61-.012-2.413zm-.886 2.064c-.454-.026-.519-.765-.117-.92a.42.42 0 01.405.053c.314.246.159.917-.288.867zm-1.367-1.212c-.314-.227-.791-.216-1.075.05-.425.374-.38 1.162.117 1.454.405.258 1.072.125 1.223-.371-.08-.106-.23-.102-.348-.14-.091.12-.205.246-.368.242-.234.027-.439-.155-.473-.383.356-.003.712 0 1.064 0 .064-.003.163.012.163-.083.015-.28-.072-.595-.303-.769zm-.916.546c.041-.213.246-.375.465-.326.175.015.284.167.315.33-.262-.004-.52-.004-.78-.004zm-.822-.497c-.254-.303-.792-.272-1.011.057-.212-.348-.758-.345-.992-.03-.004-.08-.012-.2-.125-.186-.106.012-.307-.057-.319.103-.003.503-.007 1.003.004 1.507.008.106.144.08.216.084.076-.008.216.026.231-.084.027-.34-.019-.685.023-1.026.06-.266.5-.3.58-.03.052.36-.012.73.03 1.094.068.053.159.034.238.042.068-.008.167.015.197-.065.026-.325-.008-.651.011-.977.004-.186.201-.322.379-.277a.262.262 0 01.216.232c.023.333-.011.666.015 1 .011.11.148.08.224.087.071-.008.204.019.212-.087.015-.273 0-.546.003-.819.008-.212.012-.45-.132-.625zm8.585-.69c-.114-.874-.337-1.738-.716-2.533A5.35 5.35 0 0036.79 5.93a4.348 4.348 0 00-2.003-1.035c-.754-.166-1.542-.136-2.291.03-.943.213-1.83.618-2.655 1.118a13.905 13.905 0 00-3.409 2.978 114.94 114.94 0 00-1.503 1.924c-1.443-2.015-3.018-3.943-4.806-5.663-1.628-1.56-3.438-2.959-5.472-3.948C13.022.547 11.227.04 9.41.09 7.91.12 6.4.556 5.172 1.431 3.733 2.469 2.688 3.984 2.014 5.613 1.214 7.557.9 9.675.927 11.769c.026 1.868.337 3.75 1.03 5.49.61 1.534 1.541 2.962 2.821 4.02 1.208 1 2.757 1.526 4.31 1.62 1.636.1 3.272-.276 4.78-.897 1.658-.686 3.18-1.67 4.574-2.796 2.51-2.038 4.613-4.527 6.49-7.145.436.565.872 1.13 1.315 1.69a13.75 13.75 0 001.723 1.822c1.026.905 2.185 1.686 3.465 2.186.943.364 1.977.564 2.988.42A4.36 4.36 0 0036.872 17c.92-.886 1.44-2.11 1.704-3.341a10.71 10.71 0 00.133-3.527zm-20.813 8.665c-1.349 1.076-2.822 2.012-4.428 2.652-1.62.648-3.404.985-5.142.7a6.666 6.666 0 01-2.655-1.03c-1.102-.754-1.946-1.83-2.568-3-.727-1.375-1.162-2.898-1.367-4.436-.272-2.092-.162-4.243.39-6.281.485-1.766 1.326-3.482 2.655-4.77.97-.962 2.261-1.576 3.61-1.78 1.741-.277 3.529.075 5.146.734 2.094.857 3.957 2.198 5.623 3.717 2.023 1.845 3.76 3.981 5.352 6.205-1.91 2.675-4.045 5.224-6.616 7.289zm20.215-6.71c-.057.925-.228 1.85-.58 2.71-.284.693-.693 1.344-1.257 1.84a3.71 3.71 0 01-2.049.895c-.886.106-1.784-.095-2.61-.421-1.26-.508-2.389-1.3-3.388-2.209a13.243 13.243 0 01-1.55-1.678c-.45-.568-.89-1.144-1.336-1.72.534-.69 1.064-1.379 1.61-2.06a13.37 13.37 0 013.233-2.82c.841-.51 1.754-.927 2.727-1.101.81-.148 1.674-.088 2.431.25.614.269 1.14.716 1.534 1.253.492.663.803 1.444.996 2.243.22.925.292 1.875.239 2.819zm-1.564-1.412c0 .034-.004.102-.008.136-.25-.261-.697-.239-.966-.023-.378.3-.424.91-.147 1.292.246.352.829.447 1.128.106 0 .038-.004.114-.007.152.144.019.295.034.439.004.004-.542.015-1.088-.004-1.63-.121-.094-.295-.034-.435-.037zm-.447 1.31c-.477-.018-.53-.822-.08-.935a.413.413 0 01.367.072c.303.25.156.905-.287.863zM34.604 9.86c-.174.087-.2.36-.034.474.163.136.447.011.454-.201.027-.216-.235-.386-.42-.273zm.36.864c-.095-.114-.28-.05-.41-.05-.007.016-.026.042-.034.057-.015.466 0 .936-.007 1.406.008.068-.023.167.053.208a1 1 0 00.345 0c.09-.026.053-.14.064-.208-.008-.47.008-.943-.011-1.413zm-.849-.803c-.106-.099-.303-.065-.435-.023-.02.303-.012.606-.004.91-.292-.293-.81-.228-1.072.071-.284.322-.299.849-.049 1.194.239.344.826.454 1.113.113.016.053 0 .129.057.16.133.018.27.007.402-.012-.02-.803.019-1.61-.012-2.413zm-.886 2.064c-.454-.026-.519-.765-.117-.92a.42.42 0 01.405.053c.314.246.159.917-.288.867zm-1.367-1.212c-.314-.227-.791-.216-1.075.05-.425.374-.38 1.162.117 1.454.405.258 1.072.125 1.223-.371-.08-.106-.23-.102-.348-.14-.091.12-.205.246-.368.242-.234.027-.439-.155-.473-.383.356-.003.712 0 1.064 0 .064-.003.163.012.163-.083.015-.28-.072-.595-.303-.769zm-.916.546c.041-.213.246-.375.465-.326.175.015.284.167.315.33-.262-.004-.52-.004-.78-.004zm-.822-.497c-.254-.303-.792-.272-1.011.057-.212-.348-.758-.345-.992-.03-.004-.08-.012-.2-.125-.186-.106.012-.307-.057-.319.103-.003.503-.007 1.003.004 1.507.008.106.144.08.216.084.076-.008.216.026.231-.084.027-.34-.019-.685.023-1.026.06-.266.5-.3.58-.03.052.36-.012.73.03 1.094.068.053.159.034.238.042.068-.008.167.015.197-.065.026-.325-.008-.651.011-.977.004-.186.201-.322.379-.277a.262.262 0 01.216.232c.023.333-.011.666.015 1 .011.11.148.08.224.087.071-.008.204.019.212-.087.015-.273 0-.546.003-.819.008-.212.012-.45-.132-.625zm.136.63c.004-.217.011-.455-.136-.63-.254-.303-.792-.272-1.011.057-.212-.348-.758-.345-.992-.03-.004-.08-.012-.2-.125-.186-.106.012-.307-.057-.319.103-.003.503-.007 1.003.004 1.507.008.106.144.08.216.084.076-.008.216.026.231-.084.027-.34-.019-.685.023-1.026.06-.266.5-.3.58-.03.052.36-.012.73.03 1.094.068.053.159.034.238.042.068-.008.167.015.197-.065.026-.325-.008-.651.011-.977.004-.186.201-.322.379-.277a.262.262 0 01.216.232c.023.333-.011.666.015 1 .011.11.148.08.224.087.071-.008.204.019.212-.087.015-.27 0-.542.007-.815zm1.602-.679c-.314-.227-.791-.216-1.075.05-.425.374-.38 1.162.117 1.454.405.258 1.072.125 1.223-.371-.08-.106-.23-.102-.348-.14-.091.12-.205.246-.368.242-.234.027-.439-.155-.473-.383.356-.003.712 0 1.064 0 .064-.003.163.012.163-.083.015-.28-.072-.595-.303-.769zm-.916.546c.041-.213.246-.375.465-.326.175.015.284.167.315.33-.262-.004-.52-.004-.78-.004zm3.17-1.398c-.107-.099-.304-.065-.436-.023-.02.303-.012.606-.004.91-.292-.293-.81-.228-1.072.071-.284.322-.299.849-.049 1.194.239.344.826.454 1.113.113.016.053 0 .129.057.16.133.018.27.007.402-.012-.02-.803.019-1.61-.012-2.413zm-.887 2.064c-.454-.026-.519-.765-.117-.92a.42.42 0 01.405.053c.314.246.159.917-.288.867zm1.735-1.261c-.095-.114-.28-.05-.41-.05-.007.016-.026.042-.034.057-.015.466 0 .936-.007 1.406.008.068-.023.167.053.208a1 1 0 00.345 0c.09-.026.053-.14.064-.208-.008-.47.008-.943-.011-1.413zm-.36-.864c-.174.087-.2.36-.034.474.163.136.447.011.454-.201.027-.216-.235-.386-.42-.273zm2.378.852c-.121-.094-.291-.03-.435-.034 0 .034-.004.103-.008.137-.25-.262-.697-.239-.966-.023-.378.3-.424.91-.147 1.292.246.352.829.447 1.128.106 0 .038-.004.114-.007.152.144.019.295.034.439.003.004-.549.015-1.095-.004-1.633zm-.882 1.273c-.477-.018-.53-.822-.08-.935a.413.413 0 01.367.072c.303.25.156.905-.287.863zm.882-1.273c-.121-.094-.291-.03-.435-.034 0 .034-.004.103-.008.137-.25-.262-.697-.239-.966-.023-.378.3-.424.91-.147 1.292.246.352.829.447 1.128.106 0 .038-.004.114-.007.152.144.019.295.034.439.003.004-.549.015-1.095-.004-1.633zm-.882 1.273c-.477-.018-.53-.822-.08-.935a.413.413 0 01.367.072c.303.25.156.905-.287.863zM34.604 9.86c-.174.087-.2.36-.034.474.163.136.447.011.454-.201.027-.216-.235-.386-.42-.273zm.36.864c-.095-.114-.28-.05-.41-.05-.007.016-.026.042-.034.057-.015.466 0 .936-.007 1.406.008.068-.023.167.053.208a1 1 0 00.345 0c.09-.026.053-.14.064-.208-.008-.47.008-.943-.011-1.413zm-.849-.803c-.106-.099-.303-.065-.435-.023-.02.303-.012.606-.004.91-.292-.293-.81-.228-1.072.071-.284.322-.299.849-.049 1.194.239.344.826.454 1.113.113.016.053 0 .129.057.16.133.018.27.007.402-.012-.02-.803.019-1.61-.012-2.413zm-.886 2.064c-.454-.026-.519-.765-.117-.92a.42.42 0 01.405.053c.314.246.159.917-.288.867zm-1.367-1.212c-.314-.227-.791-.216-1.075.05-.425.374-.38 1.162.117 1.454.405.258 1.072.125 1.223-.371-.08-.106-.23-.102-.348-.14-.091.12-.205.246-.368.242-.234.027-.439-.155-.473-.383.356-.003.712 0 1.064 0 .064-.003.163.012.163-.083.015-.28-.072-.595-.303-.769zm-.916.546c.041-.213.246-.375.465-.326.175.015.284.167.315.33-.262-.004-.52-.004-.78-.004zm-.686.132c.004-.216.011-.454-.136-.629-.254-.303-.792-.272-1.011.057-.212-.348-.758-.345-.992-.03-.004-.08-.012-.2-.125-.186-.106.012-.307-.057-.319.103-.003.503-.007 1.003.004 1.507.008.106.144.08.216.084.076-.008.216.026.231-.084.027-.34-.019-.685.023-1.026.06-.266.5-.3.58-.03.052.36-.012.73.03 1.094.068.053.159.034.238.042.068-.008.167.015.197-.065.026-.325-.008-.651.011-.977.004-.186.201-.322.379-.277a.262.262 0 01.216.232c.023.333-.011.666.015 1 .011.11.148.08.224.087.071-.008.204.019.212-.087.015-.27 0-.542.007-.815z" fill="#FF0606"/><path d="M8.985 11.663c-.012.011-.034.038-.046.049.095.242-.026.496-.041.742-.015.444-.148.875-.133 1.323a1.778 1.778 0 01-.072.424c.023.007.065.019.083.026-.174.103-.314.254-.503.33-.129.045-.288-.038-.284-.186-.023-.625.076-1.246.09-1.871.023-.318.027-.682.262-.928.125-.118.292-.239.473-.212.137.034.13.197.17.303zm-.224-1.225c-.117-.015-.25-.079-.25-.22.004-.283.239-.5.478-.613.08-.038.166-.023.253-.015.034.114.11.235.06.356-.09.239-.329.371-.54.492z" fill="#FFFEFE"/><path d="M7.447 11.84c-.072.152-.015.33-.09.478a2.518 2.518 0 00-.077.447c-.045.182-.08.367-.106.553.103.148.008.314-.053.458-.026.14-.068.292-.007.428a.876.876 0 00-.121.375c-.095.731-.17 1.463-.296 2.19-.03.148-.064.33-.212.405-.159.099-.405.05-.47-.144-.162-.598-.208-1.223-.355-1.826-.016-.272-.08-.538-.11-.81-.087-.546-.152-1.095-.254-1.637-.034-.284-.064-.568-.132-.845-.046-.117-.057-.246-.069-.37-.038-.035-.072-.07-.11-.107-.132.22-.238.45-.302.697-.069.28-.213.534-.307.807-.114.121-.296.19-.455.117-.117-.06-.208-.2-.159-.337.212-.69.489-1.356.686-2.05.113-.329.216-.662.333-.988a.413.413 0 01.447-.28c.185.007.31.185.345.356.075.356.113.72.185 1.076.095.378.083.776.205 1.148.037.11.068.223.09.337.012.2.061.394.114.587a.655.655 0 00.038.424c.019.246.015.504.121.735.076-.208.072-.435.114-.651.132-.841.265-1.686.454-2.516C7.11 10 7.36 9.11 7.6 8.215c.325-.928.662-1.853 1.01-2.777.16-.39.27-.84.622-1.11.314-.269.875-.06.935.349.076.269-.087.511-.235.716-.367.299-.624.712-.81 1.148-.11.26-.239.51-.31.787-.163.353-.288.716-.41 1.084-.08.322-.162.644-.28.955-.064.163-.05.34-.09.507-.342.614-.455 1.3-.584 1.966zm2.371-.985c.125-.117.296-.159.458-.181.201-.027.372-.148.56-.213.277-.117.444.322.274.504-.19.205-.47.326-.599.591-.216.52-.136 1.091-.197 1.637-.023.314-.337.545-.636.553-.193-.06-.19-.303-.178-.47.03-.299.008-.598.038-.894.064-.337.06-.678.08-1.019.018-.185.052-.386.2-.508zm4.51.542c-.087-.121-.037-.276-.034-.413.072-.655.114-1.318.212-1.97.05-.28.337-.583.64-.45.121.322-.045.647-.015.977.012.265 0 .53-.03.792-.053.216-.027.443-.034.663-.038.193-.216.322-.383.401-.11.06-.257.099-.356 0zm.417-3.769c-.023-.36.394-.644.727-.538l.08.197c-.095.216-.243.428-.462.526-.137.03-.334-.018-.345-.185z" fill="#FFFEFE"/><path d="M19.96 9.745c-.088.137-.16.292-.296.39-.227.178-.515.232-.784.319-.47.155-.916.363-1.348.598a36.084 36.084 0 00-3.567 2.084c-.13.087-.246.193-.371.288-.023.454-.038.913-.042 1.367-.015.33.019.667-.034.997a.816.816 0 01-.008.405c.02.042.034.083.053.129-.015.019-.038.057-.053.076a.788.788 0 01.012.162c.011.243.128.478.075.72.016.015.042.05.057.065.02.064.042.132.065.197-.035.068-.065.136-.095.204.026.02.083.05.11.065.011.034.026.064.038.098l-.065.114c.03.041.06.087.091.132a.96.96 0 00-.038.209c-.072.136-.182.261-.337.299-.193.034-.432-.026-.526-.212-.16-.352-.084-.747-.084-1.122.05-1.132.038-2.269.057-3.401-.246.128-.454.314-.674.484-.67.512-1.306 1.057-1.961 1.588-.167.125-.288.291-.444.428-.287.227-.51.519-.768.776-.303.292-.565.618-.879.898-.2.25-.69.14-.742-.185a.344.344 0 01.057-.319c.26-.356.606-.636.924-.943.363-.352.76-.67 1.147-.996.45-.387.913-.754 1.371-1.125l1.034-.75c.307-.232.606-.47.924-.682.008-.148.004-.3 0-.447-.28.216-.629.337-.981.314-.193-.026-.386-.159-.435-.356-.084-.288-.023-.595-.05-.89.038-.44.053-.894.239-1.3.159-.318.379-.632.716-.772.117-.042.26-.095.378-.012.08.174-.019.383-.144.512-.166.17-.253.394-.333.613-.05.148-.095.3-.057.455-.03.242-.075.485-.045.727.019.103.064.224.182.247.25.007.48-.201.518-.447.13-.736.152-1.482.228-2.224.034-.319.556-.47.716-.17.041.439-.053.878-.072 1.318-.027.424-.091.844-.084 1.269-.004.223-.026.443-.022.666.632-.397 1.25-.814 1.912-1.159.685-.413 1.401-.784 2.09-1.197-.087-.072-.193-.148-.208-.269-.03-.212.004-.428.008-.644-.008-.375.068-.754.03-1.129-.023-.113-.148-.117-.239-.11-.223.068-.337.292-.488.447-.042.144-.068.288-.11.432-.038.072-.019.144 0 .216l-.08.102.069.16c-.02.015-.053.045-.072.06a1.906 1.906 0 000 .36c.004.06.007.117.015.178-.008.08-.011.16-.011.239-.065.117-.091.269-.224.333-.136.08-.3.174-.458.114-.136-.053-.125-.227-.121-.349.037-.625.053-1.25.09-1.875.012-.223.125-.455.334-.56.2-.1.435-.092.651-.061.235-.06.341-.31.534-.44.186-.129.44-.235.66-.129.116.05.147.179.185.288.007.061.019.122.026.178a.398.398 0 00-.007.273c0 .072.003.14.003.212l-.026.016c-.046.375.023.75-.004 1.125.023.144.057.333.212.39.318-.076.583-.277.879-.41.17-.079.363-.056.541-.018a.514.514 0 01.155.367z" fill="#FFFEFE"/><path d="M9.92 5.4c-.367.3-.625.712-.81 1.148-.11.261-.239.512-.311.788A9.964 9.964 0 008.39 8.42c-.08.322-.163.644-.28.954-.065.163-.05.341-.091.508-.33.602-.443 1.292-.572 1.958-.072.152-.015.33-.09.478a2.518 2.518 0 00-.077.447c-.045.182-.08.367-.106.553.103.148.008.314-.053.458-.026.14-.068.292-.007.428a.876.876 0 00-.121.375c-.095.731-.17 1.463-.296 2.19-.03.148-.064.33-.212.405-.159.099-.405.05-.47-.144-.162-.598-.208-1.223-.355-1.826-.016-.272-.08-.538-.11-.81-.087-.546-.152-1.095-.254-1.637-.034-.284-.064-.568-.132-.845-.046-.117-.057-.246-.069-.37-.038-.035-.072-.07-.11-.107-.132.22-.238.45-.302.697-.069.28-.213.534-.307.807-.114.121-.296.19-.455.117-.117-.06-.208-.2-.159-.337.212-.69.489-1.356.686-2.05.113-.329.216-.662.333-.988a.413.413 0 01.447-.28c.185.007.31.185.345.356.075.356.113.72.185 1.076.095.378.083.776.205 1.148.037.11.068.223.09.337.012.2.061.394.114.587a.655.655 0 00.038.424c.019.246.015.504.121.735.076-.208.072-.435.114-.651.132-.841.265-1.686.454-2.516C7.11 10 7.36 9.11 7.6 8.215c.325-.928.662-1.853 1.01-2.777.16-.39.27-.84.622-1.11.314-.269.875-.06.935.349.068.272-.098.519-.246.723z" fill="#FF0606"/><path d="M30.26 11.45c-.004.273.008.546-.004.819-.007.102-.14.08-.212.087-.076-.008-.212.023-.223-.087-.027-.334.007-.667-.015-1a.258.258 0 00-.216-.232c-.178-.045-.375.091-.379.277-.019.326.012.652-.011.977-.03.08-.133.057-.197.065-.08-.004-.17.011-.239-.042-.045-.364.023-.735-.03-1.095-.08-.272-.519-.238-.58.03-.037.341.004.686-.022 1.027-.015.106-.155.072-.231.084-.072-.008-.209.019-.216-.084-.011-.5-.004-1.004-.004-1.508.011-.155.212-.09.318-.102.114-.015.122.106.125.186.239-.319.78-.319.992.03.22-.33.758-.36 1.012-.057.14.17.136.41.132.625zm1.602-.677c-.314-.228-.791-.216-1.075.049-.424.375-.379 1.163.117 1.455.405.257 1.072.125 1.223-.372-.08-.106-.23-.102-.348-.14-.091.121-.205.246-.367.242-.235.027-.44-.155-.474-.382.356-.004.712 0 1.064 0 .065-.004.163.011.163-.084.015-.28-.072-.594-.303-.768zm-.916.545c.041-.212.246-.375.465-.326.175.015.285.167.315.33-.261-.004-.519-.004-.78-.004zm3.169-1.398c-.106-.099-.303-.065-.435-.023-.02.303-.011.606-.004.91-.292-.293-.81-.228-1.072.071-.284.322-.299.849-.049 1.194.239.344.826.454 1.114.113.015.053 0 .129.056.16.133.018.27.007.402-.012-.02-.803.019-1.61-.012-2.413zm-.886 2.064c-.454-.026-.519-.765-.117-.92a.42.42 0 01.405.053c.314.246.159.917-.288.867zm1.746.152c-.011.068.026.182-.064.208a1.164 1.164 0 01-.345 0c-.076-.041-.046-.14-.053-.208.008-.47-.008-.936.008-1.405a.728.728 0 01.034-.057c.132 0 .314-.065.409.049.019.47.003.943.011 1.413zm.049-2.004c-.008.216-.288.34-.454.2-.167-.113-.14-.386.034-.473.185-.114.447.057.42.273zm1.958.58c-.121-.095-.292-.03-.436-.034 0 .034-.004.102-.007.136-.25-.261-.697-.239-.966-.023-.379.3-.424.91-.148 1.292.247.352.83.447 1.129.106 0 .038-.004.114-.008.152a1.3 1.3 0 00.44.003c.003-.549.015-1.094-.004-1.632zm-.883 1.273c-.477-.02-.53-.822-.08-.936a.413.413 0 01.368.072c.303.25.155.905-.288.864z" fill="#FFFEFE"/><path d="M15.555 7.287c-.095.216-.242.428-.462.526-.136.035-.337-.015-.344-.185-.023-.36.393-.644.727-.538l.08.197zm4.405 2.458c-.088.137-.16.292-.296.39-.227.178-.515.232-.784.319-.47.155-.916.363-1.348.598a36.084 36.084 0 00-3.567 2.084c-.13.087-.246.193-.371.288-.023.454-.038.913-.042 1.367-.015.33.019.667-.034.997a.816.816 0 01-.008.405c.02.042.034.083.053.129-.015.019-.038.057-.053.076a.788.788 0 01.012.162c.011.243.128.478.075.72.016.015.042.05.057.065.02.064.042.132.065.197-.035.068-.065.136-.095.204.026.02.083.05.11.065.011.034.026.064.038.098l-.065.114c.03.041.06.087.091.132a.96.96 0 00-.038.209c-.072.136-.182.261-.337.299-.193.034-.432-.026-.526-.212-.16-.352-.084-.747-.084-1.122.05-1.132.038-2.269.057-3.401-.246.128-.454.314-.674.484-.67.512-1.306 1.057-1.961 1.588-.167.125-.288.291-.444.428-.287.227-.51.519-.768.776-.303.292-.565.618-.879.898-.2.25-.69.14-.742-.185a.344.344 0 01.057-.319c.26-.356.606-.636.924-.943.363-.352.76-.67 1.147-.996.45-.387.913-.754 1.371-1.125l1.034-.75c.307-.232.606-.47.924-.682.008-.148.004-.3 0-.447-.28.216-.629.337-.981.314-.193-.026-.386-.159-.435-.356-.084-.288-.023-.595-.05-.89.038-.44.053-.894.239-1.3.159-.318.379-.632.716-.772.117-.042.26-.095.378-.012.08.174-.019.383-.144.512-.166.17-.253.394-.333.613-.05.148-.095.3-.057.455-.03.242-.075.485-.045.727.019.103.064.224.182.247.25.007.48-.201.518-.447.13-.736.152-1.482.228-2.224.034-.319.556-.47.716-.17.041.439-.053.878-.072 1.318-.027.424-.091.844-.084 1.269-.004.223-.026.443-.022.666.632-.397 1.25-.814 1.912-1.159.685-.413 1.401-.784 2.09-1.197-.087-.072-.193-.148-.208-.269-.03-.212.004-.428.008-.644-.008-.375.068-.754.03-1.129-.023-.113-.148-.117-.239-.11-.223.068-.337.292-.488.447-.042.144-.068.288-.11.432-.038.072-.019.144 0 .216l-.08.102.069.16c-.02.015-.053.045-.072.06a1.906 1.906 0 000 .36c.004.06.007.117.015.178-.008.08-.011.16-.011.239-.065.117-.091.269-.224.333-.136.08-.3.174-.458.114-.136-.053-.125-.227-.121-.349.037-.625.053-1.25.09-1.875.012-.223.125-.455.334-.56.2-.1.435-.092.651-.061.235-.06.341-.31.534-.44.186-.129.44-.235.66-.129.116.05.147.179.185.288.007.061.019.122.026.178a.398.398 0 00-.007.273c0 .072.003.14.003.212l-.026.016c-.046.375.023.75-.004 1.125.023.144.057.333.212.39.318-.076.583-.277.879-.41.17-.079.363-.056.541-.018a.514.514 0 01.155.367z" fill="#FF0606"/><path d="M15.127 9.537c.012.265 0 .53-.03.791-.053.216-.026.444-.034.664-.038.193-.216.321-.383.401-.105.06-.253.099-.352 0-.087-.121-.037-.277-.034-.413.072-.655.114-1.318.212-1.97.05-.28.337-.583.64-.45.121.321-.049.651-.019.977zm-5.82.409c-.095.239-.334.371-.546.492-.117-.015-.25-.079-.25-.22.004-.283.239-.5.478-.613.08-.038.166-.023.253-.015.038.114.114.235.065.356zm24.808-.026c-.106-.099-.303-.065-.435-.023-.02.303-.011.606-.004.91-.292-.293-.81-.228-1.072.071-.284.322-.299.849-.049 1.194.239.344.826.454 1.114.113.015.053 0 .129.056.16.133.018.27.007.402-.012-.02-.803.019-1.61-.012-2.413zm-.886 2.064c-.454-.026-.519-.765-.117-.92a.42.42 0 01.405.053c.314.246.159.917-.288.867zm1.795-1.852c-.008.216-.288.34-.454.2-.167-.113-.14-.386.034-.473.185-.114.447.057.42.273zm-23.919.829c-.189.205-.47.326-.598.591-.216.52-.136 1.091-.197 1.637-.023.314-.337.546-.636.553-.193-.06-.19-.303-.178-.47.03-.299.007-.598.038-.894.064-.337.06-.678.08-1.019.018-.178.052-.379.2-.5.125-.117.295-.159.458-.182.2-.026.371-.147.56-.212.28-.121.444.315.273.496zm19.148 1.308c-.008.102-.14.08-.213.087-.075-.008-.212.023-.223-.087-.026-.334.008-.667-.015-1a.257.257 0 00-.216-.232c-.178-.045-.375.091-.379.277-.019.326.012.652-.011.977-.03.08-.133.057-.197.065-.08-.004-.17.011-.239-.042-.045-.364.023-.735-.03-1.095-.08-.272-.519-.238-.58.03-.037.341.005.686-.022 1.027-.015.106-.155.072-.231.084-.072-.008-.208.019-.216-.084-.011-.5-.004-1.004-.004-1.508.012-.155.212-.09.318-.102.114-.015.122.106.125.186.239-.319.78-.319.993.03.22-.33.757-.36 1.01-.057.148.175.14.413.137.63-.008.268.008.54-.008.814zm1.609-1.496c-.314-.228-.791-.216-1.075.049-.424.375-.379 1.163.117 1.455.405.257 1.072.125 1.223-.372-.08-.106-.23-.102-.348-.14-.091.121-.205.246-.367.242-.235.027-.44-.155-.474-.382.356-.004.712 0 1.064 0 .065-.004.163.011.163-.084.015-.28-.072-.594-.303-.768zm-.916.545c.041-.212.246-.375.465-.326.175.015.285.167.315.33-.261-.004-.519-.004-.78-.004zm6.036-.606c-.121-.095-.292-.03-.436-.034 0 .034-.004.102-.007.136-.25-.261-.697-.239-.966-.023-.379.3-.424.91-.148 1.292.247.352.83.447 1.129.106 0 .038-.004.114-.008.152a1.3 1.3 0 00.44.003c.003-.549.015-1.094-.004-1.632zm-.883 1.273c-.477-.02-.53-.822-.08-.936a.413.413 0 01.368.072c.303.25.155.905-.288.864zm-1.124.151c-.011.068.026.182-.064.208a1.164 1.164 0 01-.345 0c-.076-.041-.046-.14-.053-.208.008-.47-.008-.936.008-1.405a.728.728 0 01.034-.057c.132 0 .314-.065.409.049.019.47.003.943.011 1.413zM8.94 11.712c.094.242-.027.496-.042.742-.015.444-.148.875-.133 1.323a1.778 1.778 0 01-.072.424c.023.007.065.019.083.026-.174.103-.314.254-.503.33-.129.045-.288-.038-.284-.186-.023-.625.076-1.246.09-1.871.023-.318.027-.682.262-.928.125-.118.292-.239.473-.212.137.034.13.197.167.306-.008.008-.03.035-.042.046z" fill="#FF0606"/></svg>