<svg width="34" height="25" fill="none" xmlns="http://www.w3.org/2000/svg"><path d="M18.055 4.31a1.783 1.783 0 01.02-.548c.185-1.26 1.15-2.319 2.38-2.639a.337.337 0 01.262.036c.802.405 1.52.931 2.144 1.586a7.694 7.694 0 012.038 3.982c.113.612.156 1.223.12 1.842-.12 1.899-.816 3.549-2.122 4.935a7.645 7.645 0 01-4.04 2.269 7.512 7.512 0 01-1.91.164c-1.903-.093-3.571-.768-4.977-2.07A7.645 7.645 0 019.613 9.63a7.737 7.737 0 01-.12-2.063c.134-1.756.787-3.307 1.966-4.622A7.574 7.574 0 0115.513.547a7.47 7.47 0 011.945-.192 7.796 7.796 0 012.89.64.212.212 0 01.078.057c-.114-.007-.22-.021-.334-.021a6.28 6.28 0 00-1.668.213c-1.221.313-2.329.868-3.273 1.714-1.143 1.024-1.86 2.29-2.137 3.805-.185 1.017-.1 2.02.305 2.972.504 1.188 1.349 2.034 2.556 2.504 1.74.675 4.025.1 5.119-1.913a4.165 4.165 0 00.483-2.51 3.796 3.796 0 00-.66-1.814c-.349-.491-.81-.854-1.335-1.138a6.06 6.06 0 00-1.25-.484l-.15-.042-.027-.029zm-6.007 14.287h1.065c.007.007.014.007.014.014l.007.007c0 .029.007.05.007.078v5.832c-.092.028-.788.042-1.008.014a6.314 6.314 0 00-.05-.292c-.028.015-.05.022-.064.036-.54.52-1.377.42-1.853.085a1.827 1.827 0 01-.624-.753c-.334-.733-.37-1.487-.079-2.24.249-.634.703-1.046 1.37-1.195.341-.079.69-.064 1.03.028.05.014.1.021.17.043 0-.057.008-.1.008-.15v-1.372c0-.043 0-.093.007-.135zm-.007 3.67v-.96c0-.122 0-.122-.114-.157-.107-.029-.22-.064-.334-.078-.348-.043-.66.035-.908.305a1.28 1.28 0 00-.263.47 1.918 1.918 0 00-.043.896c.036.206.1.405.228.583.362.498.95.462 1.334.114a.288.288 0 00.1-.235c-.008-.306 0-.619 0-.939zm21.945.404h-2.79c.007.064.007.12.021.17.071.47.37.769.838.833.51.07.987-.036 1.42-.32.014-.007.021-.014.05-.029.099.292.191.583.29.89-.092.056-.184.113-.276.156-.64.263-1.293.355-1.967.192-.674-.164-1.115-.605-1.328-1.252a2.81 2.81 0 01.057-1.984 1.875 1.875 0 011.782-1.188c.192.007.376.022.561.064.504.135.86.441 1.086.91.2.42.263.861.27 1.323-.014.071-.014.142-.014.235zm-1.122-.796c-.028-.328-.135-.598-.419-.762-.284-.163-.56-.128-.83.05-.256.164-.362.406-.39.712h1.64zm-16.627-.122c.064-.39-.149-.675-.532-.718a1.414 1.414 0 00-.802.15c-.135.07-.263.156-.412.234-.114-.249-.234-.497-.355-.76.05-.036.092-.072.135-.1.426-.27.887-.413 1.391-.427.2-.007.405.007.604.05.575.135.916.498 1.044 1.067.035.156.05.32.056.483.007.896 0 1.792 0 2.688 0 .029 0 .064-.007.093-.092.028-.745.035-.994.014-.014-.092-.035-.185-.05-.292-.028.022-.05.029-.07.043-.327.292-.725.384-1.15.349a1.378 1.378 0 01-.796-.32c-.348-.292-.497-.669-.468-1.124.02-.441.234-.761.603-.996a2.32 2.32 0 01.937-.334c.227-.036.455-.057.682-.085.05 0 .12-.007.184-.015zm.022.79c-.043 0-.071-.007-.093-.007-.248.035-.497.064-.738.114a.776.776 0 00-.32.149.532.532 0 00-.198.576c.05.2.199.299.39.327.341.064.64-.036.909-.249a.136.136 0 00.05-.1c.007-.263 0-.533 0-.81zM4.586 22.38c.015-.534.142-1.031.462-1.465.34-.463.802-.719 1.37-.768.242-.022.483-.022.724.035a1.864 1.864 0 011.328 1.081c.362.79.34 1.593-.064 2.361-.284.534-.731.875-1.328.982-.73.128-1.384-.029-1.895-.598-.298-.327-.462-.725-.533-1.159-.042-.15-.05-.306-.064-.47zm1.08-.008c.014.128.02.257.042.378.036.227.12.44.263.625.312.406.958.42 1.285.071a1.17 1.17 0 00.291-.526c.078-.284.092-.583.05-.875a1.364 1.364 0 00-.249-.633c-.234-.298-.54-.412-.909-.334-.305.071-.504.278-.624.555-.107.242-.142.49-.15.74zm19.928-2.119h.98c.021.1.043.2.064.32.05-.035.085-.056.12-.085.519-.341 1.073-.44 1.67-.27.34.1.588.32.752.633.12.227.184.476.206.732.014.157.021.313.021.477v2.46c-.1.036-.83.043-1.093.015 0-.05-.008-.1-.008-.15 0-.746.008-1.486 0-2.233 0-.178-.02-.362-.063-.533-.157-.555-.632-.647-1.016-.512a1.546 1.546 0 00-.51.334c-.05.043-.043.093-.043.142v2.952h-1.08c-.02-.086-.028-4.075 0-4.282zm-.703 2.127c-.02.512-.142.995-.433 1.422-.383.555-.915.832-1.583.846a2.061 2.061 0 01-1.008-.213 1.872 1.872 0 01-.873-.953c-.313-.711-.327-1.422-.022-2.14.263-.612.717-1.025 1.378-1.153.681-.135 1.313-.021 1.839.47.326.305.525.69.617 1.123.043.192.057.398.085.598zm-1.086 0c-.014-.121-.021-.25-.035-.37a1.274 1.274 0 00-.242-.59.865.865 0 00-1.413.007c-.07.1-.127.213-.17.327a2.002 2.002 0 00-.07 1.003c.035.192.099.377.205.54.234.37.632.476 1.015.363.235-.071.398-.235.511-.448.142-.263.185-.54.2-.832zm-5.288-1.245h-.568c-.015-.3-.008-.584-.008-.89h.576v-.184c.014-.185.007-.37.042-.548.114-.583.476-.924 1.065-1.01a2.385 2.385 0 011.271.15c-.043.298-.078.597-.12.903-.05-.014-.086-.021-.121-.036a1.295 1.295 0 00-.547-.078c-.277.014-.454.17-.497.455-.014.107-.014.22-.021.342h.937c.007.305 0 .59.007.896h-.923v3.406h-1.093c-.015-.135-.008-.277-.008-.412v-2.533c.008-.156.008-.298.008-.461zM0 20.253c.021 0 .043-.007.064-.007h1.08c.368.938.738 1.884 1.114 2.823h.028c.355-.939.717-1.877 1.072-2.816h1.115c-.582 1.436-1.157 2.859-1.74 4.288h-.95c-.08-.128-1.77-4.189-1.783-4.288z" fill="#ED1C24"/></svg>