<svg width="92" height="85" viewBox="0 0 92 85" fill="none" xmlns="http://www.w3.org/2000/svg">
<rect width="92" height="85" rx="5" fill="#333333"/>
<path fill-rule="evenodd" clip-rule="evenodd" d="M53.1073 42.8594C49.4436 45.5624 44.1343 46.9999 39.5636 46.9999C33.1538 46.9999 27.3857 44.6303 23.0157 40.6869C22.6715 40.3786 22.9798 39.9556 23.3921 40.1958C28.1027 42.9383 33.9317 44.5873 39.9472 44.5873C44.0053 44.5873 48.4685 43.7449 52.5768 42.0026C53.197 41.7409 53.7168 42.4149 53.1073 42.8594Z" fill="white"/>
<path fill-rule="evenodd" clip-rule="evenodd" d="M54.6344 41.1207C54.1648 40.522 51.5371 40.8375 50.3576 40.9773C49.9991 41.0203 49.9454 40.7085 50.268 40.4826C52.3652 39.0092 55.7995 39.4358 56.1974 39.927C56.5989 40.4253 56.0935 43.8703 54.1254 45.5122C53.8242 45.7668 53.5374 45.6305 53.6701 45.2971C54.111 44.193 55.1004 41.7194 54.6344 41.1207Z" fill="white"/>
<path fill-rule="evenodd" clip-rule="evenodd" d="M50.4408 30.0791V28.6487C50.4408 28.43 50.6057 28.2866 50.8029 28.2866H57.2162C57.4206 28.2866 57.5855 28.4372 57.5855 28.6487V29.8747C57.5855 30.0791 57.4098 30.3479 57.1015 30.7745L53.7783 35.5174C55.0115 35.4887 56.3164 35.6715 57.4349 36.3025C57.6859 36.4459 57.754 36.6538 57.7755 36.8617V38.3889C57.7755 38.6004 57.546 38.8441 57.3023 38.7151C55.327 37.6826 52.71 37.5679 50.5268 38.7258C50.3046 38.8441 50.0715 38.604 50.0715 38.396V36.9442C50.0715 36.7111 50.0751 36.3132 50.3117 35.9619L54.1619 30.4411H50.81C50.6057 30.4376 50.4408 30.2942 50.4408 30.0791Z" fill="white"/>
<path fill-rule="evenodd" clip-rule="evenodd" d="M27.0449 39.0164H25.0947C24.9083 39.0057 24.7613 38.8659 24.7469 38.6866V28.674C24.7469 28.4732 24.9154 28.3119 25.1234 28.3119H26.9409C27.1309 28.3227 27.2851 28.4661 27.2958 28.6489V29.9574H27.3317C27.8049 28.6919 28.6975 28.104 29.8984 28.104C31.1173 28.104 31.8845 28.6955 32.4294 29.9574C32.9026 28.6919 33.9781 28.104 35.1252 28.104C35.9462 28.104 36.8388 28.441 37.3837 29.201C38.0039 30.0434 37.8748 31.2659 37.8748 32.3414V38.6615C37.8748 38.8623 37.7064 39.0236 37.4984 39.0236H35.5482C35.3511 39.0128 35.1969 38.8551 35.1969 38.6651V33.3559C35.1969 32.9329 35.2328 31.8825 35.1432 31.481C34.9962 30.807 34.5588 30.617 33.996 30.617C33.5228 30.617 33.0316 30.9325 32.8309 31.438C32.6301 31.9434 32.6481 32.7859 32.6481 33.3559V38.6651C32.6481 38.8659 32.4796 39.0272 32.2717 39.0272H30.3215C30.1243 39.0164 29.9701 38.8587 29.9701 38.6687L29.9666 33.3595C29.9666 32.241 30.1494 30.5991 28.7656 30.5991C27.3639 30.5991 27.4177 32.2015 27.4177 33.3595V38.6687C27.4213 38.8551 27.2528 39.0164 27.0449 39.0164Z" fill="white"/>
<path fill-rule="evenodd" clip-rule="evenodd" d="M63.1054 28.1003C66.002 28.1003 67.5686 30.5883 67.5686 33.7466C67.5686 36.8009 65.8371 39.2243 63.1054 39.2243C60.2626 39.2243 58.7175 36.7364 58.7175 33.639C58.7175 30.5237 60.2841 28.1003 63.1054 28.1003ZM63.1234 30.1437C61.6858 30.1437 61.5926 32.1047 61.5926 33.3271C61.5926 34.5496 61.5747 37.163 63.1054 37.163C64.6183 37.163 64.69 35.055 64.69 33.7717C64.69 32.9292 64.6541 31.9183 64.3996 31.1152C64.1809 30.4198 63.7436 30.1437 63.1234 30.1437Z" fill="white"/>
<path fill-rule="evenodd" clip-rule="evenodd" d="M71.3228 39.0164H69.3798C69.1862 39.0057 69.0285 38.8479 69.0285 38.6579L69.0249 28.6417C69.0428 28.4589 69.2041 28.3155 69.4013 28.3155H71.2117C71.3838 28.3227 71.5236 28.441 71.5594 28.5951V30.1259H71.5953C72.1402 28.7565 72.9073 28.104 74.2553 28.104C75.13 28.104 75.9868 28.4195 76.5317 29.2834C77.0407 30.0829 77.0407 31.4344 77.0407 32.4023V38.7045C77.0192 38.8838 76.8579 39.02 76.6679 39.02H74.7106C74.5313 39.0093 74.3843 38.8766 74.3628 38.7045V33.2627C74.3628 32.1657 74.4919 30.5668 73.1439 30.5668C72.6707 30.5668 72.2334 30.8823 72.0147 31.3663C71.7423 31.9757 71.7064 32.5887 71.7064 33.2627V38.6544C71.6992 38.8551 71.5307 39.0164 71.3228 39.0164Z" fill="white"/>
<path fill-rule="evenodd" clip-rule="evenodd" d="M45.3285 34.2345C45.3285 34.9945 45.3464 35.629 44.9628 36.3029C44.6509 36.8514 44.1598 37.1884 43.6113 37.1884C42.8621 37.1884 42.4247 36.6184 42.4247 35.7724C42.4247 34.109 43.916 33.8079 45.3285 33.8079V34.2345ZM47.293 38.9916C47.1639 39.1063 46.9775 39.1135 46.8305 39.0382C46.1817 38.5005 46.067 38.2495 45.7121 37.7369C44.6402 38.8267 43.8838 39.1565 42.4964 39.1565C40.8545 39.1565 39.5747 38.142 39.5747 36.1165C39.5747 34.532 40.4315 33.4565 41.6539 32.926C42.7115 32.4599 44.1921 32.3775 45.3213 32.2484V31.9939C45.3213 31.5279 45.3571 30.9794 45.0847 30.5779C44.8481 30.2194 44.3928 30.0724 43.9913 30.0724C43.2456 30.0724 42.586 30.4524 42.4247 31.2447C42.3924 31.4203 42.2634 31.596 42.0841 31.6031L40.1913 31.3988C40.03 31.363 39.8543 31.2339 39.9009 30.9901C40.3347 28.6958 42.4068 28.0039 44.2638 28.0039C45.2138 28.0039 46.4541 28.2584 47.2034 28.9754C48.1534 29.8609 48.0602 31.0439 48.0602 32.3345V35.3745C48.0602 36.2886 48.4402 36.6901 48.7951 37.1812C48.9205 37.3569 48.9492 37.5684 48.7879 37.7011C48.39 38.0345 47.6802 38.6511 47.293 38.9952V38.9916Z" fill="white"/>
<path fill-rule="evenodd" clip-rule="evenodd" d="M19.7502 34.2341C19.7502 34.9941 19.7681 35.6287 19.3845 36.3026C19.0726 36.8511 18.5815 37.1881 18.033 37.1881C17.2838 37.1881 16.8464 36.6181 16.8464 35.7721C16.8464 34.1087 18.3377 33.8075 19.7502 33.8075V34.2341ZM21.7183 38.9913C21.5892 39.106 21.4028 39.1132 21.2558 39.0379C20.607 38.5002 20.4923 38.2492 20.1373 37.7366C19.0655 38.8264 18.309 39.1562 16.9217 39.1562C15.2762 39.1562 14 38.1417 14 36.1126C14 34.5281 14.8568 33.4526 16.0792 32.9221C17.1368 32.456 18.6173 32.3736 19.7466 32.2445V31.99C19.7466 31.524 19.7824 30.9755 19.51 30.574C19.2734 30.2155 18.8145 30.0685 18.4166 30.0685C17.6709 30.0685 17.0113 30.4485 16.85 31.2407C16.8177 31.4164 16.6887 31.5921 16.5094 31.5992L14.6202 31.3949C14.4589 31.359 14.2832 31.23 14.3298 30.9862C14.7636 28.6919 16.8357 28 18.6926 28C19.6426 28 20.883 28.2545 21.6322 28.9715C22.5822 29.857 22.489 31.04 22.489 32.3306V35.3706C22.489 36.2847 22.869 36.6862 23.2239 37.1773C23.3494 37.353 23.3781 37.5645 23.2168 37.6972C22.8188 38.0305 22.109 38.6472 21.7219 38.9913H21.7183Z" fill="white"/>
<path d="M34.3525 7.96582C35.4951 7.96582 36.6377 8.20605 37.7803 8.68652L36.9629 10.708C36.043 10.333 35.2461 10.1455 34.5723 10.1455C34.1152 10.1455 33.7637 10.2773 33.5176 10.541C33.2715 10.7988 33.1484 11.1709 33.1484 11.6572V13.3535H36.4443V15.2783H33.1484V16.5352C33.1484 17.5312 32.7061 18.2578 31.8213 18.7148H38.1318V21H28.9209V18.8203C29.5244 18.5625 29.9375 18.2666 30.1602 17.9326C30.3887 17.5986 30.5029 17.1387 30.5029 16.5527V15.2783H28.9385V13.3535H30.5029V11.6396C30.5029 10.4619 30.8369 9.55664 31.5049 8.92383C32.1787 8.28516 33.1279 7.96582 34.3525 7.96582ZM48.4365 21H39.4541V19.1104L42.6797 15.8496C43.6348 14.8711 44.2588 14.1943 44.5518 13.8193C44.8447 13.4385 45.0557 13.0869 45.1846 12.7646C45.3135 12.4424 45.3779 12.1084 45.3779 11.7627C45.3779 11.2471 45.2344 10.8633 44.9473 10.6113C44.666 10.3594 44.2881 10.2334 43.8135 10.2334C43.3154 10.2334 42.832 10.3477 42.3633 10.5762C41.8945 10.8047 41.4053 11.1299 40.8955 11.5518L39.4189 9.80273C40.0518 9.26367 40.5762 8.88281 40.9922 8.66016C41.4082 8.4375 41.8623 8.26758 42.3545 8.15039C42.8467 8.02734 43.3975 7.96582 44.0068 7.96582C44.8096 7.96582 45.5186 8.1123 46.1338 8.40527C46.749 8.69824 47.2266 9.1084 47.5664 9.63574C47.9062 10.1631 48.0762 10.7666 48.0762 11.4463C48.0762 12.0381 47.9707 12.5947 47.7598 13.1162C47.5547 13.6318 47.2324 14.1621 46.793 14.707C46.3594 15.252 45.5918 16.0283 44.4902 17.0361L42.8379 18.5918V18.7148H48.4365V21ZM54.6631 12.791C55.9053 12.791 56.8926 13.1396 57.625 13.8369C58.3633 14.5342 58.7324 15.4893 58.7324 16.7021C58.7324 18.1377 58.29 19.2422 57.4053 20.0156C56.5205 20.7891 55.2549 21.1758 53.6084 21.1758C52.1787 21.1758 51.0244 20.9443 50.1455 20.4814V18.1348C50.6084 18.3809 51.1475 18.583 51.7627 18.7412C52.3779 18.8936 52.9609 18.9697 53.5117 18.9697C55.1699 18.9697 55.999 18.29 55.999 16.9307C55.999 15.6357 55.1406 14.9883 53.4238 14.9883C53.1133 14.9883 52.7705 15.0205 52.3955 15.085C52.0205 15.1436 51.7158 15.208 51.4814 15.2783L50.4004 14.6982L50.8838 8.15039H57.8535V10.4531H53.2656L53.0283 12.9756L53.3359 12.9141C53.6934 12.832 54.1357 12.791 54.6631 12.791Z" fill="#FF9960"/>
<path d="M29.9424 58.6338H32.1265V61.7583C31.7866 61.8667 31.4409 61.9487 31.0894 62.0044C30.7378 62.0601 30.3306 62.0879 29.8677 62.0879C28.895 62.0879 28.1377 61.7993 27.5957 61.2222C27.0537 60.6421 26.7827 59.8306 26.7827 58.7876C26.7827 58.1196 26.916 57.5352 27.1826 57.0342C27.4521 56.5303 27.8389 56.1465 28.3428 55.8828C28.8467 55.6162 29.437 55.4829 30.1138 55.4829C30.7993 55.4829 31.438 55.6089 32.0298 55.8608L31.7397 56.52C31.1597 56.2739 30.6016 56.1509 30.0654 56.1509C29.2832 56.1509 28.6724 56.3838 28.2329 56.8496C27.7935 57.3154 27.5737 57.9614 27.5737 58.7876C27.5737 59.6548 27.7847 60.3125 28.2065 60.7607C28.6313 61.209 29.2539 61.4331 30.0742 61.4331C30.5195 61.4331 30.9546 61.3818 31.3794 61.2793V59.3018H29.9424V58.6338ZM34.543 62H33.8135V57.1836H34.543V62ZM33.752 55.8784C33.752 55.7114 33.793 55.5898 33.875 55.5137C33.957 55.4346 34.0596 55.395 34.1826 55.395C34.2998 55.395 34.4009 55.4346 34.4858 55.5137C34.5708 55.5928 34.6133 55.7144 34.6133 55.8784C34.6133 56.0425 34.5708 56.1655 34.4858 56.2476C34.4009 56.3267 34.2998 56.3662 34.1826 56.3662C34.0596 56.3662 33.957 56.3267 33.875 56.2476C33.793 56.1655 33.752 56.0425 33.752 55.8784ZM38.5107 57.7505H37.2847V62H36.5552V57.7505H35.6938V57.4209L36.5552 57.1572V56.8892C36.5552 55.7056 37.0723 55.1138 38.1064 55.1138C38.3613 55.1138 38.6602 55.165 39.0029 55.2676L38.814 55.8521C38.5327 55.7612 38.2925 55.7158 38.0933 55.7158C37.8179 55.7158 37.6143 55.8081 37.4824 55.9927C37.3506 56.1743 37.2847 56.4673 37.2847 56.8716V57.1836H38.5107V57.7505ZM41.1953 61.4858C41.3242 61.4858 41.4487 61.4771 41.5688 61.4595C41.689 61.439 41.7842 61.4185 41.8545 61.3979V61.9561C41.7754 61.9941 41.6582 62.0249 41.5029 62.0483C41.3506 62.0747 41.2129 62.0879 41.0898 62.0879C40.1582 62.0879 39.6924 61.5972 39.6924 60.6157V57.7505H39.0024V57.3989L39.6924 57.0957L40 56.0674H40.4219V57.1836H41.8193V57.7505H40.4219V60.585C40.4219 60.875 40.4907 61.0977 40.6284 61.2529C40.7661 61.4082 40.9551 61.4858 41.1953 61.4858ZM48.52 56.1509C47.814 56.1509 47.2559 56.3867 46.8457 56.8584C46.4385 57.3271 46.2349 57.9702 46.2349 58.7876C46.2349 59.6284 46.4312 60.2788 46.8237 60.7388C47.2192 61.1958 47.7817 61.4243 48.5112 61.4243C48.9595 61.4243 49.4707 61.3438 50.0449 61.1826V61.8374C49.5996 62.0044 49.0503 62.0879 48.397 62.0879C47.4507 62.0879 46.7197 61.8008 46.2041 61.2266C45.6914 60.6523 45.4351 59.8364 45.4351 58.7788C45.4351 58.1167 45.5581 57.5366 45.8042 57.0386C46.0532 56.5405 46.4106 56.1567 46.8765 55.8872C47.3452 55.6177 47.896 55.4829 48.5288 55.4829C49.2026 55.4829 49.7915 55.606 50.2954 55.8521L49.979 56.4937C49.4927 56.2651 49.0063 56.1509 48.52 56.1509ZM54.5488 62L54.4038 61.3145H54.3687C54.1284 61.6162 53.8882 61.8213 53.6479 61.9297C53.4106 62.0352 53.1133 62.0879 52.7559 62.0879C52.2783 62.0879 51.9033 61.9648 51.6309 61.7188C51.3613 61.4727 51.2266 61.1226 51.2266 60.6685C51.2266 59.6958 52.0044 59.186 53.5601 59.1392L54.3774 59.1128V58.814C54.3774 58.436 54.2954 58.1577 54.1313 57.979C53.9702 57.7974 53.7109 57.7065 53.3535 57.7065C52.9521 57.7065 52.498 57.8296 51.9912 58.0757L51.7671 57.5176C52.0044 57.3887 52.2637 57.2876 52.5449 57.2144C52.8291 57.1411 53.1133 57.1045 53.3975 57.1045C53.9717 57.1045 54.3965 57.2319 54.6719 57.4868C54.9502 57.7417 55.0894 58.1504 55.0894 58.7129V62H54.5488ZM52.9009 61.4858C53.355 61.4858 53.7109 61.3613 53.9688 61.1123C54.2295 60.8633 54.3599 60.5146 54.3599 60.0664V59.6313L53.6304 59.6621C53.0503 59.6826 52.6313 59.7734 52.3735 59.9346C52.1187 60.0928 51.9912 60.3403 51.9912 60.6772C51.9912 60.9409 52.0703 61.1416 52.2285 61.2793C52.3896 61.417 52.6138 61.4858 52.9009 61.4858ZM59.0439 57.0957C59.2578 57.0957 59.4497 57.1133 59.6196 57.1484L59.5186 57.8252C59.3193 57.7812 59.1436 57.7593 58.9912 57.7593C58.6016 57.7593 58.2676 57.9175 57.9893 58.2339C57.7139 58.5503 57.5762 58.9443 57.5762 59.416V62H56.8467V57.1836H57.4487L57.5322 58.0757H57.5674C57.7461 57.7622 57.9614 57.5205 58.2134 57.3506C58.4653 57.1807 58.7422 57.0957 59.0439 57.0957ZM64.0488 61.354H64.0093C63.6724 61.8433 63.1685 62.0879 62.4976 62.0879C61.8677 62.0879 61.377 61.8726 61.0254 61.4419C60.6768 61.0112 60.5024 60.3989 60.5024 59.605C60.5024 58.811 60.6782 58.1943 61.0298 57.7549C61.3813 57.3154 61.8706 57.0957 62.4976 57.0957C63.1509 57.0957 63.6519 57.333 64.0005 57.8076H64.0576L64.0269 57.4604L64.0093 57.1221V55.1621H64.7388V62H64.1455L64.0488 61.354ZM62.5898 61.4771C63.0879 61.4771 63.4482 61.3423 63.6709 61.0728C63.8965 60.8003 64.0093 60.3623 64.0093 59.7588V59.605C64.0093 58.9224 63.895 58.436 63.6665 58.146C63.4409 57.853 63.0791 57.7065 62.5811 57.7065C62.1533 57.7065 61.8252 57.8735 61.5967 58.2075C61.3711 58.5386 61.2583 59.0073 61.2583 59.6138C61.2583 60.229 61.3711 60.6934 61.5967 61.0068C61.8223 61.3203 62.1533 61.4771 62.5898 61.4771ZM27.769 73V66.5752H28.5161V73H27.769ZM33.7188 73V69.8843C33.7188 69.4917 33.6294 69.1987 33.4507 69.0054C33.272 68.812 32.9922 68.7153 32.6113 68.7153C32.1074 68.7153 31.7383 68.8516 31.5039 69.124C31.2695 69.3965 31.1523 69.8462 31.1523 70.4731V73H30.4229V68.1836H31.0161L31.1348 68.8428H31.1699C31.3193 68.6055 31.5288 68.4224 31.7983 68.2935C32.0679 68.1616 32.3682 68.0957 32.6992 68.0957C33.2793 68.0957 33.7158 68.2363 34.0088 68.5176C34.3018 68.7959 34.4482 69.2427 34.4482 69.8579V73H33.7188ZM38.126 73.0879C37.4287 73.0879 36.8882 72.874 36.5044 72.4463C36.1235 72.0156 35.9331 71.4077 35.9331 70.6226C35.9331 69.8169 36.1265 69.1943 36.5132 68.7549C36.9028 68.3154 37.4565 68.0957 38.1743 68.0957C38.4058 68.0957 38.6372 68.1206 38.8687 68.1704C39.1001 68.2202 39.2817 68.2788 39.4136 68.3462L39.1895 68.9658C39.0283 68.9014 38.8525 68.8486 38.6621 68.8076C38.4717 68.7637 38.3032 68.7417 38.1567 68.7417C37.1782 68.7417 36.689 69.3657 36.689 70.6138C36.689 71.2056 36.8076 71.6597 37.0449 71.9761C37.2852 72.2925 37.6396 72.4507 38.1084 72.4507C38.5098 72.4507 38.9214 72.3643 39.3433 72.1914V72.8374C39.021 73.0044 38.6152 73.0879 38.126 73.0879ZM41.4697 73H40.7402V66.1621H41.4697V73ZM43.9521 68.1836V71.3081C43.9521 71.7007 44.0415 71.9937 44.2202 72.187C44.3989 72.3804 44.6787 72.4771 45.0596 72.4771C45.5635 72.4771 45.9312 72.3394 46.1626 72.064C46.397 71.7886 46.5142 71.3389 46.5142 70.7148V68.1836H47.2437V73H46.6416L46.5361 72.354H46.4966C46.3472 72.5913 46.1392 72.7729 45.8726 72.8989C45.6089 73.0249 45.3071 73.0879 44.9673 73.0879C44.3813 73.0879 43.9419 72.9487 43.6489 72.6704C43.3589 72.3921 43.2139 71.9468 43.2139 71.3345V68.1836H43.9521ZM52.3232 72.354H52.2837C51.9468 72.8433 51.4429 73.0879 50.772 73.0879C50.1421 73.0879 49.6514 72.8726 49.2998 72.4419C48.9512 72.0112 48.7769 71.3989 48.7769 70.605C48.7769 69.811 48.9526 69.1943 49.3042 68.7549C49.6558 68.3154 50.145 68.0957 50.772 68.0957C51.4253 68.0957 51.9263 68.333 52.2749 68.8076H52.332L52.3013 68.4604L52.2837 68.1221V66.1621H53.0132V73H52.4199L52.3232 72.354ZM50.8643 72.4771C51.3623 72.4771 51.7227 72.3423 51.9453 72.0728C52.1709 71.8003 52.2837 71.3623 52.2837 70.7588V70.605C52.2837 69.9224 52.1694 69.436 51.9409 69.146C51.7153 68.853 51.3535 68.7065 50.8555 68.7065C50.4277 68.7065 50.0996 68.8735 49.8711 69.2075C49.6455 69.5386 49.5327 70.0073 49.5327 70.6138C49.5327 71.229 49.6455 71.6934 49.8711 72.0068C50.0967 72.3203 50.4277 72.4771 50.8643 72.4771ZM56.8491 73.0879C56.1372 73.0879 55.5747 72.8711 55.1616 72.4375C54.7515 72.0039 54.5464 71.4019 54.5464 70.6313C54.5464 69.855 54.7368 69.2383 55.1177 68.7812C55.5015 68.3242 56.0156 68.0957 56.6602 68.0957C57.2637 68.0957 57.7412 68.2949 58.0928 68.6934C58.4443 69.0889 58.6201 69.6118 58.6201 70.2622V70.7236H55.3022C55.3169 71.2891 55.459 71.7183 55.7285 72.0112C56.001 72.3042 56.3833 72.4507 56.8755 72.4507C57.394 72.4507 57.9067 72.3423 58.4136 72.1255V72.7759C58.1558 72.8872 57.9111 72.9663 57.6797 73.0132C57.4512 73.063 57.1743 73.0879 56.8491 73.0879ZM56.6514 68.7065C56.2646 68.7065 55.9556 68.8325 55.7241 69.0845C55.4956 69.3364 55.3608 69.6851 55.3198 70.1304H57.8379C57.8379 69.6704 57.7354 69.3188 57.5303 69.0757C57.3252 68.8296 57.0322 68.7065 56.6514 68.7065ZM63.3965 72.354H63.3569C63.02 72.8433 62.5161 73.0879 61.8452 73.0879C61.2153 73.0879 60.7246 72.8726 60.373 72.4419C60.0244 72.0112 59.8501 71.3989 59.8501 70.605C59.8501 69.811 60.0259 69.1943 60.3774 68.7549C60.729 68.3154 61.2183 68.0957 61.8452 68.0957C62.4985 68.0957 62.9995 68.333 63.3481 68.8076H63.4053L63.3745 68.4604L63.3569 68.1221V66.1621H64.0864V73H63.4932L63.3965 72.354ZM61.9375 72.4771C62.4355 72.4771 62.7959 72.3423 63.0186 72.0728C63.2441 71.8003 63.3569 71.3623 63.3569 70.7588V70.605C63.3569 69.9224 63.2427 69.436 63.0142 69.146C62.7886 68.853 62.4268 68.7065 61.9287 68.7065C61.501 68.7065 61.1729 68.8735 60.9443 69.2075C60.7188 69.5386 60.606 70.0073 60.606 70.6138C60.606 71.229 60.7188 71.6934 60.9443 72.0068C61.1699 72.3203 61.501 72.4771 61.9375 72.4771Z" fill="white"/>
</svg>
