<svg width="26" height="25" viewBox="0 0 26 25" fill="none" xmlns="http://www.w3.org/2000/svg">
<path d="M13.1308 24.9116C6.41703 25.0013 0.703706 19.2731 0.829681 12.2512C0.955656 5.70035 6.40221 -0.0951788 13.4864 0.0917737C20.1335 0.26377 25.4911 5.83495 25.4689 12.5578C25.4466 19.4152 19.8148 25.0013 13.1308 24.9116ZM2.40066 12.4905C2.37843 18.4056 7.08396 23.2664 12.9751 23.3561C19.0442 23.4459 23.9201 18.5253 23.9053 12.4755C23.8905 6.47059 19.0738 1.66965 13.0863 1.67713C7.20993 1.66965 2.38584 6.55285 2.40066 12.4905Z" fill="#6300A9"/>
<path d="M12.2425 12.3334C13.5838 13.4028 13.3393 14.9657 12.6575 15.8032C12.1536 16.4164 11.4793 16.7156 10.716 16.7455C9.53779 16.7829 8.35214 16.753 7.1665 16.753C7.12945 16.753 7.0998 16.738 7.03311 16.7156C7.03311 13.9188 7.03311 11.122 7.03311 8.31767C7.04793 8.30272 7.06275 8.2728 7.08498 8.2728C8.36696 8.28776 9.65636 8.2055 10.9161 8.34759C12.576 8.53454 13.4356 10.2395 12.702 11.6828C12.5908 11.9072 12.413 12.1016 12.2425 12.3334ZM8.95238 11.5108C9.41181 11.5108 9.84161 11.5407 10.264 11.5033C10.6567 11.4659 10.8939 11.1743 10.9161 10.8154C10.9383 10.419 10.7457 10.1049 10.3381 10.0376C9.88607 9.96285 9.42664 9.97781 8.95238 9.9479C8.95238 10.5013 8.95238 10.9874 8.95238 11.5108ZM8.95979 13.328C8.95979 13.8589 8.95979 14.3525 8.95979 14.8535C9.39699 14.8535 9.81197 14.8834 10.2269 14.846C10.6716 14.8012 10.9235 14.4871 10.9161 14.0758C10.9087 13.6869 10.6493 13.3729 10.2344 13.3355C9.81938 13.2981 9.4044 13.328 8.95979 13.328Z" fill="#6300A9"/>
<path d="M17.7547 10.2468C17.7547 12.4379 17.7547 14.5692 17.7547 16.7229C17.0582 16.7229 16.3986 16.7229 15.6873 16.7229C15.6873 14.5916 15.6873 12.4603 15.6873 10.2842C15.05 10.2842 14.4497 10.2842 13.8273 10.2842C13.8273 9.58876 13.8273 8.93817 13.8273 8.26514C15.7762 8.26514 17.7029 8.26514 19.6666 8.26514C19.6666 8.92321 19.6666 9.5738 19.6666 10.2543C19.0441 10.2468 18.4291 10.2468 17.7547 10.2468Z" fill="#6300A9"/>
</svg>
