<svg width="75" height="17" viewBox="0 0 75 17" fill="none" xmlns="http://www.w3.org/2000/svg">
<path d="M7.5895 6.81672C7.12647 7.31151 6.55657 7.64298 5.90897 7.83193C3.53712 8.52048 1.19765 7.10335 0.723285 4.69824C0.708714 4.62298 0.689286 4.54772 0.673096 4.47246C0.673096 4.16822 0.673096 3.86237 0.673096 3.55813C0.762141 3.22507 0.822045 2.88239 0.94347 2.56214C1.9343 -0.0607466 5.43298 -0.854978 7.47293 1.07295C7.51503 1.11299 7.54255 1.16743 7.57655 1.21547C7.38713 1.39481 7.19446 1.57095 7.00828 1.7551C6.73305 2.02891 6.46267 2.30914 6.18906 2.58616C6.13725 2.55733 6.07897 2.53492 6.03363 2.49809C5.3666 1.93924 4.43082 1.85598 3.69255 2.29152C2.94133 2.73508 2.5641 3.59016 2.74705 4.43563C2.96076 5.42201 3.92568 6.09775 4.93918 5.98566C5.41355 5.93282 5.80374 5.72465 6.15182 5.42041C6.20525 5.47005 6.2603 5.51809 6.3121 5.56773C6.73952 5.98246 7.16532 6.39879 7.5895 6.81672Z" fill="#DC955B"/>
<path d="M0.673096 12.5198C0.771855 12.1723 0.84633 11.8169 0.974231 11.4806C1.16527 10.9826 1.45508 10.5406 1.85659 10.1788C2.3083 10.6287 2.76 11.0803 3.21332 11.5302C3.23275 11.5494 3.26513 11.5591 3.29265 11.5719C3.25865 11.6151 3.22627 11.6583 3.19065 11.6984C2.90733 12.0282 2.74543 12.4093 2.70819 12.8401C2.60619 14.0378 3.62617 15.029 4.79186 14.9874C6.02554 14.9425 6.97104 13.7608 6.69095 12.5743C6.60029 12.1884 6.39467 11.8713 6.15344 11.5687C6.62295 11.1043 7.09247 10.6415 7.56198 10.1772C7.78378 10.4494 8.04606 10.6992 8.22254 10.9986C9.1567 12.5663 8.87985 14.5807 7.5636 15.8505C6.85123 16.539 5.99154 16.9185 4.98937 16.9874C2.83609 17.1379 0.980707 15.5799 0.708714 13.5478C0.705476 13.5206 0.686048 13.495 0.674715 13.4694C0.673096 13.1539 0.673096 12.8369 0.673096 12.5198Z" fill="#75B5A8"/>
<path d="M59.2945 2.71593C59.6102 2.35244 59.9632 2.0594 60.4359 1.97133C61.2066 1.82722 61.94 1.86565 62.5163 2.48855C62.8774 2.87765 63.0522 3.35644 63.1332 3.86884C63.1656 4.0658 63.1737 4.26916 63.1753 4.46932C63.1785 5.58381 63.1769 6.69829 63.1769 7.82559C62.416 7.82559 61.6599 7.82559 60.8811 7.82559C60.8811 7.76794 60.8811 7.70389 60.8811 7.63984C60.8779 6.5798 60.8795 5.51976 60.8682 4.45971C60.8666 4.29959 60.8212 4.13626 60.771 3.98093C60.7063 3.77597 60.5363 3.6847 60.3307 3.6847C60.1234 3.6847 59.9437 3.77757 59.8887 3.98093C59.8255 4.21312 59.7802 4.45651 59.777 4.6951C59.7656 5.68789 59.7721 6.68228 59.7721 7.67507C59.7721 7.72311 59.7721 7.77115 59.7721 7.82879C59.0079 7.82879 58.2519 7.82879 57.4764 7.82879C57.4764 7.76474 57.4764 7.70069 57.4764 7.63664C57.4731 6.5766 57.4731 5.51655 57.4634 4.45651C57.4618 4.30119 57.4245 4.14266 57.3744 3.99374C57.3031 3.78398 57.1428 3.67509 56.9437 3.6831C56.7349 3.6927 56.5632 3.78558 56.5114 3.99054C56.4548 4.21792 56.4094 4.45491 56.4078 4.68869C56.3965 5.73112 56.403 6.77195 56.403 7.82719C55.642 7.82719 54.8876 7.82719 54.1201 7.82719C54.1201 5.90566 54.1201 3.97613 54.1201 2.03539C54.8681 2.03539 55.6242 2.03539 56.3949 2.03539C56.3949 2.23715 56.3949 2.44691 56.3949 2.65668C56.7365 2.11385 57.227 1.88807 57.8552 1.91209C58.4704 1.9345 58.9432 2.20832 59.2945 2.71593Z" fill="#30253B"/>
<path d="M30.9261 16.8289C30.1473 16.8289 29.3961 16.8289 28.6384 16.8289C28.6384 14.1724 28.6384 11.5239 28.6384 8.86417C29.3961 8.86417 30.1522 8.86417 30.9196 8.86417C30.9196 9.79931 30.9196 10.7361 30.9196 11.716C30.9666 11.6616 30.9892 11.6392 31.0087 11.6136C31.3648 11.1364 31.8538 10.9282 32.4415 10.9106C32.8738 10.8978 33.2915 10.949 33.6655 11.1812C34.1657 11.4903 34.4005 11.9722 34.509 12.5199C34.564 12.7985 34.585 13.0867 34.5883 13.3717C34.5964 14.4622 34.5915 15.5543 34.5915 16.6448C34.5915 16.704 34.5915 16.7632 34.5915 16.8305C33.8209 16.8305 33.0664 16.8305 32.2958 16.8305C32.2958 16.648 32.2958 16.4734 32.2958 16.2973C32.2925 15.3765 32.2925 14.4558 32.2828 13.5367C32.2812 13.3926 32.2521 13.2452 32.2083 13.1075C32.1193 12.8273 31.8813 12.6736 31.5899 12.6832C31.292 12.6928 31.0799 12.8353 31.0054 13.1236C30.9536 13.3285 30.9293 13.5431 30.9277 13.7545C30.9196 14.7168 30.9245 15.6808 30.9245 16.6448C30.9261 16.7024 30.9261 16.7616 30.9261 16.8289Z" fill="#30253B"/>
<path d="M27.07 5.205C27.5201 5.711 27.9588 6.20419 28.4089 6.7102C27.8244 7.23061 27.1946 7.66776 26.4256 7.82789C24.8859 8.14814 23.4661 7.88713 22.2761 6.81908C21.3581 5.99603 20.9663 4.93919 21.0375 3.72222C21.1412 1.95762 22.4202 0.519674 24.2319 0.127362C25.812 -0.21531 27.2108 0.12416 28.404 1.25306C27.9653 1.74625 27.5233 2.24425 27.0716 2.75345C26.5487 2.1882 25.9059 1.95121 25.1482 2.02007C24.635 2.0665 24.2027 2.27307 23.8595 2.65577C23.1552 3.4388 23.2345 4.76305 24.0295 5.47882C24.7613 6.13534 26.2087 6.17217 27.07 5.205Z" fill="#30253B"/>
<path d="M28.4016 10.2507C27.9612 10.7455 27.5192 11.2435 27.0691 11.7511C26.5608 11.2019 25.9375 10.9601 25.1992 11.0113C24.6714 11.0481 24.2245 11.2515 23.8684 11.639C23.1576 12.4108 23.2272 13.7367 24.0157 14.4637C24.7378 15.1298 26.1965 15.1826 27.0675 14.2058C27.5111 14.7054 27.9531 15.2018 28.4048 15.7094C27.7815 16.2667 27.1031 16.7166 26.2758 16.8608C24.7863 17.1202 23.4118 16.8512 22.2688 15.8167C21.354 14.9905 20.9606 13.9368 21.0335 12.7183C21.1387 10.9537 22.4177 9.51572 24.2294 9.12501C25.8112 8.78394 27.21 9.1234 28.4016 10.2507Z" fill="#30253B"/>
<path d="M13.6622 8.0167C12.9692 7.99428 12.3103 7.84377 11.6983 7.5091C10.1813 6.67804 9.37991 5.00791 9.67619 3.28814C9.95789 1.65324 11.3179 0.330591 13.0016 0.0551718C15.414 -0.340343 17.6304 1.45468 17.7113 3.8694C17.7129 3.91104 17.7081 3.95427 17.7065 3.99751C17.0297 3.99591 16.3514 3.9927 15.6746 3.9911C15.6746 3.15684 15.1468 2.41865 14.347 2.13042C13.5489 1.84379 12.6584 2.08559 12.1079 2.73891C11.5753 3.36981 11.4927 4.28734 11.9137 4.9935C12.3055 5.65162 12.9077 5.96387 13.6654 6.01031C13.6638 6.67964 13.6622 7.34737 13.6622 8.0167Z" fill="#562983"/>
<path d="M10.8078 10.1788C11.355 9.59598 12.0366 9.2421 12.8154 9.08837C15.0205 8.65283 17.041 9.91623 17.6044 12.0667C18.1613 14.1932 16.6961 16.4959 14.525 16.9122C13.1036 17.1844 11.8683 16.8225 10.811 15.849C10.8693 15.7865 10.9244 15.7224 10.9843 15.6616C11.3971 15.2469 11.8116 14.8321 12.2261 14.4174C12.2649 14.4462 12.3038 14.4751 12.3426 14.5071C12.7199 14.8193 13.1554 14.9971 13.6459 14.9939C14.4392 14.9875 15.0528 14.6336 15.4333 13.953C15.8041 13.2901 15.7863 12.6 15.3766 11.9563C14.9525 11.2917 14.3259 10.9763 13.5213 11.0163C13.0145 11.0419 12.6049 11.2709 12.2293 11.5816C11.7549 11.1124 11.2822 10.6464 10.8078 10.1788Z" fill="#C5D46F"/>
<path d="M50.9953 2.02969C51.766 2.02969 52.5204 2.02969 53.283 2.02969C53.283 3.96563 53.283 5.89357 53.283 7.83111C52.5204 7.83111 51.766 7.83111 51.0002 7.83111C51.0002 7.61333 51.0002 7.40197 51.0002 7.1906C50.9824 7.17458 50.963 7.16017 50.9451 7.14416C50.9387 7.17298 50.9419 7.20661 50.9257 7.22903C50.3898 7.9528 49.6337 8.04888 48.8242 7.89836C48.0552 7.75585 47.6343 7.22583 47.4529 6.50685C47.3785 6.20902 47.3396 5.89517 47.3364 5.58772C47.3234 4.46683 47.3315 3.34594 47.3315 2.22345C47.3315 2.1626 47.3315 2.10335 47.3315 2.0329C48.0957 2.0329 48.8501 2.0329 49.6273 2.0329C49.6273 2.09535 49.6273 2.1594 49.6273 2.22505C49.6305 3.26107 49.6289 4.2971 49.6402 5.33152C49.6418 5.49165 49.6839 5.65658 49.7374 5.8103C49.828 6.07291 50.0434 6.1818 50.3105 6.1898C50.5906 6.19941 50.8124 6.0665 50.8917 5.80069C50.9565 5.58292 50.9905 5.34753 50.9921 5.12015C51.0034 4.15138 50.9969 3.18261 50.9969 2.21384C50.9953 2.15459 50.9953 2.09535 50.9953 2.02969Z" fill="#30253B"/>
<path d="M37.776 7.834C37.0037 7.834 36.2525 7.834 35.4915 7.834C35.4915 5.89646 35.4915 3.96212 35.4915 2.02138C36.2509 2.02138 37.0053 2.02138 37.7743 2.02138C37.7743 2.24396 37.7743 2.46013 37.7743 2.60424C37.8925 2.50977 38.0415 2.38647 38.1953 2.26958C39.3189 1.4225 40.9848 2.00056 41.3216 3.36325C41.3961 3.66108 41.4317 3.97493 41.4365 4.28238C41.4495 5.40327 41.4414 6.52416 41.4414 7.64505C41.4414 7.7043 41.4414 7.76355 41.4414 7.8292C40.6708 7.8292 39.9147 7.8292 39.1457 7.8292C39.1457 7.75554 39.1457 7.69149 39.1457 7.62584C39.1424 6.59622 39.1424 5.5666 39.1327 4.53698C39.1311 4.38166 39.0955 4.22153 39.0469 4.07421C38.9562 3.8052 38.7393 3.66749 38.4527 3.66749C38.171 3.66749 37.9443 3.8068 37.8683 4.08222C37.8083 4.29679 37.7824 4.52577 37.7792 4.74675C37.7695 5.70911 37.776 6.67148 37.776 7.63544C37.776 7.69629 37.776 7.75554 37.776 7.834Z" fill="#30253B"/>
<path d="M31.592 7.95159C30.5979 7.94999 29.7042 7.66976 29.0097 6.94119C27.5445 5.40556 28.1062 2.95562 30.1284 2.1854C31.4997 1.66339 32.8451 1.77868 33.9962 2.75386C35.6249 4.13255 35.1975 6.72341 33.2239 7.61692C32.7107 7.84751 32.2201 7.94839 31.592 7.95159ZM31.5126 3.6938C30.7922 3.71462 30.2984 4.30229 30.3437 5.01646C30.3923 5.75945 30.9816 6.24463 31.7571 6.16457C32.4225 6.09732 32.9082 5.51125 32.8435 4.83551C32.7722 4.11014 32.2121 3.62975 31.5126 3.6938Z" fill="#30253B"/>
<path d="M38.3734 10.9071C39.4517 10.9183 40.4004 11.2402 41.1015 12.0857C42.3869 13.6389 41.762 15.9367 39.8321 16.6781C38.5985 17.1521 37.3632 17.0897 36.2541 16.329C34.334 15.0128 34.6157 12.2026 36.7415 11.2418C37.2579 11.0096 37.742 10.9103 38.3734 10.9071ZM38.4479 15.1665C39.136 15.1505 39.6654 14.5965 39.6184 13.8455C39.5699 13.0785 38.9563 12.6189 38.2067 12.6958C37.5413 12.763 37.0555 13.3475 37.1187 14.0232C37.1867 14.747 37.7485 15.229 38.4479 15.1665Z" fill="#30253B"/>
<path d="M68.8363 5.69838C69.1472 6.10991 69.4612 6.52464 69.7786 6.94417C69.288 7.43416 68.7003 7.71919 68.0349 7.85049C67.0894 8.03624 66.1585 8.00261 65.2712 7.59109C64.0975 7.04665 63.466 5.92256 63.5923 4.62553C63.7154 3.35892 64.6155 2.31489 65.8638 2.02666C66.8951 1.78807 67.8989 1.85373 68.8201 2.42058C69.641 2.92498 70.0344 3.68718 70.0991 4.62393C70.1169 4.87052 70.1024 5.12032 70.1024 5.38133C68.621 5.38133 67.1849 5.38133 65.7375 5.38133C65.7845 5.66636 65.9642 5.8409 66.186 5.9674C66.853 6.3469 67.5411 6.31007 68.2276 6.02985C68.4332 5.94498 68.6226 5.81528 68.8363 5.69838ZM68.0122 4.32289C68.0041 3.86973 67.5362 3.49503 66.8465 3.51104C66.2167 3.52545 65.7974 3.8345 65.7489 4.32289C66.5001 4.32289 67.2497 4.32289 68.0122 4.32289Z" fill="#30253B"/>
<path d="M57.2156 14.3862C56.4304 14.3862 55.7148 14.3862 54.9992 14.3862C54.2901 14.3862 53.5809 14.3862 52.8087 14.3862C52.9042 14.5383 52.9641 14.676 53.0629 14.7769C53.4336 15.1532 53.9112 15.2493 54.418 15.2365C54.962 15.2221 55.2016 15.1276 55.9431 14.6888C56.2555 15.102 56.5696 15.5167 56.8918 15.9426C56.547 16.2997 56.1374 16.5495 55.6711 16.7032C54.5734 17.0667 53.4725 17.0795 52.4104 16.604C50.3899 15.6976 50.262 13.2733 51.4277 11.9539C51.9684 11.3422 52.6662 11.0251 53.4725 10.9387C54.3435 10.8458 55.1821 10.9483 55.9382 11.4254C56.7591 11.9443 57.1541 12.7081 57.2124 13.6528C57.2286 13.8898 57.2156 14.13 57.2156 14.3862ZM52.8621 13.3165C53.6166 13.3165 54.371 13.3165 55.1255 13.3165C55.119 12.873 54.656 12.4935 53.963 12.5095C53.3332 12.5239 52.9172 12.8282 52.8621 13.3165Z" fill="#30253B"/>
<path d="M50.8317 16.0405C50.3784 16.4713 49.8474 16.7259 49.2532 16.8492C48.1879 17.0701 47.1663 16.9645 46.237 16.364C44.3622 15.1534 44.4383 12.5177 46.373 11.4048C47.6504 10.6699 49.4281 10.7483 50.5678 11.5922C50.6569 11.6578 50.7378 11.7315 50.835 11.8116C50.4626 12.2615 50.0967 12.7035 49.7535 13.1166C49.4491 12.9805 49.1739 12.814 48.8744 12.7291C48.1571 12.5241 47.4577 12.87 47.257 13.5057C47.108 13.9733 47.1712 14.4168 47.5144 14.7835C47.8851 15.1774 48.3628 15.2751 48.8711 15.1294C49.1658 15.0461 49.4394 14.8844 49.7551 14.7435C50.0886 15.1454 50.4577 15.5906 50.8317 16.0405Z" fill="#30253B"/>
<path d="M41.762 6.07774C42.3173 5.95124 42.8613 5.82955 43.3955 5.70785C43.4166 5.72546 43.4328 5.73187 43.4344 5.73987C43.551 6.24748 43.9347 6.42682 44.4722 6.406C44.5742 6.4012 44.6859 6.38199 44.7733 6.33555C44.8429 6.29712 44.9239 6.20745 44.9255 6.13859C44.9287 6.07134 44.8526 5.96405 44.7863 5.93683C44.4576 5.80072 44.1192 5.69344 43.789 5.56213C43.4878 5.44364 43.1802 5.32995 42.8969 5.17462C41.7118 4.52611 41.8688 3.20026 42.5958 2.52612C43.4393 1.7431 45.3545 1.66944 46.1916 2.5053C46.4474 2.7599 46.64 3.04974 46.7793 3.39881C46.2191 3.55414 45.667 3.70786 45.1068 3.86478C44.9676 3.58456 44.7636 3.41002 44.4447 3.40522C44.4009 3.40522 44.3572 3.40682 44.3151 3.41322C44.1759 3.43404 44.0626 3.49809 44.0431 3.64541C44.0253 3.78792 44.1387 3.84717 44.2504 3.8904C44.5418 4.0057 44.8397 4.10177 45.123 4.23148C45.5051 4.40762 45.9099 4.56454 46.2466 4.80793C47.32 5.58455 47.1743 7.03531 45.9843 7.62938C45.3157 7.96244 44.6017 7.99607 43.8748 7.93042C43.4231 7.88878 42.9924 7.76549 42.6119 7.50928C42.1133 7.16501 41.851 6.68302 41.762 6.07774Z" fill="#30253B"/>
<path d="M62.2187 12.3924C61.6845 12.5429 61.1599 12.6934 60.6321 12.8327C60.5932 12.8424 60.5139 12.7911 60.4864 12.7463C60.3196 12.4773 60.0768 12.3716 59.7675 12.4052C59.6283 12.4196 59.5134 12.4821 59.4875 12.6278C59.4616 12.7799 59.583 12.8375 59.6995 12.8856C60.2095 13.0938 60.7276 13.2891 61.2311 13.5117C61.5825 13.667 61.8885 13.8976 62.1167 14.2114C62.7044 15.0217 62.3887 16.1394 61.4367 16.6182C60.7697 16.9544 60.0541 16.9897 59.3288 16.9256C58.8771 16.8856 58.4464 16.7623 58.0644 16.5077C57.5592 16.1698 57.2969 15.6878 57.2014 15.0761C57.7567 14.9496 58.304 14.8263 58.848 14.703C59.0924 15.3035 59.4923 15.5149 60.1027 15.3756C60.2322 15.3451 60.3585 15.3035 60.3763 15.1466C60.3941 14.9897 60.2711 14.9368 60.1561 14.8936C59.719 14.7335 59.277 14.5845 58.8415 14.4196C58.4173 14.2579 58.0255 14.0401 57.7503 13.6686C57.2241 12.9624 57.4524 11.8976 58.2473 11.3596C58.8852 10.9272 59.604 10.8504 60.3504 10.932C60.8393 10.9865 61.2781 11.1642 61.6391 11.5069C61.8982 11.7551 62.0844 12.0513 62.2187 12.3924Z" fill="#30253B"/>
<path d="M72.8423 7.83123C72.0651 7.83123 71.3139 7.83123 70.5546 7.83123C70.5546 5.89689 70.5546 3.96896 70.5546 2.03142C71.288 2.03142 72.0166 2.03142 72.7597 2.03142C72.7597 2.36288 72.7597 2.68954 72.7597 3.0162C72.9216 2.63189 73.1628 2.32605 73.5368 2.12909C73.9076 1.93374 74.2994 1.87609 74.7203 1.92413C74.7203 2.66232 74.7203 3.3909 74.7203 4.11147C74.5163 4.09546 74.3156 4.07464 74.1148 4.06503C73.3215 4.025 72.8876 4.38529 72.8568 5.17632C72.8245 5.99136 72.8439 6.80801 72.8406 7.62466C72.8406 7.69031 72.8423 7.75597 72.8423 7.83123Z" fill="#30253B"/>
<path d="M44.4999 16.8324C43.7308 16.8324 42.9731 16.8324 42.2041 16.8324C42.2041 14.8997 42.2041 12.9718 42.2041 11.0326C42.9667 11.0326 43.7276 11.0326 44.4999 11.0326C44.4999 12.959 44.4999 14.8869 44.4999 16.8324Z" fill="#30253B"/>
<path d="M7.56278 10.1784C7.09327 10.6428 6.62375 11.1055 6.15424 11.5699C6.08948 11.5235 6.02148 11.4818 5.96158 11.4322C5.49854 11.0543 4.96103 10.963 4.38466 11.0383C3.96372 11.0943 3.61401 11.3041 3.29507 11.5715C3.26917 11.5571 3.23679 11.5491 3.21574 11.5299C2.76242 11.0799 2.31071 10.63 1.85901 10.1784C2.37547 9.63557 3.01174 9.29289 3.73868 9.12156C4.93836 8.83973 6.0571 9.03989 7.07222 9.74125C7.25193 9.86455 7.39926 10.0311 7.56278 10.1784Z" fill="#DBDCDB"/>
<path d="M10.8091 10.1784C11.2819 10.6459 11.7546 11.1119 12.2274 11.5795C12.1707 11.6515 12.1092 11.7204 12.0558 11.7941C11.6786 12.3113 11.5539 12.8781 11.7109 13.4994C11.8 13.8485 11.9926 14.1447 12.2258 14.4169C11.8113 14.8317 11.3985 15.2464 10.984 15.6611C10.9241 15.722 10.869 15.786 10.8108 15.8485C10.2004 15.2192 9.79079 14.4906 9.66774 13.6179C9.51718 12.5451 9.72279 11.5539 10.3704 10.6684C10.5015 10.4922 10.6634 10.3417 10.8091 10.1784Z" fill="#DBDCDB"/>
<path d="M15.6751 3.99088C16.3519 3.99248 17.0303 3.99568 17.707 3.99728C17.6989 5.2799 17.1905 6.32713 16.1835 7.13257C15.5181 7.6642 14.7604 7.96043 13.8991 7.98605C13.8198 7.98765 13.7421 8.00527 13.6627 8.01487C13.6643 7.34714 13.666 6.67781 13.6676 6.01008C14.7588 5.98286 15.6994 5.12778 15.6751 3.99088Z" fill="#DBDCDB"/>
<path d="M6.19113 2.58593C6.46313 2.30891 6.7335 2.02869 7.01035 1.75487C7.19492 1.57072 7.3892 1.39458 7.57863 1.21524C7.77291 1.43782 7.99309 1.64278 8.15337 1.88778C8.52575 2.45142 8.71355 3.07752 8.75403 3.75486C8.81879 4.83732 8.49984 5.78367 7.79233 6.60673C7.72919 6.68039 7.65958 6.74604 7.5932 6.81649C7.1674 6.40016 6.74322 5.98223 6.31742 5.5659C6.26561 5.51466 6.21056 5.46662 6.15714 5.41858C6.52627 5.03428 6.73026 4.57311 6.74484 4.04629C6.75779 3.5579 6.59912 3.11755 6.27694 2.73965C6.23647 2.69642 6.21704 2.63877 6.19113 2.58593Z" fill="#DBDCDB"/>
<path d="M42.0711 9.47051C42.0711 9.22231 42.2816 8.90206 42.6782 8.75314C43.1267 8.58661 43.5848 8.585 44.0317 8.75474C44.4024 8.89565 44.6113 9.17427 44.6356 9.57299C44.6615 9.99733 44.498 10.3256 44.1078 10.5145C43.6269 10.7467 43.1299 10.7499 42.6442 10.537C42.2605 10.3704 42.0614 10.0662 42.0711 9.47051Z" fill="#30253B"/>
<path d="M3.70568 4.00288C3.70729 3.44403 4.1509 3.00689 4.71594 3.00528C5.28421 3.00368 5.74886 3.46004 5.74239 4.01088C5.73591 4.56332 5.26154 5.02449 4.70622 5.01648C4.15252 5.00848 3.70244 4.55371 3.70568 4.00288Z" fill="#DC955B"/>
<path d="M3.70566 12.9993C3.70566 12.4373 4.14117 12.0049 4.70944 12.0033C5.29067 12.0017 5.74237 12.4373 5.74075 12.9977C5.74075 13.5406 5.27772 14.0033 4.72887 14.0081C4.17031 14.0145 3.70566 13.5582 3.70566 12.9993Z" fill="#75B5A8"/>
<path d="M14.6781 4.0055C14.6781 4.56114 14.207 5.02871 13.6549 5.0191C13.0964 5.0095 12.6495 4.55954 12.6511 4.0071C12.6527 3.44025 13.0996 2.9999 13.6727 3.0031C14.2345 3.0063 14.6781 3.44825 14.6781 4.0055Z" fill="#562983"/>
<path d="M13.6677 12.0033C14.2424 12.0033 14.6731 12.4277 14.6747 12.9945C14.6763 13.5582 14.2279 14.0049 13.658 14.0081C13.114 14.0113 12.6412 13.5438 12.6445 13.0041C12.6493 12.4357 13.0897 12.0017 13.6677 12.0033Z" fill="#C5D46F"/>
</svg>
