<svg width="146" height="27" viewBox="0 0 146 27" fill="none" xmlns="http://www.w3.org/2000/svg">
<path d="M36.7732 9.95681C36.7732 10.1358 36.6079 10.2617 36.3765 10.2816L34.7041 10.3545C34.4728 10.381 34.2811 10.255 34.2811 10.0761L34.248 8.14089C34.1489 4.80066 33.3292 4.04513 31.6237 4.04513C29.9513 4.04513 28.735 5.47666 28.735 7.57093C28.735 10.0363 30.4405 11.0901 32.2782 12.0776C34.3802 13.2109 36.6079 14.2183 36.6079 16.9819C36.6079 19.8781 34.5389 21.535 31.4585 21.535C27.4196 21.535 26.0446 19.0695 26.1438 16.803V15.895C26.1769 15.7161 26.3752 15.5901 26.5735 15.5901H28.312C28.5433 15.5901 28.7086 15.7426 28.7086 15.895V16.571C28.7086 18.4598 29.5283 19.8184 31.2668 19.8184C32.9722 19.8184 33.9572 18.7647 33.9572 16.9753C33.9572 14.8611 31.432 14.1056 29.1978 12.7735C27.5187 11.7727 26.0116 10.4141 26.0116 7.84928C26.0116 4.15117 28.6028 2.23584 31.6568 2.23584C35.233 2.23584 36.9054 4.04513 36.8062 8.17403L36.7732 9.95681Z" fill="#0B1743"/>
<path d="M54.0727 7.41817L50.3974 21.1038C50.3643 21.2298 50.1991 21.3292 50.0008 21.3292H48.0309C47.8656 21.3292 47.6673 21.2033 47.6343 21.0773L46.028 12.2429C45.9949 12.0905 45.8958 12.0176 45.8297 12.0176C45.7305 12.0176 45.6644 12.0905 45.6313 12.2429L43.6615 21.0972C43.6284 21.2231 43.4632 21.3491 43.2649 21.3491H41.2619C41.0967 21.3491 40.8984 21.2496 40.8653 21.1237L37.9568 8.02127C37.9568 7.99476 37.9568 7.96825 37.9568 7.96825C37.9568 7.86883 38.0559 7.78931 38.1881 7.78931L39.7283 7.73629C39.9267 7.73629 40.0919 7.86221 40.0919 7.98813L42.194 17.9492C42.227 18.1016 42.2931 18.1745 42.3923 18.1745C42.4915 18.1745 42.5576 18.1016 42.5906 17.9492L44.263 9.29374C44.2961 9.1413 44.4944 9.04189 44.6596 9.04189L46.8939 8.98887C47.0592 8.98887 47.2575 9.11479 47.2905 9.24072L49.0621 17.7702C49.0621 17.9227 49.1612 17.9956 49.2604 17.9956C49.3596 17.9956 49.4257 17.9227 49.4587 17.7702L51.9508 7.45131C51.9838 7.29887 52.1491 7.19946 52.3474 7.19946H53.8546C53.9868 7.19946 54.0859 7.27236 54.0859 7.35189C54.0727 7.39166 54.0727 7.41817 54.0727 7.41817Z" fill="#0B1743"/>
<path d="M64.0147 22.012C64.0147 22.0849 63.9156 22.1379 63.8164 22.1644H61.8135C61.7143 22.1644 61.6152 22.0915 61.6152 22.012L61.5821 21.2564C60.498 21.886 59.6784 22.1644 58.7926 22.1644C56.3005 22.1644 54.3967 21.0046 54.3967 17.9096C54.3967 14.788 56.598 13.1776 59.2223 13.1776C59.6453 13.1776 60.3394 13.3035 61.3904 13.7276L61.3574 12.6209C61.2913 10.3808 60.8021 9.59875 59.2553 9.59875C57.6159 9.59875 56.9285 10.858 56.9285 12.1636V12.6673C56.9285 12.7402 56.8624 12.7932 56.7302 12.7932H54.5289C54.4628 12.7932 54.4298 12.7667 54.4298 12.6938V12.369C54.3637 9.95663 56.6641 7.71655 59.4801 7.71655C61.7804 7.71655 63.7437 8.62451 63.7767 11.1363L64.0147 22.012ZM61.4565 16.0207C60.9674 15.4176 60.2072 14.967 59.2553 14.967C57.5168 14.967 56.6971 16.2726 56.6971 17.7107C56.6971 19.0959 57.5498 20.5274 59.1892 20.5274C60.1741 20.5274 61.0269 20.0502 61.5491 19.2947L61.4565 16.0207Z" fill="#0B1743"/>
<path d="M71.2067 21.6074C70.3539 21.6074 69.5673 21.3291 68.6815 20.7525L68.7807 25.8092C68.7807 25.9086 68.6485 26.0081 68.4832 26.0081H66.6125C66.4472 26.0081 66.315 25.9086 66.315 25.8092L66.0176 7.59702C66.0176 7.49761 66.1498 7.39819 66.282 7.39819H68.1858C68.351 7.39819 68.4502 7.4711 68.4502 7.59702L68.4832 9.08156C69.369 8.15372 70.2217 7.69643 71.438 7.69643C74.0623 7.69643 75.8008 9.12796 75.8008 14.7414C75.8008 19.997 73.3352 21.6074 71.2067 21.6074ZM70.8761 9.58525C69.5938 9.58525 68.8402 10.2414 68.5163 10.9969L68.6485 18.5721C68.9459 19.2282 69.4682 19.7517 70.4861 19.7517C72.5552 19.7517 73.3087 18.7444 73.3087 14.6685C73.3021 11.4409 72.8791 9.58525 70.8761 9.58525Z" fill="#0B1743"/>
<path d="M91.679 20.3284C91.679 20.4808 91.5138 20.6332 91.2824 20.6332L89.7422 20.6863C89.5109 20.6863 89.3456 20.5603 89.3456 20.4079L89.2531 5.90707C89.2531 5.83417 89.2531 5.78115 89.2531 5.78115C89.22 5.78115 89.22 5.83417 89.187 5.90707L85.743 19.5927C85.7099 19.7717 85.5116 19.8976 85.2869 19.8976L83.7797 19.8446C83.5484 19.8181 83.3236 19.6922 83.2906 19.5198L79.6351 6.0595C79.6351 5.9866 79.602 5.93358 79.602 5.93358C79.569 5.93358 79.569 5.9866 79.569 6.0595L79.7342 21.2032C79.7342 21.3821 79.569 21.5081 79.3376 21.5081H77.8966C77.6652 21.5081 77.4999 21.3821 77.4999 21.2032L77.3016 3.44166C77.3016 3.26272 77.4669 3.1368 77.6983 3.1368L80.7853 2.98436C80.8183 2.98436 80.8183 2.98436 80.8183 2.98436C81.0166 2.98436 81.2414 3.11029 81.2744 3.26272L84.5201 15.3114C84.5201 15.3843 84.5531 15.4108 84.5862 15.4108C84.6192 15.4108 84.6523 15.3843 84.6523 15.2849L87.8715 2.52707C87.9046 2.34813 88.1029 2.22221 88.3276 2.22221L91.1833 2.16919C91.1833 2.16919 91.1833 2.16919 91.2163 2.16919C91.4146 2.16919 91.5799 2.32162 91.5799 2.47405L91.679 20.3284Z" fill="#0B1743"/>
<path d="M99.2266 22.6877C98.6053 24.8748 96.8667 26.1605 94.7316 26.1605C93.9119 26.1605 93.5484 26.008 93.5484 25.8357L93.4823 24.656C93.4823 24.5036 93.6145 24.3512 93.7467 24.3512C93.8789 24.3512 93.978 24.4771 94.6655 24.4771C96.014 24.4771 96.7015 23.2974 97.1576 21.9852L97.3559 21.3556L93.1584 8.12057C93.1253 7.99465 93.2245 7.84222 93.4228 7.84222L95.3596 7.71629C95.5249 7.71629 95.7232 7.81571 95.7562 7.96814L98.5788 17.452L100.939 7.84222C100.972 7.68978 101.137 7.59037 101.335 7.59037L103.14 7.53735C103.338 7.53735 103.437 7.63677 103.404 7.7892L99.2266 22.6877Z" fill="#0B1743"/>
<path d="M112.752 12.0244V12.3028C114.854 12.9854 115.805 14.344 115.805 15.9479C115.805 18.3868 113.247 20.6799 109.308 20.5274C109.308 20.5274 108.223 20.5274 105.302 20.375C105.103 20.375 104.971 20.2491 104.971 20.1231L105.037 2.10975C105.037 1.98383 105.17 1.85791 105.335 1.85791C107.926 1.85791 109.896 1.88442 109.896 1.88442C113.571 1.91093 115.964 4.07148 115.964 6.84175C115.964 9.68492 114.854 11.5671 112.752 12.0244ZM110.55 3.69371H107.992C107.662 3.69371 107.437 3.94556 107.437 4.17089L107.371 10.6128C107.371 10.8646 107.635 11.0634 107.959 11.0634L110.028 11.0369C112.295 11.0104 113.34 9.6783 113.34 7.36532C113.34 4.62818 112.13 3.69371 110.55 3.69371ZM110.326 12.9788L107.999 12.9523C107.668 12.9523 107.41 13.1511 107.41 13.4029V18.0355C107.41 18.2608 107.642 18.5127 107.966 18.5392L110.134 18.5922C111.482 18.6452 113.089 17.7638 113.089 15.7225C113.082 13.7078 111.37 13.0053 110.326 12.9788Z" fill="#0B1743"/>
<path d="M119.151 6.63631C118.266 6.63631 117.545 6.0796 117.545 5.4036C117.545 4.7276 118.266 4.1709 119.151 4.1709C120.037 4.1709 120.758 4.7276 120.758 5.4036C120.758 6.0796 120.037 6.63631 119.151 6.63631ZM120.434 21.833C120.434 21.9855 120.269 22.1379 120.037 22.1379L118.431 22.1644C118.199 22.1644 118.034 22.0385 118.034 21.8595L117.968 8.55164C117.968 8.3727 118.133 8.24678 118.365 8.24678L119.905 8.2998C120.103 8.2998 120.302 8.42572 120.302 8.60466L120.434 21.833Z" fill="#0B1743"/>
<path d="M125.384 21.0775C125.417 21.23 125.219 21.3824 125.02 21.3824L123.381 21.4089C123.183 21.4089 122.984 21.283 122.984 21.104L122.753 2.96472C122.753 2.81229 122.918 2.65986 123.15 2.68637L124.69 2.71288C124.921 2.71288 125.087 2.86531 125.087 3.01774L125.384 21.0775Z" fill="#0B1743"/>
<path d="M130.177 21.0775C130.21 21.23 130.011 21.3824 129.813 21.3824L128.174 21.4089C127.975 21.4089 127.777 21.283 127.777 21.104L127.546 2.96472C127.546 2.81229 127.711 2.65986 127.942 2.68637L129.482 2.71288C129.714 2.71288 129.879 2.86531 129.879 3.01774L130.177 21.0775Z" fill="#0B1743"/>
<path d="M141.336 12.9059C141.336 13.0319 141.17 13.1313 141.005 13.1313L139.333 13.1048C138.877 13.1048 139.002 12.6011 139.002 12.4288C139.035 10.4405 138.87 8.92948 136.966 8.92948C135.75 8.92948 134.765 9.71151 134.765 10.9906C134.765 12.5746 135.882 13.2307 137.191 13.7808C138.963 14.5628 141.065 15.1659 141.065 17.8036C141.065 19.8184 138.996 21.2035 136.57 21.2035C133.846 21.2035 131.942 19.8449 132.075 17.4325C132.075 17.2535 131.975 16.73 132.471 16.73L134.243 16.783C134.573 16.783 134.606 16.8095 134.606 17.0083V17.2867C134.639 18.3935 134.97 19.5268 136.477 19.5268C137.726 19.5268 138.546 18.8243 138.546 17.8434C138.546 16.2859 136.642 15.9811 134.937 15.1792C133.529 14.5032 132.213 13.4693 132.213 11.0768C132.213 8.83669 134.216 7.15332 137.105 7.15332C140.483 7.15332 141.501 8.98912 141.369 11.8323L141.336 12.9059Z" fill="#0B1743"/>
<path d="M145.195 4.07116C145.632 4.50857 145.85 5.03876 145.85 5.65512C145.85 6.27147 145.632 6.80166 145.195 7.23907C144.759 7.67649 144.23 7.90182 143.609 7.90182C142.988 7.90182 142.459 7.68311 142.029 7.2457C141.599 6.80829 141.381 6.28472 141.381 5.66837C141.381 5.05202 141.599 4.52182 142.036 4.07778C142.472 3.63374 143.001 3.41504 143.615 3.41504C144.23 3.41504 144.759 3.63374 145.195 4.07116ZM144.898 6.88782C145.228 6.54319 145.394 6.13229 145.394 5.64849C145.394 5.16468 145.222 4.74716 144.871 4.40253C144.521 4.0579 144.105 3.87896 143.615 3.87896C143.126 3.87896 142.71 4.0579 142.36 4.40916C142.009 4.76041 141.837 5.17794 141.837 5.66837C141.837 6.1588 142.009 6.57633 142.353 6.92096C142.697 7.26558 143.113 7.44452 143.615 7.44452C144.111 7.44452 144.534 7.26558 144.885 6.9077H144.164L143.629 6.13229H143.358V6.9077H142.677V4.38927H143.675C144.072 4.38927 144.356 4.45555 144.521 4.59472C144.693 4.7339 144.772 4.95261 144.772 5.25084C144.772 5.62198 144.607 5.87382 144.27 6.01962L144.898 6.88782ZM144.012 5.48943C144.072 5.43641 144.098 5.35688 144.098 5.24421C144.098 5.13155 144.072 5.05202 144.006 5.00563C143.946 4.95923 143.84 4.93935 143.695 4.93935H143.358V5.56896H143.688C143.84 5.56896 143.953 5.54245 144.012 5.48943Z" fill="#0B1743"/>
<path fill-rule="evenodd" clip-rule="evenodd" d="M5.78616 7.49677C6.82662 6.8372 8.51736 6.40058 11.4529 6.40987L10.9884 4.94208C10.9884 4.85847 11.0256 4.82131 11.0999 4.80273L15.0945 7.06944C15.2618 7.15305 15.2618 7.26453 15.1224 7.39459L11.871 10.2651C11.6945 10.2651 11.5644 10.2001 11.518 10.0329L11.713 8.19351C10.2267 8.25854 8.61026 8.90882 6.85449 10.0329L5.78616 7.49677Z" fill="#0B1743"/>
<path fill-rule="evenodd" clip-rule="evenodd" d="M15.2237 15.0496C14.1832 15.7092 12.4925 16.1458 9.55689 16.1365L10.0214 17.6043C10.0214 17.6879 9.98423 17.7251 9.90991 17.7436L5.9153 15.4769C5.74808 15.3933 5.74808 15.2819 5.88743 15.1518L9.13885 12.2812C9.31536 12.2812 9.44542 12.3463 9.49187 12.5135L9.29678 14.3529C10.7831 14.2878 12.3996 13.6376 14.1553 12.5135L15.2237 15.0496Z" fill="#0B1743"/>
<path d="M20.0172 0.956848L20.008 0.86395C20.008 0.640996 19.9336 0.43662 19.7757 0.278694C19.6085 0.102188 19.3763 0 19.1254 0C19.0976 0 19.0418 0 19.0047 0.00928979C18.9303 0.00928979 18.8467 0.0185796 18.7724 0.0278694C12.6504 1.25412 6.56563 1.73719 0.917441 2.07162C0.675907 2.08091 0.443662 2.1831 0.304315 2.32245C0.08136 2.51753 -0.0301175 2.79623 0.00704167 3.06563C0.313605 6.33564 0.601588 8.62092 0.880282 10.8319C1.27045 13.9997 1.61418 16.7402 1.91145 21.4501C1.92074 21.6638 2.01364 21.8589 2.14369 21.9889C2.31091 22.1933 2.57102 22.3048 2.82185 22.3048C2.8683 22.3048 2.90546 22.3048 2.95191 22.2955C9.2318 21.6359 14.4805 21.1343 19.9708 21.3201C20.3888 21.3572 20.7883 21.0878 20.8533 20.7627C20.9184 20.6233 20.9369 20.4747 20.9276 20.3261C20.2867 12.2625 20.1194 9.51274 20.0172 0.956848ZM18.9118 19.5086C13.7374 19.3878 8.6001 19.8616 3.75083 20.3818C3.47213 16.1735 3.15628 13.7303 2.80327 10.9155C2.54315 8.90891 2.28304 6.828 1.99506 3.84597C6.45416 3.56728 12.2231 3.10279 18.085 2.01588C18.1779 9.62422 18.3451 12.1046 18.9118 19.5086Z" fill="#0B1743"/>
</svg>
