<svg width="10" height="11" viewBox="0 0 10 11" fill="none" xmlns="http://www.w3.org/2000/svg">
<path d="M8.92857 4.8125H8.39286V3.26562C8.39286 1.46523 6.87054 0 5 0C3.12946 0 1.60714 1.46523 1.60714 3.26562V4.8125H1.07143C0.479911 4.8125 0 5.27441 0 5.84375V9.96875C0 10.5381 0.479911 11 1.07143 11H8.92857C9.52009 11 10 10.5381 10 9.96875V5.84375C10 5.27441 9.52009 4.8125 8.92857 4.8125ZM5.89286 8.42188C5.89286 8.89668 5.4933 9.28125 5 9.28125C4.5067 9.28125 4.10714 8.89668 4.10714 8.42188V7.39062C4.10714 6.91582 4.5067 6.53125 5 6.53125C5.4933 6.53125 5.89286 6.91582 5.89286 7.39062V8.42188ZM6.60714 4.8125H3.39286V3.26562C3.39286 2.4127 4.11384 1.71875 5 1.71875C5.88616 1.71875 6.60714 2.4127 6.60714 3.26562V4.8125Z" fill="black"/>
</svg>
