<?xml version="1.0" encoding="utf-8"?>
<!-- Generator: Adobe Illustrator 26.3.1, SVG Export Plug-In . SVG Version: 6.00 Build 0)  -->
<svg version="1.1" id="Warstwa_1" xmlns="http://www.w3.org/2000/svg" xmlns:xlink="http://www.w3.org/1999/xlink" x="0px" y="0px"
	 viewBox="0 0 481 512" style="enable-background:new 0 0 481 512;" xml:space="preserve">
<style type="text/css">
	.st0{fill:#0B1743;}
	.st1{fill-rule:evenodd;clip-rule:evenodd;fill:#0B1743;}
</style>
<path class="st0" d="M459.5,22l-0.2-2.1c0-5.1-1.7-9.8-5.3-13.4C450.1,2.3,444.8,0,439,0c-0.6,0-1.9,0-2.8,0.2
	c-1.7,0-3.6,0.2-5.3,0.4C290.4,28.8,150.7,39.9,21.1,47.6c-5.5,0.2-10.9,2.6-14.1,5.8c-5.1,4.5-7.7,10.9-6.8,17.1
	c7,75.1,13.6,127.5,20,178.3c9,72.7,16.8,135.6,23.7,243.7c0.2,4.9,2.3,9.4,5.3,12.4c3.8,4.7,9.8,7.2,15.6,7.2c1.1,0,1.9,0,3-0.2
	c144.2-15.1,264.6-26.7,390.7-22.4c9.6,0.9,18.8-5.3,20.3-12.8c1.5-3.2,1.9-6.6,1.7-10C465.7,281.5,461.8,218.4,459.5,22z
	 M434.1,447.8c-118.8-2.8-236.7,8.1-348,20c-6.4-96.6-13.6-152.7-21.8-217.3c-6-46.1-11.9-93.8-18.6-162.3
	c102.4-6.4,234.8-17.1,369.3-42C417.3,220.9,421.1,277.9,434.1,447.8z"/>
<path class="st1" d="M132.2,180.5c23.9-15.1,62.7-25.2,130.1-24.9l-10.7-33.7c0-1.9,0.9-2.8,2.6-3.2l91.7,52
	c3.8,1.9,3.8,4.5,0.6,7.5l-74.6,65.9c-4.1,0-7-1.5-8.1-5.3l4.5-42.2c-34.1,1.5-71.2,16.4-111.5,42.2L132.2,180.5z"/>
<g>
	<path class="st1" d="M354.3,332.5c-23.9,15.1-62.7,25.2-130.1,24.9l10.7,33.7c0,1.9-0.9,2.8-2.6,3.2l-91.7-52
		c-3.8-1.9-3.8-4.5-0.6-7.5l74.6-65.9c4.1,0,7,1.5,8.1,5.3l-4.5,42.2c34.1-1.5,71.2-16.4,111.5-42.2L354.3,332.5z"/>
</g>
</svg>
