<svg width="39" height="23" viewBox="0 0 39 23" fill="none" xmlns="http://www.w3.org/2000/svg">
<path d="M8.98475 11.6627C8.97339 11.674 8.95067 11.7006 8.93931 11.7119C9.03398 11.9544 8.9128 12.2082 8.89765 12.4544C8.8825 12.8977 8.74996 13.3295 8.76511 13.7766C8.76132 13.9205 8.73102 14.0645 8.69315 14.2009C8.71588 14.2084 8.75753 14.2198 8.77647 14.2274C8.60226 14.3297 8.46215 14.4812 8.2728 14.557C8.14404 14.6024 7.98498 14.5191 7.98877 14.3713C7.96605 13.7463 8.06451 13.125 8.07966 12.4999C8.10238 12.1817 8.10617 11.818 8.34096 11.5718C8.46593 11.4543 8.63256 11.3331 8.81434 11.3596C8.95067 11.3937 8.9431 11.5566 8.98475 11.6627Z" fill="#FF0606"/>
<path d="M8.76133 10.4385C8.64393 10.4234 8.51138 10.359 8.51138 10.2188C8.51517 9.93468 8.74996 9.71875 8.98855 9.6051C9.06807 9.56722 9.15517 9.58237 9.24227 9.58995C9.27636 9.7036 9.3521 9.82482 9.30287 9.94605C9.21198 10.1847 8.9734 10.3173 8.76133 10.4385Z" fill="#FF0606"/>
<path d="M7.44708 11.8404C7.37513 11.9919 7.43193 12.17 7.35619 12.3177C7.32211 12.4655 7.28803 12.6132 7.28045 12.7648C7.23501 12.9466 7.20093 13.1322 7.17442 13.3179C7.27667 13.4656 7.18199 13.6323 7.1214 13.7762C7.09489 13.9164 7.05323 14.0679 7.11382 14.2043C7.03808 14.3142 7.01157 14.4506 6.99264 14.5794C6.89796 15.3105 6.82222 16.0417 6.69725 16.769C6.66696 16.9168 6.63287 17.0986 6.48518 17.1744C6.32613 17.2729 6.07997 17.2236 6.01559 17.0304C5.85275 16.4319 5.80731 15.8068 5.65961 15.2044C5.64447 14.9317 5.58009 14.6665 5.54979 14.3937C5.46269 13.8482 5.39831 13.2989 5.29606 12.7572C5.26198 12.4731 5.23168 12.1889 5.16352 11.9124C5.11807 11.7949 5.10671 11.6661 5.09535 11.5411C5.05748 11.507 5.0234 11.4729 4.98553 11.4351C4.85298 11.6548 4.74695 11.8859 4.68257 12.1321C4.6144 12.4124 4.47049 12.6663 4.37582 12.939C4.26221 13.0602 4.08043 13.1284 3.92138 13.0565C3.80398 12.9958 3.71309 12.8557 3.76232 12.7193C3.9744 12.0298 4.25085 11.3631 4.44777 10.6698C4.56138 10.3402 4.66363 10.0069 4.78103 9.68105C4.84162 9.49921 5.03476 9.36662 5.22789 9.40072C5.41346 9.40829 5.53843 9.58635 5.57251 9.75682C5.64825 10.1129 5.68612 10.4766 5.75808 10.8327C5.85275 11.2115 5.84139 11.6093 5.96257 11.9806C6.00044 12.0904 6.03074 12.2041 6.05346 12.3177C6.06482 12.5185 6.11405 12.7117 6.16707 12.9049C6.13678 13.0489 6.14056 13.1928 6.20494 13.3292C6.22388 13.5755 6.22009 13.8331 6.32613 14.0642C6.40187 13.8558 6.39808 13.6285 6.43974 13.4126C6.57228 12.5716 6.70483 11.7268 6.89418 10.8971C7.11004 9.99927 7.35998 9.10901 7.59856 8.21497C7.92424 7.28682 8.26129 6.36247 8.60969 5.43812C8.76875 5.04792 8.87857 4.59711 9.23076 4.32814C9.54508 4.05916 10.1056 4.26752 10.1662 4.67666C10.2419 4.94563 10.0791 5.18809 9.93136 5.39266C9.56402 5.69194 9.3065 6.10487 9.12094 6.54052C9.01111 6.80192 8.88236 7.05195 8.8104 7.3285C8.64756 7.68081 8.52259 8.04449 8.40141 8.41196C8.32188 8.73397 8.23856 9.05598 8.12117 9.36662C8.05679 9.52952 8.07194 9.70757 8.03028 9.87426C7.68945 10.488 7.57584 11.1737 7.44708 11.8404Z" fill="#FF0606"/>
<path d="M9.81812 10.8555C9.94309 10.7381 10.1135 10.6964 10.2763 10.6737C10.4771 10.6472 10.6475 10.5259 10.8368 10.4615C11.1133 10.3441 11.2799 10.7835 11.1095 10.9654C10.9201 11.1699 10.6399 11.2912 10.5111 11.5564C10.2953 12.0754 10.3748 12.6474 10.3142 13.1929C10.2915 13.5073 9.97717 13.7384 9.678 13.746C9.48486 13.6854 9.48865 13.4429 9.50001 13.2763C9.5303 12.977 9.50758 12.6777 9.53788 12.3822C9.60226 12.045 9.59847 11.7041 9.61741 11.3631C9.63634 11.1775 9.67042 10.9767 9.81812 10.8555Z" fill="#FF0606"/>
<path d="M14.3284 11.3972C14.2413 11.276 14.2905 11.1207 14.2943 10.9843C14.3662 10.3289 14.4079 9.66595 14.5063 9.01436C14.5556 8.73402 14.8434 8.43095 15.1464 8.56355C15.2675 8.88555 15.1009 9.21135 15.1312 9.54094C15.1426 9.80612 15.1312 10.0713 15.1009 10.3327C15.0479 10.5486 15.0744 10.7759 15.0668 10.9957C15.029 11.1889 14.851 11.3177 14.6843 11.3972C14.5745 11.4578 14.4268 11.4957 14.3284 11.3972Z" fill="#FF0606"/>
<path d="M14.745 7.62782C14.7223 7.26792 15.1388 6.9838 15.4721 7.08987C15.4986 7.15427 15.5251 7.21868 15.5516 7.28687C15.457 7.5028 15.3093 7.71495 15.0896 7.81344C14.9533 7.84375 14.7564 7.7945 14.745 7.62782Z" fill="#FF0606"/>
<path d="M19.9595 9.74523C19.8724 9.88161 19.8005 10.0369 19.6641 10.1354C19.4369 10.3135 19.1491 10.3665 18.8802 10.4536C18.4106 10.609 17.9638 10.8173 17.532 11.0522C16.3088 11.6849 15.1084 12.3668 13.9647 13.1358C13.8359 13.2229 13.7185 13.329 13.5936 13.4237C13.5708 13.8783 13.5557 14.3367 13.5519 14.7913C13.5368 15.1209 13.5708 15.458 13.5178 15.7876C13.5405 15.9202 13.5557 16.0604 13.5102 16.193C13.5292 16.2346 13.5443 16.2763 13.5633 16.3218C13.5481 16.3407 13.5254 16.3786 13.5102 16.3975C13.5178 16.4506 13.5254 16.5036 13.5216 16.5604C13.533 16.8029 13.6504 17.0378 13.5973 17.2802C13.6125 17.2954 13.639 17.3295 13.6542 17.3446C13.6731 17.409 13.6958 17.4772 13.7185 17.5416C13.6844 17.6098 13.6542 17.678 13.6239 17.7462C13.6504 17.7651 13.7072 17.7954 13.7337 17.8106C13.745 17.8447 13.7602 17.875 13.7716 17.9091C13.7564 17.9394 13.7223 17.9962 13.7072 18.0227C13.7375 18.0644 13.7678 18.1099 13.7981 18.1553C13.7791 18.2235 13.764 18.2917 13.7602 18.3637C13.6882 18.5001 13.5784 18.6251 13.4231 18.663C13.23 18.6971 12.9914 18.6365 12.8968 18.4508C12.7377 18.0985 12.8134 17.7045 12.8134 17.3295C12.8627 16.1968 12.8513 15.0603 12.8702 13.9276C12.6241 14.0564 12.4158 14.242 12.1962 14.4125C11.5259 14.9239 10.8896 15.4694 10.2345 15.9998C10.0679 16.1248 9.94668 16.2915 9.79141 16.4279C9.5036 16.6552 9.28016 16.9469 9.02265 17.2045C8.71969 17.4962 8.45838 17.822 8.14406 18.1023C7.94335 18.3523 7.45483 18.2425 7.40181 17.9167C7.36773 17.8068 7.38666 17.6894 7.45861 17.5984C7.71992 17.2423 8.06453 16.962 8.38264 16.6552C8.7462 16.3028 9.14383 15.9846 9.53011 15.6588C9.98076 15.2724 10.4428 14.9049 10.901 14.5337C11.2456 14.2837 11.5902 14.0336 11.9349 13.7836C12.2416 13.5525 12.5408 13.3138 12.8589 13.1017C12.8665 12.9539 12.8627 12.8024 12.8589 12.6547C12.5786 12.8706 12.2302 12.9918 11.878 12.9691C11.6849 12.9426 11.4918 12.81 11.4425 12.613C11.3592 12.3251 11.4198 12.0182 11.3933 11.7227C11.4312 11.2833 11.4463 10.8287 11.6319 10.4233C11.7909 10.1051 12.0106 9.79069 12.3476 9.65052C12.465 9.60885 12.6089 9.55581 12.7263 9.63915C12.8059 9.81342 12.7074 10.0218 12.5824 10.1506C12.4158 10.3211 12.3287 10.5446 12.2492 10.7643C12.1999 10.912 12.1545 11.0636 12.1924 11.2189C12.1621 11.4613 12.1166 11.7038 12.1469 11.9462C12.1659 12.0485 12.2113 12.1698 12.3287 12.1925C12.5786 12.2001 12.8097 11.9917 12.8475 11.7455C12.9763 11.0105 12.999 10.2642 13.0747 9.52172C13.1088 9.2035 13.6314 9.05196 13.7905 9.35124C13.8321 9.79069 13.7375 10.2301 13.7185 10.6696C13.692 11.0939 13.6276 11.5144 13.6352 11.9387C13.6314 12.1622 13.6087 12.3819 13.6125 12.6054C14.2449 12.2076 14.8622 11.7909 15.5249 11.4462C16.2104 11.0333 16.9261 10.662 17.6154 10.2491C17.5283 10.1771 17.4222 10.1013 17.4071 9.9801C17.3768 9.76796 17.4109 9.55202 17.4147 9.33609C17.4071 8.96104 17.4828 8.58221 17.4449 8.20716C17.4222 8.09351 17.2973 8.08972 17.2064 8.0973C16.9829 8.16549 16.8693 8.389 16.7178 8.54433C16.6762 8.68828 16.6497 8.83224 16.608 8.9762C16.5701 9.04817 16.5891 9.12015 16.608 9.19213C16.5815 9.22623 16.555 9.26032 16.5285 9.29442C16.5512 9.34745 16.5739 9.40049 16.5967 9.45353C16.5777 9.46868 16.5436 9.49899 16.5247 9.51414C16.5171 9.63537 16.5096 9.75659 16.5247 9.87403C16.5285 9.93464 16.5323 9.99147 16.5399 10.0521C16.5323 10.1316 16.5285 10.2112 16.5285 10.2907C16.4641 10.4082 16.4376 10.5597 16.3051 10.6241C16.1687 10.7037 16.0059 10.7984 15.8468 10.7378C15.7105 10.6847 15.7219 10.5105 15.7256 10.3892C15.7635 9.76417 15.7787 9.13909 15.8165 8.51402C15.8279 8.29051 15.9415 8.05942 16.1498 7.95335C16.3505 7.85485 16.5853 7.86243 16.8012 7.89273C17.0359 7.83212 17.142 7.58209 17.3351 7.45328C17.5207 7.32448 17.7744 7.21841 17.9941 7.32448C18.1115 7.37373 18.1418 7.50253 18.1796 7.6124C18.1872 7.67301 18.1986 7.73362 18.2061 7.79045C18.1683 7.88137 18.1721 7.97229 18.1986 8.06321C18.1986 8.13518 18.2023 8.20338 18.2023 8.27535L18.1758 8.29051C18.1304 8.66555 18.1986 9.0406 18.1721 9.41564C18.1948 9.5596 18.2289 9.74902 18.3841 9.80584C18.7022 9.73007 18.9673 9.52929 19.2627 9.3967C19.4331 9.31715 19.6263 9.33988 19.8043 9.37776C19.9103 9.47247 19.9557 9.61642 19.9595 9.74523Z" fill="#FF0606"/>
<path d="M30.2601 11.4503C30.2639 11.2343 30.2715 10.9957 30.1238 10.8214C29.8701 10.5183 29.3323 10.5486 29.1127 10.8782C28.9006 10.5297 28.3553 10.5335 28.1205 10.8479C28.1167 10.7684 28.1091 10.6471 27.9955 10.6623C27.8895 10.6737 27.6887 10.6055 27.6774 10.7646C27.6736 11.2684 27.6698 11.7685 27.6812 12.2723C27.6887 12.3784 27.8251 12.3519 27.897 12.3557C27.9728 12.3481 28.1129 12.3822 28.128 12.2723C28.1546 11.9314 28.1091 11.5866 28.1508 11.2457C28.2114 10.9805 28.6506 10.9464 28.7302 11.2154C28.7832 11.5753 28.7188 11.9465 28.7605 12.3102C28.8286 12.3633 28.9195 12.3443 28.9991 12.3519C29.0672 12.3443 29.1657 12.367 29.196 12.2875C29.2225 11.9617 29.1884 11.6359 29.2073 11.3101C29.2111 11.1245 29.408 10.9881 29.586 11.0335C29.6996 11.0487 29.7905 11.151 29.8019 11.2646C29.8246 11.598 29.7905 11.9314 29.817 12.2648C29.8284 12.3746 29.9647 12.3443 30.0405 12.3519C30.1124 12.3443 30.245 12.3708 30.2526 12.2648C30.2677 11.9958 30.2526 11.723 30.2601 11.4503ZM31.862 10.7722C31.5477 10.5449 31.0705 10.5562 30.7865 10.8214C30.3624 11.1964 30.4078 11.9844 30.9039 12.2761C31.3091 12.5337 31.9756 12.4011 32.1271 11.9049C32.0476 11.7988 31.8961 11.8026 31.7787 11.7647C31.6878 11.8859 31.5742 12.0109 31.4114 12.0071C31.1766 12.0337 30.9721 11.8518 30.938 11.6245C31.294 11.6207 31.65 11.6245 32.0021 11.6245C32.0665 11.6207 32.165 11.6359 32.165 11.5412C32.1801 11.2608 32.093 10.9464 31.862 10.7722ZM30.9456 11.3177C30.9872 11.1055 31.1917 10.9426 31.4114 10.9919C31.5856 11.007 31.6954 11.1586 31.7257 11.3215C31.4644 11.3177 31.2069 11.3177 30.9456 11.3177ZM34.1153 9.91978C34.0093 9.82128 33.8123 9.85537 33.6798 9.89705C33.6609 10.2001 33.6684 10.5032 33.676 10.8062C33.3844 10.5145 32.8656 10.5789 32.6043 10.8782C32.3203 11.2002 32.3051 11.7268 32.555 12.0716C32.7936 12.4163 33.3806 12.5262 33.6684 12.1852C33.6836 12.2382 33.6684 12.314 33.7252 12.3443C33.8578 12.3633 33.9941 12.3519 34.1267 12.3329C34.1077 11.5298 34.1456 10.7229 34.1153 9.91978ZM33.2291 11.9844C32.7747 11.9579 32.7103 11.2192 33.1117 11.0639C33.2443 11.0108 33.4033 11.0298 33.5169 11.1169C33.8313 11.3631 33.676 12.0337 33.2291 11.9844ZM34.9636 10.7229C34.8689 10.6093 34.6833 10.6737 34.5546 10.6737C34.547 10.6888 34.5281 10.7153 34.5205 10.7305C34.5054 11.1964 34.5205 11.6662 34.5129 12.136C34.5205 12.2041 34.4902 12.3026 34.566 12.3443C34.6796 12.3633 34.797 12.3633 34.9106 12.3443C35.0015 12.3178 34.9636 12.2041 34.9749 12.136C34.9674 11.6662 34.9825 11.1927 34.9636 10.7229ZM34.6038 9.85916C34.4296 9.94629 34.4031 10.2191 34.5697 10.3327C34.7326 10.4691 35.0166 10.3441 35.0242 10.1319C35.0507 9.91599 34.7894 9.74551 34.6038 9.85916ZM36.9821 10.7115C36.8609 10.6168 36.6905 10.6812 36.5466 10.6774C36.5466 10.7115 36.5428 10.7797 36.539 10.8138C36.289 10.5524 35.8422 10.5752 35.5733 10.7911C35.1946 11.0904 35.1492 11.7003 35.4256 12.0829C35.6718 12.4352 36.255 12.5299 36.5541 12.189C36.5541 12.2269 36.5503 12.3026 36.5466 12.3405C36.6905 12.3595 36.8419 12.3746 36.9858 12.3443C36.9896 11.795 37.001 11.2495 36.9821 10.7115ZM36.0997 11.9844C35.6225 11.9655 35.5695 11.1623 36.0202 11.0487C36.1451 11.0146 36.2853 11.0373 36.3875 11.1207C36.6905 11.3707 36.5428 12.0261 36.0997 11.9844ZM36.9821 10.7115C36.8609 10.6168 36.6905 10.6812 36.5466 10.6774C36.5466 10.7115 36.5428 10.7797 36.539 10.8138C36.289 10.5524 35.8422 10.5752 35.5733 10.7911C35.1946 11.0904 35.1492 11.7003 35.4256 12.0829C35.6718 12.4352 36.255 12.5299 36.5541 12.189C36.5541 12.2269 36.5503 12.3026 36.5466 12.3405C36.6905 12.3595 36.8419 12.3746 36.9858 12.3443C36.9896 11.795 37.001 11.2495 36.9821 10.7115ZM36.0997 11.9844C35.6225 11.9655 35.5695 11.1623 36.0202 11.0487C36.1451 11.0146 36.2853 11.0373 36.3875 11.1207C36.6905 11.3707 36.5428 12.0261 36.0997 11.9844ZM34.6038 9.85916C34.4296 9.94629 34.4031 10.2191 34.5697 10.3327C34.7326 10.4691 35.0166 10.3441 35.0242 10.1319C35.0507 9.91599 34.7894 9.74551 34.6038 9.85916ZM34.9636 10.7229C34.8689 10.6093 34.6833 10.6737 34.5546 10.6737C34.547 10.6888 34.5281 10.7153 34.5205 10.7305C34.5054 11.1964 34.5205 11.6662 34.5129 12.136C34.5205 12.2041 34.4902 12.3026 34.566 12.3443C34.6796 12.3633 34.797 12.3633 34.9106 12.3443C35.0015 12.3178 34.9636 12.2041 34.9749 12.136C34.9674 11.6662 34.9825 11.1927 34.9636 10.7229ZM34.1153 9.91978C34.0093 9.82128 33.8123 9.85537 33.6798 9.89705C33.6609 10.2001 33.6684 10.5032 33.676 10.8062C33.3844 10.5145 32.8656 10.5789 32.6043 10.8782C32.3203 11.2002 32.3051 11.7268 32.555 12.0716C32.7936 12.4163 33.3806 12.5262 33.6684 12.1852C33.6836 12.2382 33.6684 12.314 33.7252 12.3443C33.8578 12.3633 33.9941 12.3519 34.1267 12.3329C34.1077 11.5298 34.1456 10.7229 34.1153 9.91978ZM33.2291 11.9844C32.7747 11.9579 32.7103 11.2192 33.1117 11.0639C33.2443 11.0108 33.4033 11.0298 33.5169 11.1169C33.8313 11.3631 33.676 12.0337 33.2291 11.9844ZM31.862 10.7722C31.5477 10.5449 31.0705 10.5562 30.7865 10.8214C30.3624 11.1964 30.4078 11.9844 30.9039 12.2761C31.3091 12.5337 31.9756 12.4011 32.1271 11.9049C32.0476 11.7988 31.8961 11.8026 31.7787 11.7647C31.6878 11.8859 31.5742 12.0109 31.4114 12.0071C31.1766 12.0337 30.9721 11.8518 30.938 11.6245C31.294 11.6207 31.65 11.6245 32.0021 11.6245C32.0665 11.6207 32.165 11.6359 32.165 11.5412C32.1801 11.2608 32.093 10.9464 31.862 10.7722ZM30.9456 11.3177C30.9872 11.1055 31.1917 10.9426 31.4114 10.9919C31.5856 11.007 31.6954 11.1586 31.7257 11.3215C31.4644 11.3177 31.2069 11.3177 30.9456 11.3177ZM30.2601 11.4503C30.2639 11.2343 30.2715 10.9957 30.1238 10.8214C29.8701 10.5183 29.3323 10.5486 29.1127 10.8782C28.9006 10.5297 28.3553 10.5335 28.1205 10.8479C28.1167 10.7684 28.1091 10.6471 27.9955 10.6623C27.8895 10.6737 27.6887 10.6055 27.6774 10.7646C27.6736 11.2684 27.6698 11.7685 27.6812 12.2723C27.6887 12.3784 27.8251 12.3519 27.897 12.3557C27.9728 12.3481 28.1129 12.3822 28.128 12.2723C28.1546 11.9314 28.1091 11.5866 28.1508 11.2457C28.2114 10.9805 28.6506 10.9464 28.7302 11.2154C28.7832 11.5753 28.7188 11.9465 28.7605 12.3102C28.8286 12.3633 28.9195 12.3443 28.9991 12.3519C29.0672 12.3443 29.1657 12.367 29.196 12.2875C29.2225 11.9617 29.1884 11.6359 29.2073 11.3101C29.2111 11.1245 29.408 10.9881 29.586 11.0335C29.6996 11.0487 29.7905 11.151 29.8019 11.2646C29.8246 11.598 29.7905 11.9314 29.817 12.2648C29.8284 12.3746 29.9647 12.3443 30.0405 12.3519C30.1124 12.3443 30.245 12.3708 30.2526 12.2648C30.2677 11.9958 30.2526 11.723 30.2601 11.4503ZM30.2601 11.4503C30.2639 11.2343 30.2715 10.9957 30.1238 10.8214C29.8701 10.5183 29.3323 10.5486 29.1127 10.8782C28.9006 10.5297 28.3553 10.5335 28.1205 10.8479C28.1167 10.7684 28.1091 10.6471 27.9955 10.6623C27.8895 10.6737 27.6887 10.6055 27.6774 10.7646C27.6736 11.2684 27.6698 11.7685 27.6812 12.2723C27.6887 12.3784 27.8251 12.3519 27.897 12.3557C27.9728 12.3481 28.1129 12.3822 28.128 12.2723C28.1546 11.9314 28.1091 11.5866 28.1508 11.2457C28.2114 10.9805 28.6506 10.9464 28.7302 11.2154C28.7832 11.5753 28.7188 11.9465 28.7605 12.3102C28.8286 12.3633 28.9195 12.3443 28.9991 12.3519C29.0672 12.3443 29.1657 12.367 29.196 12.2875C29.2225 11.9617 29.1884 11.6359 29.2073 11.3101C29.2111 11.1245 29.408 10.9881 29.586 11.0335C29.6996 11.0487 29.7905 11.151 29.8019 11.2646C29.8246 11.598 29.7905 11.9314 29.817 12.2648C29.8284 12.3746 29.9647 12.3443 30.0405 12.3519C30.1124 12.3443 30.245 12.3708 30.2526 12.2648C30.2677 11.9958 30.2526 11.723 30.2601 11.4503ZM31.862 10.7722C31.5477 10.5449 31.0705 10.5562 30.7865 10.8214C30.3624 11.1964 30.4078 11.9844 30.9039 12.2761C31.3091 12.5337 31.9756 12.4011 32.1271 11.9049C32.0476 11.7988 31.8961 11.8026 31.7787 11.7647C31.6878 11.8859 31.5742 12.0109 31.4114 12.0071C31.1766 12.0337 30.9721 11.8518 30.938 11.6245C31.294 11.6207 31.65 11.6245 32.0021 11.6245C32.0665 11.6207 32.165 11.6359 32.165 11.5412C32.1801 11.2608 32.093 10.9464 31.862 10.7722ZM30.9456 11.3177C30.9872 11.1055 31.1917 10.9426 31.4114 10.9919C31.5856 11.007 31.6954 11.1586 31.7257 11.3215C31.4644 11.3177 31.2069 11.3177 30.9456 11.3177ZM34.1153 9.91978C34.0093 9.82128 33.8123 9.85537 33.6798 9.89705C33.6609 10.2001 33.6684 10.5032 33.676 10.8062C33.3844 10.5145 32.8656 10.5789 32.6043 10.8782C32.3203 11.2002 32.3051 11.7268 32.555 12.0716C32.7936 12.4163 33.3806 12.5262 33.6684 12.1852C33.6836 12.2382 33.6684 12.314 33.7252 12.3443C33.8578 12.3633 33.9941 12.3519 34.1267 12.3329C34.1077 11.5298 34.1456 10.7229 34.1153 9.91978ZM33.2291 11.9844C32.7747 11.9579 32.7103 11.2192 33.1117 11.0639C33.2443 11.0108 33.4033 11.0298 33.5169 11.1169C33.8313 11.3631 33.676 12.0337 33.2291 11.9844ZM34.9636 10.7229C34.8689 10.6093 34.6833 10.6737 34.5546 10.6737C34.547 10.6888 34.5281 10.7153 34.5205 10.7305C34.5054 11.1964 34.5205 11.6662 34.5129 12.136C34.5205 12.2041 34.4902 12.3026 34.566 12.3443C34.6796 12.3633 34.797 12.3633 34.9106 12.3443C35.0015 12.3178 34.9636 12.2041 34.9749 12.136C34.9674 11.6662 34.9825 11.1927 34.9636 10.7229ZM34.6038 9.85916C34.4296 9.94629 34.4031 10.2191 34.5697 10.3327C34.7326 10.4691 35.0166 10.3441 35.0242 10.1319C35.0507 9.91599 34.7894 9.74551 34.6038 9.85916ZM36.9821 10.7115C36.8609 10.6168 36.6905 10.6812 36.5466 10.6774C36.5466 10.7115 36.5428 10.7797 36.539 10.8138C36.289 10.5524 35.8422 10.5752 35.5733 10.7911C35.1946 11.0904 35.1492 11.7003 35.4256 12.0829C35.6718 12.4352 36.255 12.5299 36.5541 12.189C36.5541 12.2269 36.5503 12.3026 36.5466 12.3405C36.6905 12.3595 36.8419 12.3746 36.9858 12.3443C36.9896 11.795 37.001 11.2495 36.9821 10.7115ZM36.0997 11.9844C35.6225 11.9655 35.5695 11.1623 36.0202 11.0487C36.1451 11.0146 36.2853 11.0373 36.3875 11.1207C36.6905 11.3707 36.5428 12.0261 36.0997 11.9844ZM36.9821 10.7115C36.8609 10.6168 36.6905 10.6812 36.5466 10.6774C36.5466 10.7115 36.5428 10.7797 36.539 10.8138C36.289 10.5524 35.8422 10.5752 35.5733 10.7911C35.1946 11.0904 35.1492 11.7003 35.4256 12.0829C35.6718 12.4352 36.255 12.5299 36.5541 12.189C36.5541 12.2269 36.5503 12.3026 36.5466 12.3405C36.6905 12.3595 36.8419 12.3746 36.9858 12.3443C36.9896 11.795 37.001 11.2495 36.9821 10.7115ZM36.0997 11.9844C35.6225 11.9655 35.5695 11.1623 36.0202 11.0487C36.1451 11.0146 36.2853 11.0373 36.3875 11.1207C36.6905 11.3707 36.5428 12.0261 36.0997 11.9844ZM34.6038 9.85916C34.4296 9.94629 34.4031 10.2191 34.5697 10.3327C34.7326 10.4691 35.0166 10.3441 35.0242 10.1319C35.0507 9.91599 34.7894 9.74551 34.6038 9.85916ZM34.9636 10.7229C34.8689 10.6093 34.6833 10.6737 34.5546 10.6737C34.547 10.6888 34.5281 10.7153 34.5205 10.7305C34.5054 11.1964 34.5205 11.6662 34.5129 12.136C34.5205 12.2041 34.4902 12.3026 34.566 12.3443C34.6796 12.3633 34.797 12.3633 34.9106 12.3443C35.0015 12.3178 34.9636 12.2041 34.9749 12.136C34.9674 11.6662 34.9825 11.1927 34.9636 10.7229ZM34.1153 9.91978C34.0093 9.82128 33.8123 9.85537 33.6798 9.89705C33.6609 10.2001 33.6684 10.5032 33.676 10.8062C33.3844 10.5145 32.8656 10.5789 32.6043 10.8782C32.3203 11.2002 32.3051 11.7268 32.555 12.0716C32.7936 12.4163 33.3806 12.5262 33.6684 12.1852C33.6836 12.2382 33.6684 12.314 33.7252 12.3443C33.8578 12.3633 33.9941 12.3519 34.1267 12.3329C34.1077 11.5298 34.1456 10.7229 34.1153 9.91978ZM33.2291 11.9844C32.7747 11.9579 32.7103 11.2192 33.1117 11.0639C33.2443 11.0108 33.4033 11.0298 33.5169 11.1169C33.8313 11.3631 33.676 12.0337 33.2291 11.9844ZM31.862 10.7722C31.5477 10.5449 31.0705 10.5562 30.7865 10.8214C30.3624 11.1964 30.4078 11.9844 30.9039 12.2761C31.3091 12.5337 31.9756 12.4011 32.1271 11.9049C32.0476 11.7988 31.8961 11.8026 31.7787 11.7647C31.6878 11.8859 31.5742 12.0109 31.4114 12.0071C31.1766 12.0337 30.9721 11.8518 30.938 11.6245C31.294 11.6207 31.65 11.6245 32.0021 11.6245C32.0665 11.6207 32.165 11.6359 32.165 11.5412C32.1801 11.2608 32.093 10.9464 31.862 10.7722ZM30.9456 11.3177C30.9872 11.1055 31.1917 10.9426 31.4114 10.9919C31.5856 11.007 31.6954 11.1586 31.7257 11.3215C31.4644 11.3177 31.2069 11.3177 30.9456 11.3177ZM30.1238 10.8214C29.8701 10.5183 29.3323 10.5486 29.1127 10.8782C28.9006 10.5297 28.3553 10.5335 28.1205 10.8479C28.1167 10.7684 28.1091 10.6471 27.9955 10.6623C27.8895 10.6737 27.6887 10.6055 27.6774 10.7646C27.6736 11.2684 27.6698 11.7685 27.6812 12.2723C27.6887 12.3784 27.8251 12.3519 27.897 12.3557C27.9728 12.3481 28.1129 12.3822 28.128 12.2723C28.1546 11.9314 28.1091 11.5866 28.1508 11.2457C28.2114 10.9805 28.6506 10.9464 28.7302 11.2154C28.7832 11.5753 28.7188 11.9465 28.7605 12.3102C28.8286 12.3633 28.9195 12.3443 28.9991 12.3519C29.0672 12.3443 29.1657 12.367 29.196 12.2875C29.2225 11.9617 29.1884 11.6359 29.2073 11.3101C29.2111 11.1245 29.408 10.9881 29.586 11.0335C29.6996 11.0487 29.7905 11.151 29.8019 11.2646C29.8246 11.598 29.7905 11.9314 29.817 12.2648C29.8284 12.3746 29.9647 12.3443 30.0405 12.3519C30.1124 12.3443 30.245 12.3708 30.2526 12.2648C30.2677 11.992 30.2526 11.7192 30.2563 11.4465C30.2639 11.2343 30.2677 10.9957 30.1238 10.8214ZM38.7089 10.1319C38.5953 9.25682 38.3719 8.39308 37.9932 7.59753C37.6978 6.97624 37.3002 6.39662 36.7889 5.93066C36.2284 5.41545 35.5279 5.05934 34.7856 4.89644C34.032 4.72976 33.2443 4.76006 32.4945 4.92675C31.5515 5.1389 30.6653 5.54425 29.8398 6.04431C28.5484 6.83607 27.4009 7.85513 26.4315 9.02194C25.924 9.65459 25.4241 10.2986 24.928 10.9464C23.4852 8.93102 21.9098 7.00276 20.1223 5.28285C18.4939 3.72206 16.6837 2.32416 14.6501 1.33541C13.0217 0.547434 11.2266 0.0397968 9.40887 0.0890452C7.90922 0.119352 6.3982 0.55501 5.17121 1.43012C3.73215 2.46812 2.68693 3.98345 2.01285 5.61244C1.21379 7.55585 0.899467 9.67353 0.925976 11.7685C0.952486 13.6361 1.26302 15.5189 1.95604 17.2578C2.56575 18.7921 3.49735 20.2203 4.77736 21.2772C5.98542 22.2773 7.5343 22.8039 9.08697 22.8986C10.723 22.9971 12.3589 22.6221 13.8662 22.0008C15.5249 21.3151 17.0473 20.3301 18.4409 19.205C20.9517 17.1669 23.0535 14.6779 24.9318 12.0602C25.3673 12.6246 25.8028 13.1891 26.2459 13.7498C26.7647 14.409 27.3403 15.0189 27.969 15.572C28.9953 16.4774 30.1541 17.2578 31.4341 17.7578C32.3771 18.1215 33.4109 18.3223 34.422 18.1783C35.3347 18.0571 36.2095 17.6442 36.8722 17.0002C37.7925 16.1137 38.3113 14.8901 38.5764 13.6589C38.8188 12.5034 38.8566 11.3063 38.7089 10.1319ZM17.8956 18.7958C16.5474 19.8717 15.0742 20.8075 13.4685 21.4477C11.8477 22.0955 10.064 22.4326 8.32579 22.1485C7.38282 21.997 6.46637 21.6523 5.6711 21.1181C4.56908 20.3642 3.72457 19.2883 3.1035 18.1177C2.3764 16.7426 1.94089 15.2197 1.7364 13.6816C1.46373 11.5904 1.57355 9.43866 2.12646 7.40053C2.61119 5.63517 3.45191 3.91905 4.78115 2.63102C5.75062 1.66878 7.04199 1.05507 8.39016 0.850501C10.1322 0.573952 11.9197 0.926267 13.5367 1.58544C15.6309 2.4416 17.4941 3.78267 19.1604 5.3018C21.1827 7.14671 22.9209 9.28334 24.5115 11.5071C22.6028 14.1817 20.4669 16.7312 17.8956 18.7958ZM38.1106 12.0867C38.0538 13.0111 37.8834 13.9354 37.5312 14.7954C37.2472 15.4886 36.8382 16.1402 36.2739 16.6365C35.7058 17.1366 34.9787 17.451 34.2251 17.5305C33.339 17.6366 32.4414 17.4358 31.6159 17.11C30.3548 16.6024 29.2263 15.8106 28.2265 14.9014C27.6622 14.3862 27.1434 13.8256 26.6776 13.2232C26.227 12.655 25.7877 12.0791 25.3408 11.5033C25.8748 10.8138 26.405 10.1243 26.9503 9.44245C27.8705 8.34004 28.9612 7.3778 30.1844 6.62392C31.0251 6.1125 31.9378 5.69578 32.911 5.52152C33.7214 5.37377 34.5849 5.43439 35.3423 5.77155C35.9558 6.04052 36.4822 6.48754 36.876 7.02549C37.3683 7.68845 37.6789 8.46884 37.872 9.26818C38.0917 10.1925 38.1636 11.1434 38.1106 12.0867ZM36.5466 10.6737C36.5466 10.7078 36.5428 10.7759 36.539 10.81C36.289 10.5486 35.8422 10.5714 35.5733 10.7873C35.1946 11.0866 35.1492 11.6965 35.4256 12.0791C35.6718 12.4314 36.255 12.5262 36.5541 12.1852C36.5541 12.2231 36.5503 12.2989 36.5466 12.3367C36.6905 12.3557 36.8419 12.3708 36.9858 12.3405C36.9896 11.7988 37.001 11.2533 36.9821 10.7115C36.8609 10.6168 36.6867 10.6774 36.5466 10.6737ZM36.0997 11.9844C35.6225 11.9655 35.5695 11.1623 36.0202 11.0487C36.1451 11.0146 36.2853 11.0373 36.3875 11.1207C36.6905 11.3707 36.5428 12.0261 36.0997 11.9844ZM34.6038 9.85916C34.4296 9.94629 34.4031 10.2191 34.5697 10.3327C34.7326 10.4691 35.0166 10.3441 35.0242 10.1319C35.0507 9.91599 34.7894 9.74551 34.6038 9.85916ZM34.9636 10.7229C34.8689 10.6093 34.6833 10.6737 34.5546 10.6737C34.547 10.6888 34.5281 10.7153 34.5205 10.7305C34.5054 11.1964 34.5205 11.6662 34.5129 12.136C34.5205 12.2041 34.4902 12.3026 34.566 12.3443C34.6796 12.3633 34.797 12.3633 34.9106 12.3443C35.0015 12.3178 34.9636 12.2041 34.9749 12.136C34.9674 11.6662 34.9825 11.1927 34.9636 10.7229ZM34.1153 9.91978C34.0093 9.82128 33.8123 9.85537 33.6798 9.89705C33.6609 10.2001 33.6684 10.5032 33.676 10.8062C33.3844 10.5145 32.8656 10.5789 32.6043 10.8782C32.3203 11.2002 32.3051 11.7268 32.555 12.0716C32.7936 12.4163 33.3806 12.5262 33.6684 12.1852C33.6836 12.2382 33.6684 12.314 33.7252 12.3443C33.8578 12.3633 33.9941 12.3519 34.1267 12.3329C34.1077 11.5298 34.1456 10.7229 34.1153 9.91978ZM33.2291 11.9844C32.7747 11.9579 32.7103 11.2192 33.1117 11.0639C33.2443 11.0108 33.4033 11.0298 33.5169 11.1169C33.8313 11.3631 33.676 12.0337 33.2291 11.9844ZM31.862 10.7722C31.5477 10.5449 31.0705 10.5562 30.7865 10.8214C30.3624 11.1964 30.4078 11.9844 30.9039 12.2761C31.3091 12.5337 31.9756 12.4011 32.1271 11.9049C32.0476 11.7988 31.8961 11.8026 31.7787 11.7647C31.6878 11.8859 31.5742 12.0109 31.4114 12.0071C31.1766 12.0337 30.9721 11.8518 30.938 11.6245C31.294 11.6207 31.65 11.6245 32.0021 11.6245C32.0665 11.6207 32.165 11.6359 32.165 11.5412C32.1801 11.2608 32.093 10.9464 31.862 10.7722ZM30.9456 11.3177C30.9872 11.1055 31.1917 10.9426 31.4114 10.9919C31.5856 11.007 31.6954 11.1586 31.7257 11.3215C31.4644 11.3177 31.2069 11.3177 30.9456 11.3177ZM30.1238 10.8214C29.8701 10.5183 29.3323 10.5486 29.1127 10.8782C28.9006 10.5297 28.3553 10.5335 28.1205 10.8479C28.1167 10.7684 28.1091 10.6471 27.9955 10.6623C27.8895 10.6737 27.6887 10.6055 27.6774 10.7646C27.6736 11.2684 27.6698 11.7685 27.6812 12.2723C27.6887 12.3784 27.8251 12.3519 27.897 12.3557C27.9728 12.3481 28.1129 12.3822 28.128 12.2723C28.1546 11.9314 28.1091 11.5866 28.1508 11.2457C28.2114 10.9805 28.6506 10.9464 28.7302 11.2154C28.7832 11.5753 28.7188 11.9465 28.7605 12.3102C28.8286 12.3633 28.9195 12.3443 28.9991 12.3519C29.0672 12.3443 29.1657 12.367 29.196 12.2875C29.2225 11.9617 29.1884 11.6359 29.2073 11.3101C29.2111 11.1245 29.408 10.9881 29.586 11.0335C29.6996 11.0487 29.7905 11.151 29.8019 11.2646C29.8246 11.598 29.7905 11.9314 29.817 12.2648C29.8284 12.3746 29.9647 12.3443 30.0405 12.3519C30.1124 12.3443 30.245 12.3708 30.2526 12.2648C30.2677 11.992 30.2526 11.7192 30.2563 11.4465C30.2639 11.2343 30.2677 10.9957 30.1238 10.8214ZM30.2601 11.4503C30.2639 11.2343 30.2715 10.9957 30.1238 10.8214C29.8701 10.5183 29.3323 10.5486 29.1127 10.8782C28.9006 10.5297 28.3553 10.5335 28.1205 10.8479C28.1167 10.7684 28.1091 10.6471 27.9955 10.6623C27.8895 10.6737 27.6887 10.6055 27.6774 10.7646C27.6736 11.2684 27.6698 11.7685 27.6812 12.2723C27.6887 12.3784 27.8251 12.3519 27.897 12.3557C27.9728 12.3481 28.1129 12.3822 28.128 12.2723C28.1546 11.9314 28.1091 11.5866 28.1508 11.2457C28.2114 10.9805 28.6506 10.9464 28.7302 11.2154C28.7832 11.5753 28.7188 11.9465 28.7605 12.3102C28.8286 12.3633 28.9195 12.3443 28.9991 12.3519C29.0672 12.3443 29.1657 12.367 29.196 12.2875C29.2225 11.9617 29.1884 11.6359 29.2073 11.3101C29.2111 11.1245 29.408 10.9881 29.586 11.0335C29.6996 11.0487 29.7905 11.151 29.8019 11.2646C29.8246 11.598 29.7905 11.9314 29.817 12.2648C29.8284 12.3746 29.9647 12.3443 30.0405 12.3519C30.1124 12.3443 30.245 12.3708 30.2526 12.2648C30.2677 11.9958 30.2526 11.723 30.2601 11.4503ZM31.862 10.7722C31.5477 10.5449 31.0705 10.5562 30.7865 10.8214C30.3624 11.1964 30.4078 11.9844 30.9039 12.2761C31.3091 12.5337 31.9756 12.4011 32.1271 11.9049C32.0476 11.7988 31.8961 11.8026 31.7787 11.7647C31.6878 11.8859 31.5742 12.0109 31.4114 12.0071C31.1766 12.0337 30.9721 11.8518 30.938 11.6245C31.294 11.6207 31.65 11.6245 32.0021 11.6245C32.0665 11.6207 32.165 11.6359 32.165 11.5412C32.1801 11.2608 32.093 10.9464 31.862 10.7722ZM30.9456 11.3177C30.9872 11.1055 31.1917 10.9426 31.4114 10.9919C31.5856 11.007 31.6954 11.1586 31.7257 11.3215C31.4644 11.3177 31.2069 11.3177 30.9456 11.3177ZM34.1153 9.91978C34.0093 9.82128 33.8123 9.85537 33.6798 9.89705C33.6609 10.2001 33.6684 10.5032 33.676 10.8062C33.3844 10.5145 32.8656 10.5789 32.6043 10.8782C32.3203 11.2002 32.3051 11.7268 32.555 12.0716C32.7936 12.4163 33.3806 12.5262 33.6684 12.1852C33.6836 12.2382 33.6684 12.314 33.7252 12.3443C33.8578 12.3633 33.9941 12.3519 34.1267 12.3329C34.1077 11.5298 34.1456 10.7229 34.1153 9.91978ZM33.2291 11.9844C32.7747 11.9579 32.7103 11.2192 33.1117 11.0639C33.2443 11.0108 33.4033 11.0298 33.5169 11.1169C33.8313 11.3631 33.676 12.0337 33.2291 11.9844ZM34.9636 10.7229C34.8689 10.6093 34.6833 10.6737 34.5546 10.6737C34.547 10.6888 34.5281 10.7153 34.5205 10.7305C34.5054 11.1964 34.5205 11.6662 34.5129 12.136C34.5205 12.2041 34.4902 12.3026 34.566 12.3443C34.6796 12.3633 34.797 12.3633 34.9106 12.3443C35.0015 12.3178 34.9636 12.2041 34.9749 12.136C34.9674 11.6662 34.9825 11.1927 34.9636 10.7229ZM34.6038 9.85916C34.4296 9.94629 34.4031 10.2191 34.5697 10.3327C34.7326 10.4691 35.0166 10.3441 35.0242 10.1319C35.0507 9.91599 34.7894 9.74551 34.6038 9.85916ZM36.9821 10.7115C36.8609 10.6168 36.6905 10.6812 36.5466 10.6774C36.5466 10.7115 36.5428 10.7797 36.539 10.8138C36.289 10.5524 35.8422 10.5752 35.5733 10.7911C35.1946 11.0904 35.1492 11.7003 35.4256 12.0829C35.6718 12.4352 36.255 12.5299 36.5541 12.189C36.5541 12.2269 36.5503 12.3026 36.5466 12.3405C36.6905 12.3595 36.8419 12.3746 36.9858 12.3443C36.9896 11.795 37.001 11.2495 36.9821 10.7115ZM36.0997 11.9844C35.6225 11.9655 35.5695 11.1623 36.0202 11.0487C36.1451 11.0146 36.2853 11.0373 36.3875 11.1207C36.6905 11.3707 36.5428 12.0261 36.0997 11.9844ZM36.9821 10.7115C36.8609 10.6168 36.6905 10.6812 36.5466 10.6774C36.5466 10.7115 36.5428 10.7797 36.539 10.8138C36.289 10.5524 35.8422 10.5752 35.5733 10.7911C35.1946 11.0904 35.1492 11.7003 35.4256 12.0829C35.6718 12.4352 36.255 12.5299 36.5541 12.189C36.5541 12.2269 36.5503 12.3026 36.5466 12.3405C36.6905 12.3595 36.8419 12.3746 36.9858 12.3443C36.9896 11.795 37.001 11.2495 36.9821 10.7115ZM36.0997 11.9844C35.6225 11.9655 35.5695 11.1623 36.0202 11.0487C36.1451 11.0146 36.2853 11.0373 36.3875 11.1207C36.6905 11.3707 36.5428 12.0261 36.0997 11.9844ZM34.6038 9.85916C34.4296 9.94629 34.4031 10.2191 34.5697 10.3327C34.7326 10.4691 35.0166 10.3441 35.0242 10.1319C35.0507 9.91599 34.7894 9.74551 34.6038 9.85916ZM34.9636 10.7229C34.8689 10.6093 34.6833 10.6737 34.5546 10.6737C34.547 10.6888 34.5281 10.7153 34.5205 10.7305C34.5054 11.1964 34.5205 11.6662 34.5129 12.136C34.5205 12.2041 34.4902 12.3026 34.566 12.3443C34.6796 12.3633 34.797 12.3633 34.9106 12.3443C35.0015 12.3178 34.9636 12.2041 34.9749 12.136C34.9674 11.6662 34.9825 11.1927 34.9636 10.7229ZM34.1153 9.91978C34.0093 9.82128 33.8123 9.85537 33.6798 9.89705C33.6609 10.2001 33.6684 10.5032 33.676 10.8062C33.3844 10.5145 32.8656 10.5789 32.6043 10.8782C32.3203 11.2002 32.3051 11.7268 32.555 12.0716C32.7936 12.4163 33.3806 12.5262 33.6684 12.1852C33.6836 12.2382 33.6684 12.314 33.7252 12.3443C33.8578 12.3633 33.9941 12.3519 34.1267 12.3329C34.1077 11.5298 34.1456 10.7229 34.1153 9.91978ZM33.2291 11.9844C32.7747 11.9579 32.7103 11.2192 33.1117 11.0639C33.2443 11.0108 33.4033 11.0298 33.5169 11.1169C33.8313 11.3631 33.676 12.0337 33.2291 11.9844ZM31.862 10.7722C31.5477 10.5449 31.0705 10.5562 30.7865 10.8214C30.3624 11.1964 30.4078 11.9844 30.9039 12.2761C31.3091 12.5337 31.9756 12.4011 32.1271 11.9049C32.0476 11.7988 31.8961 11.8026 31.7787 11.7647C31.6878 11.8859 31.5742 12.0109 31.4114 12.0071C31.1766 12.0337 30.9721 11.8518 30.938 11.6245C31.294 11.6207 31.65 11.6245 32.0021 11.6245C32.0665 11.6207 32.165 11.6359 32.165 11.5412C32.1801 11.2608 32.093 10.9464 31.862 10.7722ZM30.9456 11.3177C30.9872 11.1055 31.1917 10.9426 31.4114 10.9919C31.5856 11.007 31.6954 11.1586 31.7257 11.3215C31.4644 11.3177 31.2069 11.3177 30.9456 11.3177ZM30.2601 11.4503C30.2639 11.2343 30.2715 10.9957 30.1238 10.8214C29.8701 10.5183 29.3323 10.5486 29.1127 10.8782C28.9006 10.5297 28.3553 10.5335 28.1205 10.8479C28.1167 10.7684 28.1091 10.6471 27.9955 10.6623C27.8895 10.6737 27.6887 10.6055 27.6774 10.7646C27.6736 11.2684 27.6698 11.7685 27.6812 12.2723C27.6887 12.3784 27.8251 12.3519 27.897 12.3557C27.9728 12.3481 28.1129 12.3822 28.128 12.2723C28.1546 11.9314 28.1091 11.5866 28.1508 11.2457C28.2114 10.9805 28.6506 10.9464 28.7302 11.2154C28.7832 11.5753 28.7188 11.9465 28.7605 12.3102C28.8286 12.3633 28.9195 12.3443 28.9991 12.3519C29.0672 12.3443 29.1657 12.367 29.196 12.2875C29.2225 11.9617 29.1884 11.6359 29.2073 11.3101C29.2111 11.1245 29.408 10.9881 29.586 11.0335C29.6996 11.0487 29.7905 11.151 29.8019 11.2646C29.8246 11.598 29.7905 11.9314 29.817 12.2648C29.8284 12.3746 29.9647 12.3443 30.0405 12.3519C30.1124 12.3443 30.245 12.3708 30.2526 12.2648C30.2677 11.9958 30.2526 11.723 30.2601 11.4503Z" fill="#FF0606"/>
<path d="M8.98475 11.6627C8.97339 11.674 8.95067 11.7006 8.93931 11.7119C9.03398 11.9544 8.9128 12.2082 8.89765 12.4544C8.8825 12.8977 8.74996 13.3295 8.76511 13.7766C8.76132 13.9205 8.73102 14.0645 8.69315 14.2009C8.71588 14.2084 8.75753 14.2198 8.77647 14.2274C8.60226 14.3297 8.46215 14.4812 8.2728 14.557C8.14404 14.6024 7.98498 14.5191 7.98877 14.3713C7.96605 13.7463 8.06451 13.125 8.07966 12.4999C8.10238 12.1817 8.10617 11.818 8.34096 11.5718C8.46593 11.4543 8.63256 11.3331 8.81434 11.3596C8.95067 11.3937 8.9431 11.5566 8.98475 11.6627Z" fill="#FFFEFE"/>
<path d="M8.76133 10.4385C8.64393 10.4234 8.51138 10.359 8.51138 10.2188C8.51517 9.93468 8.74996 9.71875 8.98855 9.6051C9.06807 9.56722 9.15517 9.58237 9.24227 9.58995C9.27636 9.7036 9.3521 9.82482 9.30287 9.94605C9.21198 10.1847 8.9734 10.3173 8.76133 10.4385Z" fill="#FFFEFE"/>
<path d="M7.44708 11.8404C7.37513 11.9919 7.43193 12.17 7.35619 12.3177C7.32211 12.4655 7.28803 12.6132 7.28045 12.7648C7.23501 12.9466 7.20093 13.1322 7.17442 13.3179C7.27667 13.4656 7.18199 13.6323 7.1214 13.7762C7.09489 13.9164 7.05323 14.0679 7.11382 14.2043C7.03808 14.3142 7.01157 14.4506 6.99264 14.5794C6.89796 15.3105 6.82222 16.0417 6.69725 16.769C6.66696 16.9168 6.63287 17.0986 6.48518 17.1744C6.32613 17.2729 6.07997 17.2236 6.01559 17.0304C5.85275 16.4319 5.80731 15.8068 5.65961 15.2044C5.64447 14.9317 5.58009 14.6665 5.54979 14.3937C5.46269 13.8482 5.39831 13.2989 5.29606 12.7572C5.26198 12.4731 5.23168 12.1889 5.16352 11.9124C5.11807 11.7949 5.10671 11.6661 5.09535 11.5411C5.05748 11.507 5.0234 11.4729 4.98553 11.4351C4.85298 11.6548 4.74695 11.8859 4.68257 12.1321C4.6144 12.4124 4.47049 12.6663 4.37582 12.939C4.26221 13.0602 4.08043 13.1284 3.92138 13.0565C3.80398 12.9958 3.71309 12.8557 3.76232 12.7193C3.9744 12.0298 4.25085 11.3631 4.44777 10.6698C4.56138 10.3402 4.66363 10.0069 4.78103 9.68105C4.84162 9.49921 5.03476 9.36662 5.22789 9.40072C5.41346 9.40829 5.53843 9.58635 5.57251 9.75682C5.64825 10.1129 5.68612 10.4766 5.75808 10.8327C5.85275 11.2115 5.84139 11.6093 5.96257 11.9806C6.00044 12.0904 6.03074 12.2041 6.05346 12.3177C6.06482 12.5185 6.11405 12.7117 6.16707 12.9049C6.13678 13.0489 6.14056 13.1928 6.20494 13.3292C6.22388 13.5755 6.22009 13.8331 6.32613 14.0642C6.40187 13.8558 6.39808 13.6285 6.43974 13.4126C6.57228 12.5716 6.70483 11.7268 6.89418 10.8971C7.11004 9.99927 7.35998 9.10901 7.59856 8.21497C7.92424 7.28682 8.26129 6.36247 8.60969 5.43812C8.76875 5.04792 8.87857 4.59711 9.23076 4.32814C9.54508 4.05916 10.1056 4.26752 10.1662 4.67666C10.2419 4.94563 10.0791 5.18809 9.93136 5.39266C9.56402 5.69194 9.3065 6.10487 9.12094 6.54052C9.01111 6.80192 8.88236 7.05195 8.8104 7.3285C8.64756 7.68081 8.52259 8.04449 8.40141 8.41196C8.32188 8.73397 8.23856 9.05598 8.12117 9.36662C8.05679 9.52952 8.07194 9.70757 8.03028 9.87426C7.68945 10.488 7.57584 11.1737 7.44708 11.8404Z" fill="#FFFEFE"/>
<path d="M9.81812 10.8555C9.94309 10.7381 10.1135 10.6964 10.2763 10.6737C10.4771 10.6472 10.6475 10.5259 10.8368 10.4615C11.1133 10.3441 11.2799 10.7835 11.1095 10.9654C10.9201 11.1699 10.6399 11.2912 10.5111 11.5564C10.2953 12.0754 10.3748 12.6474 10.3142 13.1929C10.2915 13.5073 9.97717 13.7384 9.678 13.746C9.48486 13.6854 9.48865 13.4429 9.50001 13.2763C9.5303 12.977 9.50758 12.6777 9.53788 12.3822C9.60226 12.045 9.59847 11.7041 9.61741 11.3631C9.63634 11.1775 9.67042 10.9767 9.81812 10.8555Z" fill="#FFFEFE"/>
<path d="M14.3284 11.3972C14.2413 11.276 14.2905 11.1207 14.2943 10.9843C14.3662 10.3289 14.4079 9.66595 14.5063 9.01436C14.5556 8.73402 14.8434 8.43095 15.1464 8.56355C15.2675 8.88555 15.1009 9.21135 15.1312 9.54094C15.1426 9.80612 15.1312 10.0713 15.1009 10.3327C15.0479 10.5486 15.0744 10.7759 15.0668 10.9957C15.029 11.1889 14.851 11.3177 14.6843 11.3972C14.5745 11.4578 14.4268 11.4957 14.3284 11.3972Z" fill="#FFFEFE"/>
<path d="M14.745 7.62782C14.7223 7.26792 15.1388 6.9838 15.4721 7.08987C15.4986 7.15427 15.5251 7.21868 15.5516 7.28687C15.457 7.5028 15.3093 7.71495 15.0896 7.81344C14.9533 7.84375 14.7564 7.7945 14.745 7.62782Z" fill="#FFFEFE"/>
<path d="M19.9595 9.74523C19.8724 9.88161 19.8005 10.0369 19.6641 10.1354C19.4369 10.3135 19.1491 10.3665 18.8802 10.4536C18.4106 10.609 17.9638 10.8173 17.532 11.0522C16.3088 11.6849 15.1084 12.3668 13.9647 13.1358C13.8359 13.2229 13.7185 13.329 13.5936 13.4237C13.5708 13.8783 13.5557 14.3367 13.5519 14.7913C13.5368 15.1209 13.5708 15.458 13.5178 15.7876C13.5405 15.9202 13.5557 16.0604 13.5102 16.193C13.5292 16.2346 13.5443 16.2763 13.5633 16.3218C13.5481 16.3407 13.5254 16.3786 13.5102 16.3975C13.5178 16.4506 13.5254 16.5036 13.5216 16.5604C13.533 16.8029 13.6504 17.0378 13.5973 17.2802C13.6125 17.2954 13.639 17.3295 13.6542 17.3446C13.6731 17.409 13.6958 17.4772 13.7185 17.5416C13.6844 17.6098 13.6542 17.678 13.6239 17.7462C13.6504 17.7651 13.7072 17.7954 13.7337 17.8106C13.745 17.8447 13.7602 17.875 13.7716 17.9091C13.7564 17.9394 13.7223 17.9962 13.7072 18.0227C13.7375 18.0644 13.7678 18.1099 13.7981 18.1553C13.7791 18.2235 13.764 18.2917 13.7602 18.3637C13.6882 18.5001 13.5784 18.6251 13.4231 18.663C13.23 18.6971 12.9914 18.6365 12.8968 18.4508C12.7377 18.0985 12.8134 17.7045 12.8134 17.3295C12.8627 16.1968 12.8513 15.0603 12.8702 13.9276C12.6241 14.0564 12.4158 14.242 12.1962 14.4125C11.5259 14.9239 10.8896 15.4694 10.2345 15.9998C10.0679 16.1248 9.94668 16.2915 9.79141 16.4279C9.5036 16.6552 9.28016 16.9469 9.02265 17.2045C8.71969 17.4962 8.45838 17.822 8.14406 18.1023C7.94335 18.3523 7.45483 18.2425 7.40181 17.9167C7.36773 17.8068 7.38666 17.6894 7.45861 17.5984C7.71992 17.2423 8.06453 16.962 8.38264 16.6552C8.7462 16.3028 9.14383 15.9846 9.53011 15.6588C9.98076 15.2724 10.4428 14.9049 10.901 14.5337C11.2456 14.2837 11.5902 14.0336 11.9349 13.7836C12.2416 13.5525 12.5408 13.3138 12.8589 13.1017C12.8665 12.9539 12.8627 12.8024 12.8589 12.6547C12.5786 12.8706 12.2302 12.9918 11.878 12.9691C11.6849 12.9426 11.4918 12.81 11.4425 12.613C11.3592 12.3251 11.4198 12.0182 11.3933 11.7227C11.4312 11.2833 11.4463 10.8287 11.6319 10.4233C11.7909 10.1051 12.0106 9.79069 12.3476 9.65052C12.465 9.60885 12.6089 9.55581 12.7263 9.63915C12.8059 9.81342 12.7074 10.0218 12.5824 10.1506C12.4158 10.3211 12.3287 10.5446 12.2492 10.7643C12.1999 10.912 12.1545 11.0636 12.1924 11.2189C12.1621 11.4613 12.1166 11.7038 12.1469 11.9462C12.1659 12.0485 12.2113 12.1698 12.3287 12.1925C12.5786 12.2001 12.8097 11.9917 12.8475 11.7455C12.9763 11.0105 12.999 10.2642 13.0747 9.52172C13.1088 9.2035 13.6314 9.05196 13.7905 9.35124C13.8321 9.79069 13.7375 10.2301 13.7185 10.6696C13.692 11.0939 13.6276 11.5144 13.6352 11.9387C13.6314 12.1622 13.6087 12.3819 13.6125 12.6054C14.2449 12.2076 14.8622 11.7909 15.5249 11.4462C16.2104 11.0333 16.9261 10.662 17.6154 10.2491C17.5283 10.1771 17.4222 10.1013 17.4071 9.9801C17.3768 9.76796 17.4109 9.55202 17.4147 9.33609C17.4071 8.96104 17.4828 8.58221 17.4449 8.20716C17.4222 8.09351 17.2973 8.08972 17.2064 8.0973C16.9829 8.16549 16.8693 8.389 16.7178 8.54433C16.6762 8.68828 16.6497 8.83224 16.608 8.9762C16.5701 9.04817 16.5891 9.12015 16.608 9.19213C16.5815 9.22623 16.555 9.26032 16.5285 9.29442C16.5512 9.34745 16.5739 9.40049 16.5967 9.45353C16.5777 9.46868 16.5436 9.49899 16.5247 9.51414C16.5171 9.63537 16.5096 9.75659 16.5247 9.87403C16.5285 9.93464 16.5323 9.99147 16.5399 10.0521C16.5323 10.1316 16.5285 10.2112 16.5285 10.2907C16.4641 10.4082 16.4376 10.5597 16.3051 10.6241C16.1687 10.7037 16.0059 10.7984 15.8468 10.7378C15.7105 10.6847 15.7219 10.5105 15.7256 10.3892C15.7635 9.76417 15.7787 9.13909 15.8165 8.51402C15.8279 8.29051 15.9415 8.05942 16.1498 7.95335C16.3505 7.85485 16.5853 7.86243 16.8012 7.89273C17.0359 7.83212 17.142 7.58209 17.3351 7.45328C17.5207 7.32448 17.7744 7.21841 17.9941 7.32448C18.1115 7.37373 18.1418 7.50253 18.1796 7.6124C18.1872 7.67301 18.1986 7.73362 18.2061 7.79045C18.1683 7.88137 18.1721 7.97229 18.1986 8.06321C18.1986 8.13518 18.2023 8.20338 18.2023 8.27535L18.1758 8.29051C18.1304 8.66555 18.1986 9.0406 18.1721 9.41564C18.1948 9.5596 18.2289 9.74902 18.3841 9.80584C18.7022 9.73007 18.9673 9.52929 19.2627 9.3967C19.4331 9.31715 19.6263 9.33988 19.8043 9.37776C19.9103 9.47247 19.9557 9.61642 19.9595 9.74523Z" fill="#FFFEFE"/>
<path d="M9.91999 5.40023C9.55265 5.69951 9.29514 6.11244 9.10958 6.5481C8.99975 6.80949 8.87099 7.05953 8.79904 7.33607C8.6362 7.68839 8.51123 8.05207 8.39004 8.41954C8.31052 8.74155 8.2272 9.06355 8.10981 9.3742C8.04543 9.5371 8.06057 9.71515 8.01892 9.88184C7.68945 10.4842 7.57584 11.1737 7.44708 11.8404C7.37513 11.9919 7.43193 12.17 7.35619 12.3177C7.32211 12.4655 7.28803 12.6132 7.28045 12.7648C7.23501 12.9466 7.20092 13.1322 7.17442 13.3179C7.27666 13.4656 7.18199 13.6323 7.1214 13.7762C7.09489 13.9164 7.05323 14.0679 7.11382 14.2043C7.03808 14.3142 7.01157 14.4506 6.99264 14.5794C6.89796 15.3105 6.82222 16.0417 6.69725 16.769C6.66696 16.9168 6.63287 17.0986 6.48518 17.1744C6.32613 17.2729 6.07997 17.2236 6.01559 17.0304C5.85275 16.4319 5.80731 15.8068 5.65961 15.2044C5.64447 14.9317 5.58009 14.6665 5.54979 14.3937C5.46269 13.8482 5.39831 13.2989 5.29606 12.7572C5.26198 12.4731 5.23168 12.1889 5.16352 11.9124C5.11807 11.7949 5.10671 11.6661 5.09535 11.5411C5.05748 11.507 5.0234 11.4729 4.98553 11.4351C4.85298 11.6548 4.74694 11.8859 4.68257 12.1321C4.6144 12.4124 4.47049 12.6663 4.37582 12.939C4.26221 13.0602 4.08043 13.1284 3.92138 13.0565C3.80398 12.9958 3.71309 12.8557 3.76232 12.7193C3.9744 12.0298 4.25085 11.3631 4.44777 10.6698C4.56138 10.3402 4.66363 10.0069 4.78103 9.68105C4.84162 9.49921 5.03476 9.36662 5.22789 9.40072C5.41346 9.40829 5.53843 9.58635 5.57251 9.75682C5.64825 10.1129 5.68612 10.4766 5.75808 10.8327C5.85275 11.2115 5.84139 11.6093 5.96257 11.9806C6.00044 12.0904 6.03074 12.2041 6.05346 12.3177C6.06482 12.5185 6.11405 12.7117 6.16707 12.9049C6.13678 13.0489 6.14056 13.1928 6.20494 13.3292C6.22388 13.5755 6.22009 13.8331 6.32613 14.0642C6.40187 13.8558 6.39808 13.6285 6.43974 13.4126C6.57228 12.5716 6.70483 11.7268 6.89418 10.8971C7.11004 9.99927 7.35998 9.10901 7.59856 8.21497C7.92424 7.28682 8.26129 6.36247 8.60969 5.43812C8.76874 5.04792 8.87857 4.59711 9.23076 4.32814C9.54508 4.05916 10.1056 4.26752 10.1661 4.67666C10.2343 4.94942 10.0677 5.19566 9.91999 5.40023Z" fill="#FF0606"/>
<path d="M30.2601 11.4503C30.2563 11.7231 30.2677 11.9958 30.2563 12.2686C30.2488 12.3709 30.1162 12.3482 30.0443 12.3557C29.9685 12.3482 29.8322 12.3785 29.8208 12.2686C29.7943 11.9352 29.8284 11.6019 29.8057 11.2685C29.7981 11.1548 29.7034 11.0526 29.5898 11.0374C29.4118 10.9919 29.2149 11.1283 29.2111 11.3139C29.1922 11.6397 29.2225 11.9655 29.1998 12.2913C29.1695 12.3709 29.0672 12.3482 29.0028 12.3557C28.9233 12.352 28.8324 12.3671 28.7643 12.3141C28.7188 11.9504 28.787 11.5791 28.734 11.2192C28.6544 10.9465 28.2152 10.9806 28.1546 11.2495C28.1167 11.5905 28.1583 11.9352 28.1318 12.2762C28.1167 12.3823 27.9766 12.3482 27.9008 12.3595C27.8289 12.352 27.6925 12.3785 27.685 12.2762C27.6736 11.7761 27.6812 11.2723 27.6812 10.7684C27.6925 10.6131 27.8933 10.6775 27.9993 10.6661C28.1129 10.651 28.1205 10.7722 28.1243 10.8518C28.3628 10.5335 28.9044 10.5335 29.1165 10.8821C29.3361 10.5525 29.8739 10.5222 30.1276 10.8253C30.2677 10.9957 30.2639 11.2344 30.2601 11.4503Z" fill="#FFFEFE"/>
<path d="M31.8622 10.7725C31.5479 10.5452 31.0707 10.5566 30.7867 10.8218C30.3625 11.1968 30.408 11.9848 30.9041 12.2765C31.3093 12.5341 31.9758 12.4015 32.1273 11.9052C32.0478 11.7992 31.8963 11.8029 31.7789 11.7651C31.688 11.8863 31.5744 12.0113 31.4115 12.0075C31.1767 12.034 30.9722 11.8522 30.9382 11.6249C31.2941 11.6211 31.6501 11.6249 32.0023 11.6249C32.0667 11.6211 32.1652 11.6363 32.1652 11.5415C32.1803 11.2612 32.0932 10.9468 31.8622 10.7725ZM30.9457 11.318C30.9874 11.1059 31.1919 10.943 31.4115 10.9922C31.5857 11.0074 31.6956 11.1589 31.7259 11.3218C31.4646 11.318 31.207 11.318 30.9457 11.318Z" fill="#FFFEFE"/>
<path d="M34.1153 9.91976C34.0093 9.82126 33.8124 9.85536 33.6798 9.89703C33.6609 10.2001 33.6685 10.5032 33.676 10.8062C33.3844 10.5145 32.8656 10.5789 32.6043 10.8782C32.3203 11.2002 32.3051 11.7268 32.5551 12.0715C32.7937 12.4163 33.3806 12.5261 33.6685 12.1852C33.6836 12.2382 33.6685 12.314 33.7253 12.3443C33.8578 12.3632 33.9941 12.3519 34.1267 12.3329C34.1077 11.5298 34.1456 10.7229 34.1153 9.91976ZM33.2292 11.9844C32.7747 11.9579 32.7103 11.2192 33.1118 11.0638C33.2443 11.0108 33.4034 11.0297 33.517 11.1169C33.8313 11.3631 33.676 12.0336 33.2292 11.9844Z" fill="#FFFEFE"/>
<path d="M34.975 12.1361C34.9636 12.2042 35.0015 12.3179 34.9106 12.3444C34.797 12.3596 34.6796 12.3634 34.566 12.3444C34.4902 12.3027 34.5205 12.2042 34.5129 12.1361C34.5205 11.6663 34.5054 11.2003 34.5205 10.7306C34.5281 10.7154 34.547 10.6851 34.5546 10.6738C34.6871 10.6738 34.8689 10.6094 34.9636 10.723C34.9825 11.1928 34.9674 11.6663 34.975 12.1361Z" fill="#FFFEFE"/>
<path d="M35.0241 10.1317C35.0165 10.3476 34.7363 10.4726 34.5697 10.3324C34.403 10.2188 34.4295 9.94603 34.6037 9.8589C34.7893 9.74525 35.0506 9.91572 35.0241 10.1317Z" fill="#FFFEFE"/>
<path d="M36.9818 10.7117C36.8607 10.617 36.6902 10.6814 36.5463 10.6776C36.5463 10.7117 36.5425 10.7799 36.5388 10.814C36.2888 10.5526 35.8419 10.5753 35.5731 10.7912C35.1944 11.0905 35.1489 11.7004 35.4254 12.0831C35.6715 12.4354 36.2547 12.5301 36.5539 12.1891C36.5539 12.227 36.5501 12.3028 36.5463 12.3407C36.6902 12.3596 36.8417 12.3748 36.9856 12.3444C36.9894 11.7951 37.0008 11.2496 36.9818 10.7117ZM36.0995 11.9846C35.6223 11.9656 35.5693 11.1625 36.0199 11.0488C36.1449 11.0147 36.285 11.0375 36.3873 11.1208C36.6902 11.3708 36.5425 12.0262 36.0995 11.9846Z" fill="#FFFEFE"/>
<path d="M15.5552 7.28687C15.4605 7.5028 15.3128 7.71495 15.0932 7.81344C14.9569 7.84754 14.7561 7.79829 14.7486 7.62782C14.7258 7.26792 15.1424 6.9838 15.4757 7.08987C15.5022 7.15427 15.5287 7.21868 15.5552 7.28687Z" fill="#FF0606"/>
<path d="M19.9595 9.74523C19.8724 9.88161 19.8005 10.0369 19.6641 10.1354C19.4369 10.3135 19.1491 10.3665 18.8802 10.4536C18.4106 10.609 17.9638 10.8173 17.532 11.0522C16.3088 11.6849 15.1084 12.3668 13.9647 13.1358C13.8359 13.2229 13.7185 13.329 13.5936 13.4237C13.5708 13.8783 13.5557 14.3367 13.5519 14.7913C13.5368 15.1209 13.5708 15.458 13.5178 15.7876C13.5405 15.9202 13.5557 16.0604 13.5102 16.193C13.5292 16.2346 13.5443 16.2763 13.5633 16.3218C13.5481 16.3407 13.5254 16.3786 13.5102 16.3975C13.5178 16.4506 13.5254 16.5036 13.5216 16.5604C13.533 16.8029 13.6504 17.0378 13.5973 17.2802C13.6125 17.2954 13.639 17.3295 13.6542 17.3446C13.6731 17.409 13.6958 17.4772 13.7185 17.5416C13.6844 17.6098 13.6542 17.678 13.6239 17.7462C13.6504 17.7651 13.7072 17.7954 13.7337 17.8106C13.745 17.8447 13.7602 17.875 13.7716 17.9091C13.7564 17.9394 13.7223 17.9962 13.7072 18.0227C13.7375 18.0644 13.7678 18.1099 13.7981 18.1553C13.7791 18.2235 13.764 18.2917 13.7602 18.3637C13.6882 18.5001 13.5784 18.6251 13.4231 18.663C13.23 18.6971 12.9914 18.6365 12.8968 18.4508C12.7377 18.0985 12.8134 17.7045 12.8134 17.3295C12.8627 16.1968 12.8513 15.0603 12.8702 13.9276C12.6241 14.0564 12.4158 14.242 12.1962 14.4125C11.5259 14.9239 10.8896 15.4694 10.2345 15.9998C10.0679 16.1248 9.94668 16.2915 9.79141 16.4279C9.5036 16.6552 9.28016 16.9469 9.02265 17.2045C8.71969 17.4962 8.45838 17.822 8.14406 18.1023C7.94335 18.3523 7.45483 18.2425 7.40181 17.9167C7.36773 17.8068 7.38666 17.6894 7.45861 17.5984C7.71992 17.2423 8.06453 16.962 8.38264 16.6552C8.7462 16.3028 9.14383 15.9846 9.53011 15.6588C9.98076 15.2724 10.4428 14.9049 10.901 14.5337C11.2456 14.2837 11.5902 14.0336 11.9349 13.7836C12.2416 13.5525 12.5408 13.3138 12.8589 13.1017C12.8665 12.9539 12.8627 12.8024 12.8589 12.6547C12.5786 12.8706 12.2302 12.9918 11.878 12.9691C11.6849 12.9426 11.4918 12.81 11.4425 12.613C11.3592 12.3251 11.4198 12.0182 11.3933 11.7227C11.4312 11.2833 11.4463 10.8287 11.6319 10.4233C11.7909 10.1051 12.0106 9.79069 12.3476 9.65052C12.465 9.60885 12.6089 9.55581 12.7263 9.63915C12.8059 9.81342 12.7074 10.0218 12.5824 10.1506C12.4158 10.3211 12.3287 10.5446 12.2492 10.7643C12.1999 10.912 12.1545 11.0636 12.1924 11.2189C12.1621 11.4613 12.1166 11.7038 12.1469 11.9462C12.1659 12.0485 12.2113 12.1698 12.3287 12.1925C12.5786 12.2001 12.8097 11.9917 12.8475 11.7455C12.9763 11.0105 12.999 10.2642 13.0747 9.52172C13.1088 9.2035 13.6314 9.05196 13.7905 9.35124C13.8321 9.79069 13.7375 10.2301 13.7185 10.6696C13.692 11.0939 13.6276 11.5144 13.6352 11.9387C13.6314 12.1622 13.6087 12.3819 13.6125 12.6054C14.2449 12.2076 14.8622 11.7909 15.5249 11.4462C16.2104 11.0333 16.9261 10.662 17.6154 10.2491C17.5283 10.1771 17.4222 10.1013 17.4071 9.9801C17.3768 9.76796 17.4109 9.55202 17.4147 9.33609C17.4071 8.96104 17.4828 8.58221 17.4449 8.20716C17.4222 8.09351 17.2973 8.08972 17.2064 8.0973C16.9829 8.16549 16.8693 8.389 16.7178 8.54433C16.6762 8.68828 16.6497 8.83224 16.608 8.9762C16.5701 9.04817 16.5891 9.12015 16.608 9.19213C16.5815 9.22623 16.555 9.26032 16.5285 9.29442C16.5512 9.34745 16.5739 9.40049 16.5967 9.45353C16.5777 9.46868 16.5436 9.49899 16.5247 9.51414C16.5171 9.63537 16.5096 9.75659 16.5247 9.87403C16.5285 9.93464 16.5323 9.99147 16.5399 10.0521C16.5323 10.1316 16.5285 10.2112 16.5285 10.2907C16.4641 10.4082 16.4376 10.5597 16.3051 10.6241C16.1687 10.7037 16.0059 10.7984 15.8468 10.7378C15.7105 10.6847 15.7219 10.5105 15.7256 10.3892C15.7635 9.76417 15.7787 9.13909 15.8165 8.51402C15.8279 8.29051 15.9415 8.05942 16.1498 7.95335C16.3505 7.85485 16.5853 7.86243 16.8012 7.89273C17.0359 7.83212 17.142 7.58209 17.3351 7.45328C17.5207 7.32448 17.7744 7.21841 17.9941 7.32448C18.1115 7.37373 18.1418 7.50253 18.1796 7.6124C18.1872 7.67301 18.1986 7.73362 18.2061 7.79045C18.1683 7.88137 18.1721 7.97229 18.1986 8.06321C18.1986 8.13518 18.2023 8.20338 18.2023 8.27535L18.1758 8.29051C18.1304 8.66555 18.1986 9.0406 18.1721 9.41564C18.1948 9.5596 18.2289 9.74902 18.3841 9.80584C18.7022 9.73007 18.9673 9.52929 19.2627 9.3967C19.4331 9.31715 19.6263 9.33988 19.8043 9.37776C19.9103 9.47247 19.9557 9.61642 19.9595 9.74523Z" fill="#FF0606"/>
<path d="M15.1274 9.53679C15.1388 9.80197 15.1274 10.0672 15.0971 10.3285C15.0441 10.5445 15.0706 10.7718 15.063 10.9915C15.0252 11.1847 14.8472 11.3135 14.6805 11.3931C14.5745 11.4537 14.4268 11.4916 14.3284 11.3931C14.2413 11.2718 14.2905 11.1165 14.2943 10.9801C14.3662 10.3248 14.4079 9.6618 14.5063 9.01021C14.5556 8.72987 14.8434 8.4268 15.1464 8.5594C15.2675 8.8814 15.0971 9.21099 15.1274 9.53679Z" fill="#FF0606"/>
<path d="M9.30665 9.94605C9.21198 10.1847 8.9734 10.3173 8.76133 10.4385C8.64393 10.4234 8.51138 10.359 8.51138 10.2188C8.51517 9.93468 8.74996 9.71875 8.98855 9.6051C9.06807 9.56722 9.15517 9.58237 9.24227 9.58995C9.28014 9.7036 9.35588 9.82482 9.30665 9.94605Z" fill="#FF0606"/>
<path d="M34.1153 9.91976C34.0093 9.82126 33.8124 9.85536 33.6798 9.89703C33.6609 10.2001 33.6685 10.5032 33.676 10.8062C33.3844 10.5145 32.8656 10.5789 32.6043 10.8782C32.3203 11.2002 32.3051 11.7268 32.5551 12.0715C32.7937 12.4163 33.3806 12.5261 33.6685 12.1852C33.6836 12.2382 33.6685 12.314 33.7253 12.3443C33.8578 12.3632 33.9941 12.3519 34.1267 12.3329C34.1077 11.5298 34.1456 10.7229 34.1153 9.91976ZM33.2292 11.9844C32.7747 11.9579 32.7103 11.2192 33.1118 11.0638C33.2443 11.0108 33.4034 11.0297 33.517 11.1169C33.8313 11.3631 33.676 12.0336 33.2292 11.9844Z" fill="#FF0606"/>
<path d="M35.0241 10.1317C35.0165 10.3476 34.7363 10.4726 34.5697 10.3324C34.403 10.2188 34.4295 9.94603 34.6037 9.8589C34.7893 9.74525 35.0506 9.91572 35.0241 10.1317Z" fill="#FF0606"/>
<path d="M11.1053 10.9615C10.916 11.166 10.6357 11.2873 10.507 11.5525C10.2911 12.0715 10.3707 12.6435 10.3101 13.189C10.2873 13.5034 9.97302 13.7345 9.67385 13.7421C9.48071 13.6815 9.4845 13.439 9.49586 13.2724C9.52615 12.9731 9.50343 12.6738 9.53373 12.3783C9.59811 12.0411 9.59432 11.7002 9.61325 11.3592C9.63219 11.1812 9.66627 10.9804 9.81397 10.8592C9.93894 10.7417 10.1094 10.7001 10.2722 10.6773C10.4729 10.6508 10.6433 10.5296 10.8327 10.4652C11.1129 10.344 11.2757 10.7796 11.1053 10.9615Z" fill="#FF0606"/>
<path d="M30.2525 12.2686C30.2449 12.3709 30.1124 12.3482 30.0404 12.3557C29.9647 12.3482 29.8284 12.3785 29.817 12.2686C29.7905 11.9352 29.8246 11.6019 29.8018 11.2685C29.7943 11.1548 29.6996 11.0526 29.586 11.0374C29.408 10.9919 29.2111 11.1283 29.2073 11.3139C29.1884 11.6397 29.2187 11.9655 29.1959 12.2913C29.1656 12.3709 29.0634 12.3482 28.999 12.3557C28.9195 12.352 28.8286 12.3671 28.7604 12.3141C28.715 11.9504 28.7831 11.5791 28.7301 11.2192C28.6506 10.9465 28.2113 10.9806 28.1507 11.2495C28.1128 11.5905 28.1545 11.9352 28.128 12.2762C28.1128 12.3823 27.9727 12.3482 27.897 12.3595C27.825 12.352 27.6887 12.3785 27.6811 12.2762C27.6698 11.7761 27.6773 11.2723 27.6773 10.7684C27.6887 10.6131 27.8894 10.6775 27.9954 10.6661C28.1091 10.651 28.1166 10.7722 28.1204 10.8518C28.359 10.5335 28.9005 10.5335 29.1126 10.8821C29.3323 10.5525 29.87 10.5222 30.1237 10.8253C30.2714 10.9995 30.2639 11.2382 30.2601 11.4541C30.2525 11.7231 30.2677 11.9958 30.2525 12.2686Z" fill="#FF0606"/>
<path d="M31.8622 10.7725C31.5479 10.5452 31.0707 10.5566 30.7867 10.8218C30.3625 11.1968 30.408 11.9848 30.9041 12.2765C31.3093 12.5341 31.9758 12.4015 32.1273 11.9052C32.0478 11.7992 31.8963 11.8029 31.7789 11.7651C31.688 11.8863 31.5744 12.0113 31.4115 12.0075C31.1767 12.034 30.9722 11.8522 30.9382 11.6249C31.2941 11.6211 31.6501 11.6249 32.0023 11.6249C32.0667 11.6211 32.1652 11.6363 32.1652 11.5415C32.1803 11.2612 32.0932 10.9468 31.8622 10.7725ZM30.9457 11.318C30.9874 11.1059 31.1919 10.943 31.4115 10.9922C31.5857 11.0074 31.6956 11.1589 31.7259 11.3218C31.4646 11.318 31.207 11.318 30.9457 11.318Z" fill="#FF0606"/>
<path d="M36.9818 10.7117C36.8607 10.617 36.6902 10.6814 36.5463 10.6776C36.5463 10.7117 36.5425 10.7799 36.5388 10.814C36.2888 10.5526 35.8419 10.5753 35.5731 10.7912C35.1944 11.0905 35.1489 11.7004 35.4254 12.0831C35.6715 12.4354 36.2547 12.5301 36.5539 12.1891C36.5539 12.227 36.5501 12.3028 36.5463 12.3407C36.6902 12.3596 36.8417 12.3748 36.9856 12.3444C36.9894 11.7951 37.0008 11.2496 36.9818 10.7117ZM36.0995 11.9846C35.6223 11.9656 35.5693 11.1625 36.0199 11.0488C36.1449 11.0147 36.285 11.0375 36.3873 11.1208C36.6902 11.3708 36.5425 12.0262 36.0995 11.9846Z" fill="#FF0606"/>
<path d="M34.975 12.1361C34.9636 12.2042 35.0015 12.3179 34.9106 12.3444C34.797 12.3596 34.6796 12.3634 34.566 12.3444C34.4902 12.3027 34.5205 12.2042 34.5129 12.1361C34.5205 11.6663 34.5054 11.2003 34.5205 10.7306C34.5281 10.7154 34.547 10.6851 34.5546 10.6738C34.6871 10.6738 34.8689 10.6094 34.9636 10.723C34.9825 11.1928 34.9674 11.6663 34.975 12.1361Z" fill="#FF0606"/>
<path d="M8.93931 11.7119C9.03398 11.9544 8.9128 12.2082 8.89765 12.4544C8.8825 12.8977 8.74996 13.3295 8.76511 13.7766C8.76132 13.9205 8.73102 14.0645 8.69315 14.2009C8.71588 14.2084 8.75753 14.2198 8.77647 14.2274C8.60226 14.3297 8.46215 14.4812 8.2728 14.557C8.14404 14.6024 7.98498 14.5191 7.98877 14.3713C7.96605 13.7463 8.06451 13.125 8.07966 12.4999C8.10238 12.1817 8.10617 11.818 8.34096 11.5718C8.46593 11.4543 8.63256 11.3331 8.81434 11.3596C8.95067 11.3937 8.9431 11.5566 8.98097 11.6665C8.97339 11.674 8.95067 11.7006 8.93931 11.7119Z" fill="#FF0606"/>
</svg>
