<svg width="34" height="25" viewBox="0 0 34 25" fill="none" xmlns="http://www.w3.org/2000/svg">
<path d="M18.0545 4.30917C18.0261 4.13138 18.0474 3.94648 18.0758 3.76158C18.2604 2.50283 19.2259 1.44321 20.4542 1.12319C20.5536 1.09474 20.6317 1.11607 20.7169 1.15874C21.5191 1.5641 22.2362 2.09036 22.861 2.74463C23.933 3.86826 24.6146 5.19812 24.8986 6.72711C25.0122 7.33871 25.0548 7.9503 25.0193 8.56901C24.8986 10.4678 24.2028 12.1177 22.8965 13.5044C21.7889 14.6779 20.44 15.4317 18.8568 15.773C18.2249 15.9082 17.5859 15.9651 16.9469 15.9366C15.0442 15.8442 13.3758 15.1686 11.97 13.8671C10.7276 12.7151 9.93951 11.2999 9.61292 9.62864C9.47803 8.94592 9.44253 8.2561 9.49223 7.56628C9.62712 5.80972 10.2803 4.25939 11.4588 2.94375C12.5522 1.71345 13.9082 0.91695 15.5128 0.547148C16.1518 0.397805 16.8049 0.333801 17.4581 0.355136C18.4592 0.383582 19.4247 0.596929 20.3477 0.995178C20.3761 1.0094 20.4045 1.02362 20.4258 1.05207C20.3122 1.04496 20.2057 1.03074 20.0921 1.03074C19.5241 1.02362 18.9703 1.10185 18.4237 1.24408C17.2025 1.55699 16.095 2.1117 15.1507 2.95797C14.0076 3.98204 13.2906 5.2479 13.0137 6.76267C12.8291 7.77962 12.9143 8.78236 13.319 9.73531C13.8231 10.9229 14.6679 11.7692 15.8749 12.2386C17.6143 12.9142 19.9004 12.3381 20.9938 10.3256C21.4197 9.5433 21.5759 8.70413 21.4765 7.81518C21.4055 7.15381 21.1997 6.54932 20.8163 6.00173C20.4684 5.51103 20.0069 5.14834 19.4815 4.86388C19.0839 4.65053 18.6651 4.50119 18.232 4.38029C18.1823 4.36607 18.1326 4.35184 18.0829 4.33762C18.0758 4.33051 18.0687 4.3234 18.0545 4.30917Z" fill="#ED1C24"/>
<path d="M12.0477 18.5967C12.4169 18.5967 12.7648 18.5967 13.1127 18.5967C13.1198 18.6038 13.1269 18.6038 13.1269 18.6109L13.134 18.618C13.134 18.6465 13.1411 18.6678 13.1411 18.6963C13.1411 20.6377 13.1411 22.5863 13.1411 24.5278C13.0488 24.5562 12.353 24.5704 12.1329 24.542C12.1187 24.4495 12.1045 24.3571 12.0832 24.2504C12.0548 24.2646 12.0335 24.2717 12.0193 24.286C11.4797 24.8051 10.642 24.7056 10.1663 24.3713C9.88939 24.1722 9.6764 23.9233 9.54151 23.6175C9.20782 22.885 9.17232 22.1312 9.46341 21.3773C9.7119 20.7444 10.1663 20.3319 10.8337 20.1826C11.1744 20.1044 11.5223 20.1186 11.8631 20.211C11.9128 20.2253 11.9625 20.2324 12.0335 20.2537C12.0335 20.1968 12.0406 20.1541 12.0406 20.1044C12.0406 19.6492 12.0406 19.187 12.0406 18.7318C12.0406 18.6892 12.0406 18.6394 12.0477 18.5967ZM12.0406 22.2663C12.0406 21.9463 12.0406 21.6262 12.0406 21.3062C12.0406 21.1853 12.0406 21.1853 11.927 21.1498C11.8205 21.1213 11.7069 21.0858 11.5933 21.0715C11.2454 21.0289 10.9331 21.1071 10.6846 21.3773C10.5639 21.5125 10.4787 21.6689 10.4219 21.8467C10.3296 22.1454 10.3296 22.4441 10.3793 22.7428C10.4148 22.949 10.4787 23.1481 10.6065 23.3259C10.9685 23.8237 11.5578 23.7882 11.9412 23.4397C12.0122 23.3757 12.0406 23.3046 12.0406 23.205C12.0335 22.8992 12.0406 22.5863 12.0406 22.2663Z" fill="#ED1C24"/>
<path d="M33.9859 22.671C33.0487 22.671 32.1328 22.671 31.1957 22.671C31.2028 22.735 31.2028 22.7919 31.217 22.8417C31.288 23.311 31.5862 23.6097 32.0548 23.6737C32.5659 23.7448 33.0416 23.6382 33.4747 23.3537C33.4889 23.3466 33.496 23.3395 33.5244 23.3252C33.6238 23.6168 33.7161 23.9084 33.8155 24.2142C33.7232 24.2711 33.6309 24.328 33.5386 24.3706C32.8996 24.6338 32.2464 24.7262 31.572 24.5627C30.8975 24.3991 30.4573 23.9582 30.2443 23.311C30.0242 22.6496 30.0384 21.974 30.3011 21.3269C30.6419 20.4877 31.4158 20.125 32.0831 20.1393C32.2748 20.1464 32.4594 20.1606 32.644 20.2033C33.1481 20.3384 33.5031 20.6442 33.7303 21.1135C33.9291 21.5331 33.993 21.974 34.0001 22.4363C33.9859 22.5074 33.9859 22.5785 33.9859 22.671ZM32.8641 21.8745C32.8357 21.5474 32.7292 21.2771 32.4452 21.1135C32.1612 20.95 31.8844 20.9855 31.6146 21.1633C31.359 21.3269 31.2525 21.5687 31.2241 21.8745C31.7779 21.8745 32.3103 21.8745 32.8641 21.8745Z" fill="#ED1C24"/>
<path d="M16.2374 21.7535C16.3013 21.3624 16.0883 21.0779 15.7049 21.0353C15.4209 21.0068 15.1512 21.0566 14.9027 21.1846C14.7678 21.2557 14.64 21.3411 14.4909 21.4193C14.3773 21.1704 14.2566 20.9215 14.1359 20.6583C14.1856 20.6228 14.2282 20.5872 14.2708 20.5588C14.6968 20.2885 15.1583 20.1463 15.6623 20.1321C15.8611 20.125 16.067 20.1392 16.2658 20.1819C16.8409 20.317 17.1817 20.6797 17.3095 21.2486C17.345 21.4051 17.3592 21.5686 17.3663 21.7322C17.3734 22.6283 17.3663 23.5243 17.3663 24.4204C17.3663 24.4488 17.3663 24.4844 17.3592 24.5128C17.2669 24.5413 16.6137 24.5484 16.3652 24.527C16.351 24.4346 16.3297 24.3421 16.3155 24.2355C16.2871 24.2568 16.2658 24.2639 16.2445 24.2781C15.9179 24.5697 15.5203 24.6622 15.0944 24.6266C14.7962 24.6053 14.5335 24.4986 14.2992 24.3066C13.9513 24.015 13.8022 23.6381 13.8306 23.183C13.8519 22.742 14.0649 22.422 14.4341 22.1873C14.7181 22.0024 15.0376 21.9029 15.3712 21.8531C15.5984 21.8175 15.8256 21.7962 16.0528 21.7677C16.1025 21.7677 16.1735 21.7606 16.2374 21.7535ZM16.2587 22.5429C16.2161 22.5429 16.1877 22.5358 16.1664 22.5358C15.9179 22.5714 15.6694 22.5998 15.428 22.6496C15.3144 22.6709 15.2009 22.7278 15.1086 22.7989C14.924 22.9412 14.853 23.1474 14.9098 23.375C14.9595 23.5741 15.1086 23.6737 15.3002 23.7021C15.641 23.7661 15.9392 23.6665 16.209 23.4532C16.2374 23.4319 16.2587 23.3892 16.2587 23.3536C16.2658 23.0905 16.2587 22.8203 16.2587 22.5429Z" fill="#ED1C24"/>
<path d="M4.58643 22.3796C4.60063 21.8463 4.72842 21.3485 5.04791 20.9147C5.38869 20.4524 5.85017 20.1964 6.41815 20.1466C6.65954 20.1253 6.90093 20.1253 7.14232 20.1822C7.76 20.3244 8.20728 20.6942 8.46997 21.2631C8.83205 22.0525 8.81075 22.8561 8.40607 23.6242C8.12208 24.1575 7.6748 24.4989 7.07842 24.6056C6.34715 24.7336 5.69398 24.5771 5.1828 24.0082C4.88461 23.6811 4.72132 23.2828 4.65032 22.849C4.60773 22.6997 4.60063 22.5432 4.58643 22.3796ZM5.66558 22.3725C5.67978 22.5005 5.68688 22.6286 5.70818 22.7495C5.74368 22.977 5.82888 23.1904 5.97087 23.3753C6.28326 23.7806 6.92933 23.7949 7.25592 23.4464C7.39791 23.297 7.49731 23.1193 7.54701 22.9201C7.6251 22.6357 7.6393 22.337 7.5967 22.0454C7.56121 21.8178 7.49021 21.5974 7.34821 21.4125C7.11392 21.1138 6.80864 21 6.43945 21.0782C6.13416 21.1493 5.93537 21.3556 5.81468 21.6329C5.70818 21.8747 5.67268 22.1236 5.66558 22.3725Z" fill="#ED1C24"/>
<path d="M25.5944 20.2535C25.921 20.2535 26.2405 20.2535 26.5742 20.2535C26.5955 20.3531 26.6168 20.4526 26.6381 20.5735C26.6878 20.538 26.7233 20.5166 26.7588 20.4882C27.277 20.1468 27.8308 20.0473 28.4272 20.2179C28.768 20.3175 29.0165 20.538 29.1798 20.8509C29.3005 21.0784 29.3644 21.3273 29.3857 21.5834C29.3999 21.7398 29.407 21.8963 29.407 22.0598C29.407 22.8421 29.407 23.6244 29.407 24.4067C29.407 24.4493 29.407 24.4849 29.407 24.5204C29.3076 24.556 28.5763 24.5631 28.3136 24.5347C28.3136 24.4849 28.3065 24.4351 28.3065 24.3853C28.3065 23.6386 28.3136 22.899 28.3065 22.1523C28.3065 21.9745 28.2852 21.7896 28.2426 21.6189C28.0864 21.0642 27.6107 20.9718 27.2273 21.1069C27.0286 21.178 26.8653 21.306 26.7162 21.4411C26.6665 21.4838 26.6736 21.5336 26.6736 21.5834C26.6736 21.8678 26.6736 22.1452 26.6736 22.4296C26.6736 23.0768 26.6736 23.7239 26.6736 24.3711C26.6736 24.4209 26.6736 24.4778 26.6736 24.5347C26.3044 24.5347 25.9494 24.5347 25.5944 24.5347C25.5731 24.4493 25.566 20.4597 25.5944 20.2535Z" fill="#ED1C24"/>
<path d="M24.8914 22.3797C24.8701 22.8917 24.7494 23.3753 24.4584 23.802C24.075 24.3567 23.5425 24.634 22.8751 24.6482C22.5201 24.6554 22.1864 24.5985 21.867 24.4349C21.4623 24.2216 21.1712 23.9015 20.9937 23.4819C20.6813 22.7708 20.6671 22.0596 20.9724 21.3414C21.2351 20.7298 21.6895 20.3173 22.3497 20.1893C23.0313 20.0542 23.6632 20.168 24.1886 20.6587C24.5151 20.9644 24.7139 21.3485 24.8062 21.7823C24.8488 21.9743 24.863 22.1805 24.8914 22.3797ZM23.8052 22.3797C23.791 22.2588 23.7839 22.1307 23.7697 22.0099C23.7342 21.7965 23.6632 21.5903 23.5283 21.4196C23.1591 20.936 22.4775 20.936 22.1154 21.4267C22.0444 21.5263 21.9877 21.64 21.9451 21.7538C21.8315 22.081 21.8173 22.4152 21.8741 22.7566C21.9096 22.9486 21.9735 23.1335 22.0799 23.297C22.3142 23.6668 22.7118 23.7735 23.0952 23.6597C23.3295 23.5886 23.4928 23.4251 23.6064 23.2117C23.7484 22.9486 23.791 22.6712 23.8052 22.3797Z" fill="#ED1C24"/>
<path d="M18.5165 21.1346C18.3178 21.1346 18.1403 21.1346 17.9486 21.1346C17.9344 20.8359 17.9415 20.5515 17.9415 20.2457C18.1332 20.2457 18.3178 20.2457 18.5165 20.2457C18.5165 20.1746 18.5165 20.1177 18.5165 20.0608C18.5307 19.8759 18.5236 19.691 18.5591 19.5132C18.6727 18.93 19.0348 18.5887 19.6241 18.5033C20.0501 18.4393 20.469 18.482 20.895 18.6527C20.8524 18.9514 20.8169 19.2501 20.7743 19.5559C20.7246 19.5416 20.6891 19.5345 20.6536 19.5203C20.4761 19.4492 20.2986 19.435 20.1069 19.4421C19.83 19.4563 19.6525 19.6128 19.6099 19.8972C19.5957 20.0039 19.5957 20.1177 19.5886 20.2386C19.9081 20.2386 20.2063 20.2386 20.5258 20.2386C20.5329 20.5444 20.5258 20.8288 20.5329 21.1346C20.2205 21.1346 19.9223 21.1346 19.6099 21.1346C19.6099 22.2796 19.6099 23.4032 19.6099 24.5411C19.2407 24.5411 18.8857 24.5411 18.5165 24.5411C18.5023 24.406 18.5094 24.2637 18.5094 24.1286C18.5094 23.9864 18.5094 23.8441 18.5094 23.709C18.5094 23.5668 18.5094 23.4246 18.5094 23.2894C18.5094 23.1472 18.5094 22.9979 18.5094 22.8556C18.5094 22.7134 18.5094 22.5712 18.5094 22.4361C18.5094 22.2938 18.5094 22.1516 18.5094 22.0165C18.5094 21.8742 18.5094 21.732 18.5094 21.5969C18.5165 21.4404 18.5165 21.2982 18.5165 21.1346Z" fill="#ED1C24"/>
<path d="M0.00012207 20.2527C0.0214212 20.2527 0.0427204 20.2456 0.0640195 20.2456C0.419005 20.2456 0.773991 20.2456 1.14318 20.2456C1.51236 21.1844 1.88155 22.1302 2.25783 23.0689C2.26493 23.0689 2.27913 23.0689 2.28623 23.0689C2.64122 22.1302 3.0033 21.1915 3.35829 20.2527C3.72747 20.2527 4.08956 20.2527 4.47294 20.2527C3.89077 21.6893 3.31569 23.1116 2.73351 24.541C2.41402 24.541 2.09454 24.541 1.78215 24.541C1.70405 24.413 0.0143215 20.3523 0.00012207 20.2527Z" fill="#ED1C24"/>
</svg>
